<?xml version="1.0" encoding="UTF-8" standalone="no"?>
<!-- Created with Inkscape (http://www.inkscape.org/) -->

<svg
   width="138.23357mm"
   height="138.23357mm"
   viewBox="0 0 138.23357 138.23356"
   version="1.1"
   id="svg5"
   inkscape:version="1.1.2 (0a00cf5339, 2022-02-04)"
   sodipodi:docname="icon.svg"
   xmlns:inkscape="http://www.inkscape.org/namespaces/inkscape"
   xmlns:sodipodi="http://sodipodi.sourceforge.net/DTD/sodipodi-0.dtd"
   xmlns="http://www.w3.org/2000/svg"
   xmlns:svg="http://www.w3.org/2000/svg">
  <sodipodi:namedview
     id="namedview7"
     pagecolor="#505050"
     bordercolor="#eeeeee"
     borderopacity="1"
     inkscape:pageshadow="0"
     inkscape:pageopacity="0"
     inkscape:pagecheckerboard="0"
     inkscape:document-units="mm"
     showgrid="false"
     fit-margin-top="0"
     fit-margin-left="0"
     fit-margin-right="0"
     fit-margin-bottom="0"
     showguides="true"
     inkscape:guide-bbox="true"
     inkscape:zoom="0.54660446"
     inkscape:cx="266.18883"
     inkscape:cy="255.21197"
     inkscape:window-width="1366"
     inkscape:window-height="704"
     inkscape:window-x="0"
     inkscape:window-y="0"
     inkscape:window-maximized="1"
     inkscape:current-layer="g23913"
     inkscape:snap-bbox="false"
     inkscape:snap-bbox-edge-midpoints="false"
     inkscape:bbox-nodes="false"
     inkscape:snap-object-midpoints="false" />
  <defs
     id="defs2" />
  <g
     inkscape:groupmode="layer"
     id="g81871"
     inkscape:label="Nts square"
     style="display:inline"
     transform="translate(32.832556,3.6657355)">
    <path
       id="path82715"
       style="color:#000000;fill:#40c8a4;stroke-width:0.992;stroke-miterlimit:4;stroke-dasharray:none"
       d="m 21.28442,45.286945 h 30 v -5 h -30 z" />
    <path
       id="path82715-6"
       style="color:#000000;display:inline;fill:#40c8a4;stroke-width:0.992;stroke-miterlimit:4;stroke-dasharray:none"
       d="m 21.284419,24.086171 h 30 v -5 h -30 z" />
    <path
       id="path82709"
       style="color:#000000;fill:#40c8a4;stroke-width:1.00471;stroke-miterlimit:4;stroke-dasharray:none"
       d="M 60.552964,29.759941 H 12.015875 v 5 h 48.537089 z" />
    <path
       id="path82715-2"
       style="color:#000000;display:inline;fill:#40c8a4;stroke-width:0.992;stroke-miterlimit:4;stroke-dasharray:none"
       d="m 21.28442,111.39724 h 30 v -5 h -30 z" />
    <path
       id="path82715-6-9"
       style="color:#000000;display:inline;fill:#40c8a4;stroke-width:0.992;stroke-miterlimit:4;stroke-dasharray:none"
       d="m 21.28442,90.19652 h 30 v -5 h -30 z" />
    <path
       id="path82709-1"
       style="color:#000000;display:inline;fill:#40c8a4;stroke-width:1.00471;stroke-miterlimit:4;stroke-dasharray:none"
       d="M 60.552964,95.870264 H 12.015875 v 4.999976 h 48.537089 z" />
  </g>
  <g
     inkscape:groupmode="layer"
     id="g23913"
     inkscape:label="Helix Left Paths Final"
     style="display:inline"
     transform="translate(32.832556,3.6657355)">
    <path
       id="path23911"
       style="color:#000000;fill:#216d71;stroke-width:3.77953;-inkscape-stroke:none"
       d="m 173.96094,254.78125 c -0.68064,0.46585 -1.35726,0.93118 -2.04492,1.39844 -1.08946,0.74027 -2.18773,1.48275 -3.29493,2.22656 -1.1072,0.74381 -2.22453,1.48896 -3.34961,2.23633 -1.12507,0.74736 -2.25926,1.4971 -3.40234,2.24804 -1.14308,0.75095 -2.29385,1.50328 -3.45508,2.25782 -0.83684,0.54376 -1.68492,1.08913 -2.53125,1.63476 56.02934,27.953 82.53518,54.8143 91.09375,77.39649 9.65341,25.47097 -0.68067,48.204 -21.03125,69.98047 -31.68579,33.90591 -86.29157,59.83063 -108.99609,69.68554 2.87341,0.82606 5.71027,1.6208 8.42578,2.33985 3.10016,0.8209 6.08399,1.57305 8.92188,2.25976 2.83786,0.68672 5.5295,1.30707 8.04492,1.86524 1.55198,0.34438 2.89985,0.62078 4.31054,0.91797 27.56061,-13.40589 66.29802,-35.48874 93.09571,-64.16407 22.90933,-24.5145 37.57572,-56.14149 24.90039,-89.58593 -10.60261,-27.97547 -38.5027,-55.33576 -90.6875,-82.69727 z"
       transform="scale(0.26458333)" />
    <path
       id="path23934"
       style="color:#000000;fill:#216d71;stroke-width:3.77953;-inkscape-stroke:none"
       d="M 127.53125,3.5195312 C 99.905049,16.928875 61.078565,39.008809 34.185547,67.669922 11.189065,92.178317 -3.5784199,123.78416 9.0273438,157.24219 19.59829,185.29943 47.580879,212.73335 100.01172,240.16602 c 0.77959,-0.53416 1.55882,-1.06752 2.34766,-1.60352 1.08945,-0.74027 2.18772,-1.48275 3.29492,-2.22656 1.1072,-0.74381 2.22258,-1.48897 3.34765,-2.23633 1.12508,-0.74737 2.25926,-1.49711 3.40235,-2.24805 1.14308,-0.75094 2.2958,-1.50327 3.45703,-2.25781 0.73737,-0.47913 1.48378,-0.96082 2.22851,-1.44141 C 61.805508,200.13167 35.238063,173.20619 26.714844,150.58398 17.123423,125.12658 27.527955,102.37831 47.966797,80.595703 79.786883,46.683592 134.52404,20.758891 157.28711,10.900391 151.16535,9.1419851 145.277,7.5790122 139.97852,6.296875 135.27913,5.1597094 131.29221,4.3092735 127.53125,3.5195312 Z"
       transform="scale(0.26458333)" />
  </g>
  <g
     inkscape:groupmode="layer"
     id="g23308"
     inkscape:label="Helix Right Paths Final"
     style="display:inline"
     transform="translate(32.832556,3.6657355)">
    <path
       id="path23306"
       style="color:#000000;fill:#216d71;stroke-width:3.77953;-inkscape-stroke:none"
       d="m 182.00781,18.882812 c -0.0845,0.03438 -1.29165,0.525616 -3.62109,1.517579 -2.40842,1.025593 -5.88904,2.534099 -10.17969,4.464843 -2.14532,0.965373 -4.49254,2.036002 -7.00976,3.205078 -1.34741,0.625778 -2.85738,1.350419 -4.29688,2.03125 24.47038,7.394684 53.01292,18.889259 72.33008,34.59375 10.12422,8.230806 17.60762,17.440786 21.36328,27.511719 3.75567,10.070929 4.17274,21.173799 -0.87891,34.998049 -10.10329,27.6485 -43.9494,65.54767 -117.54882,112.35156 -75.189672,47.81517 -112.325818,86.94638 -124.9980512,121.625 -6.33611691,17.3393 -6.0919109,33.72687 -0.8339844,47.82617 5.2579266,14.09927 15.1418776,25.74627 27.0312496,35.41211 17.046126,13.85819 38.412068,23.97094 58.878907,31.42774 0.07578,-0.0309 1.293087,-0.52677 3.625,-1.52149 2.402495,-1.02483 5.874589,-2.53165 10.154299,-4.46094 2.13985,-0.96464 4.48152,-2.03494 6.99218,-3.20312 1.35005,-0.62816 2.86203,-1.35539 4.30469,-2.03906 -24.458672,-7.39535 -52.97215,-18.88298 -72.275388,-34.57617 -10.124219,-8.2308 -17.599803,-17.44079 -21.355469,-27.51172 -3.755666,-10.07093 -4.182504,-21.17379 0.869141,-34.99805 10.10329,-27.6485 43.951361,-65.54963 117.550786,-112.35352 75.18967,-47.81517 112.32385,-86.94442 124.99609,-121.62304 6.33612,-17.33932 6.09386,-33.728839 0.83594,-47.828128 C 262.68348,71.633132 252.79758,59.988109 240.9082,50.322266 223.85568,36.458876 202.48165,26.340399 182.00781,18.882812 Z"
       transform="scale(0.26458333)" />
  </g>
</svg>
