<svg id="Layer_1" data-name="Layer 1" xmlns="http://www.w3.org/2000/svg" width="183.29512" height="195.11523" viewBox="0 0 183.29512 195.11523">
  <defs>
    <style>
      .cls-1, .cls-2, .cls-3, .cls-4, .cls-5, .cls-6 {
        isolation: isolate;
        font-family: Poppins-Regular, Poppins;
      }

      .cls-1, .cls-4 {
        font-size: 21.7452px;
      }

      .cls-1, .cls-2, .cls-3, .cls-7 {
        fill: #1f78b4;
      }

      .cls-1 {
        letter-spacing: 0.06099em;
      }

      .cls-2, .cls-3, .cls-5, .cls-6 {
        font-size: 21.74389px;
      }

      .cls-2 {
        letter-spacing: 0.061em;
      }

      .cls-3 {
        letter-spacing: 0.06602em;
      }

      .cls-4, .cls-5, .cls-6, .cls-9 {
        fill: #4e4e4e;
      }

      .cls-4 {
        letter-spacing: 0.061em;
      }

      .cls-5 {
        letter-spacing: 0.06102em;
      }

      .cls-6 {
        letter-spacing: 0.066em;
      }

      .cls-8 {
        fill: #b25eb0;
      }
    </style>
  </defs>
  <title>SVG_AI_logos</title>
  <text class="cls-1" transform="translate(57.27949 57.23047) scale(1.03488 1)">Summit</text>
  <text class="cls-2" transform="translate(57.32637 18.46045) scale(1.03371 1)">Systems</text>
  <text class="cls-3" transform="translate(57.17793 38.07666) scale(1.03371 1)">Genomics</text>
  <text class="cls-1" transform="translate(57.27949 182.67676) scale(1.03488 1)">Summit</text>
  <text class="cls-2" transform="translate(57.32637 143.90723) scale(1.03371 1)">Systems</text>
  <text class="cls-3" transform="translate(57.17793 163.52344) scale(1.03371 1)">Genomics</text>
  <text class="cls-4" transform="translate(57.43623 119.11865) scale(1.0407 1)">Summit</text>
  <text class="cls-5" transform="translate(57.48262 80.34912) scale(1.03745 1)">Systems</text>
  <text class="cls-6" transform="translate(56.3332 99.96533) scale(1.03745 1)">Genomics</text>
  <g>
    <g>
      <path class="cls-7" d="M30.09852,60.96H26.85675a1.68261,1.68261,0,0,1-1.62089-1.73811V53.55221a24.25485,24.25485,0,0,0-9.423-19.40771A31.376,31.376,0,0,1,3.624,9.04044V3.37073A1.68261,1.68261,0,0,1,5.24493,1.63263H8.4867a1.68261,1.68261,0,0,1,1.62089,1.73811V9.04044A24.25377,24.25377,0,0,0,19.5311,28.44815,31.37709,31.37709,0,0,1,31.7194,53.55221v5.66971A1.68261,1.68261,0,0,1,30.09852,60.96Z" transform="translate(-2.85244 -0.44238)"/>
      <g>
        <path class="cls-7" d="M25.00872,28.76668A32.03137,32.03137,0,0,0,31.7194,9.04044V3.37073a1.68261,1.68261,0,0,0-1.62089-1.73811H26.85675a1.68261,1.68261,0,0,0-1.62089,1.73811V9.04044a24.74808,24.74808,0,0,1-5.28182,15.366q.68742.62989,1.43557,1.19362a32.2999,32.2999,0,0,1,3.61912,3.1666Z" transform="translate(-2.85244 -0.44238)"/>
        <path class="cls-7" d="M10.33473,33.82562A32.033,32.033,0,0,0,3.624,53.55221v5.66971A1.68261,1.68261,0,0,0,5.24493,60.96H8.4867a1.68261,1.68261,0,0,0,1.62089-1.73811V53.55221a24.74947,24.74947,0,0,1,5.28182-15.36638q-.68726-.62989-1.43524-1.19327A32.32573,32.32573,0,0,1,10.33473,33.82562Z" transform="translate(-2.85244 -0.44238)"/>
      </g>
      <g>
        <path class="cls-8" d="M13.34936,4.33573h8.64473V7.81194H13.34936Z" transform="translate(-2.85244 -0.44238)"/>
        <path class="cls-8" d="M13.34936,54.78059h8.64473V58.2568H13.34936Z" transform="translate(-2.85244 -0.44238)"/>
        <g>
          <path class="cls-8" d="M21.30208,48.13777H14.04169a21.50984,21.50984,0,0,0-.60405,3.47621H21.905A21.46588,21.46588,0,0,0,21.30208,48.13777Z" transform="translate(-2.85244 -0.44238)"/>
          <path class="cls-8" d="M13.43743,10.97854a21.50168,21.50168,0,0,0,.60167,3.47621h7.26265a21.50984,21.50984,0,0,0,.604-3.47621Z" transform="translate(-2.85244 -0.44238)"/>
          <path class="cls-8" d="M15.136,17.62136a20.60273,20.60273,0,0,0,1.93739,3.47621h1.19567a20.60927,20.60927,0,0,0,1.93739-3.47621Z" transform="translate(-2.85244 -0.44238)"/>
          <path class="cls-8" d="M20.20744,44.97118A20.60974,20.60974,0,0,0,18.27016,41.495H17.07437A20.61675,20.61675,0,0,0,15.137,44.97118Z" transform="translate(-2.85244 -0.44238)"/>
        </g>
      </g>
    </g>
    <g>
      <path class="cls-8" d="M55.70852,52.733a3.48469,3.48469,0,1,1,3.24177-3.47621A3.369,3.369,0,0,1,55.70852,52.733Z" transform="translate(-2.85244 -0.44238)"/>
      <path class="cls-8" d="M55.70852,16.8121a3.369,3.369,0,0,1-3.24177-3.47621,3.24968,3.24968,0,1,1,6.48354,0A3.369,3.369,0,0,1,55.70852,16.8121Z" transform="translate(-2.85244 -0.44238)"/>
      <ellipse class="cls-8" cx="52.85608" cy="30.85394" rx="3.24177" ry="3.47621"/>
    </g>
    <g>
      <path class="cls-8" d="M51.82153,43.696l-7.61028-5.71247a1.547,1.547,0,0,0-.92952-.31413H31.29949a35.42975,35.42975,0,0,1,1.48019,3.47621h9.99114l7.02211,5.271a6.932,6.932,0,0,1,2.02859-2.7206Z" transform="translate(-2.85244 -0.44238)"/>
      <path class="cls-8" d="M44.21125,24.60913l7.61028-5.71246a6.93121,6.93121,0,0,1-2.02859-2.7206l-7.02222,5.271h-9.991a35.43067,35.43067,0,0,1-1.4803,3.47621H43.28173A1.547,1.547,0,0,0,44.21125,24.60913Z" transform="translate(-2.85244 -0.44238)"/>
      <path class="cls-8" d="M49.43018,29.55822H28.56256q-.62469.89061-1.30492,1.738.67964.84733,1.30514,1.73822h20.8674a7.46366,7.46366,0,0,1,0-3.47621Z" transform="translate(-2.85244 -0.44238)"/>
    </g>
  </g>
  <g>
    <g>
      <path class="cls-9" d="M29.70143,124.38574H26.4138A1.70641,1.70641,0,0,1,24.77,122.623v-5.74991a24.598,24.598,0,0,0-9.55627-19.68225A31.81986,31.81986,0,0,1,2.85244,71.73168V65.98177a1.70641,1.70641,0,0,1,1.64382-1.7627H7.78389a1.70641,1.70641,0,0,1,1.64382,1.7627v5.74991a24.59688,24.59688,0,0,0,9.55682,19.68226,31.821,31.821,0,0,1,12.36073,25.45919V122.623A1.70641,1.70641,0,0,1,29.70143,124.38574Z" transform="translate(-2.85244 -0.44238)"/>
      <g>
        <path class="cls-9" d="M24.53963,91.737a32.4845,32.4845,0,0,0,6.80562-20.0053V65.98177a1.70641,1.70641,0,0,0-1.64382-1.7627H26.4138A1.70641,1.70641,0,0,0,24.77,65.98177v5.74991a25.09817,25.09817,0,0,1-5.35654,15.5834q.69714.6388,1.45587,1.2105a32.75682,32.75682,0,0,1,3.67031,3.2114Z" transform="translate(-2.85244 -0.44238)"/>
        <path class="cls-9" d="M9.65806,96.86748a32.48618,32.48618,0,0,0-6.80562,20.00565V122.623a1.70641,1.70641,0,0,0,1.64382,1.7627H7.78389A1.70641,1.70641,0,0,0,9.4277,122.623v-5.74991a25.09958,25.09958,0,0,1,5.35654-15.58376q-.697-.6388-1.45554-1.21015A32.783,32.783,0,0,1,9.65806,96.86748Z" transform="translate(-2.85244 -0.44238)"/>
      </g>
      <g>
        <path class="cls-9" d="M12.71534,66.96042h8.767v3.52539h-8.767Z" transform="translate(-2.85244 -0.44238)"/>
        <path class="cls-9" d="M12.71534,118.11889h8.767v3.52539h-8.767Z" transform="translate(-2.85244 -0.44238)"/>
        <g>
          <path class="cls-9" d="M20.78055,111.3821H13.41746a21.81413,21.81413,0,0,0-.6126,3.52539h8.58719A21.76955,21.76955,0,0,0,20.78055,111.3821Z" transform="translate(-2.85244 -0.44238)"/>
          <path class="cls-9" d="M12.80465,73.6972a21.80585,21.80585,0,0,0,.61018,3.52539h7.36539a21.81412,21.81412,0,0,0,.61259-3.52539Z" transform="translate(-2.85244 -0.44238)"/>
          <path class="cls-9" d="M14.52726,80.434a20.89418,20.89418,0,0,0,1.9648,3.52539h1.21259a20.90082,20.90082,0,0,0,1.9648-3.52539Z" transform="translate(-2.85244 -0.44238)"/>
          <path class="cls-9" d="M19.67043,108.17071a20.9013,20.9013,0,0,0-1.96469-3.52539H16.493a20.9084,20.9084,0,0,0-1.9648,3.52539Z" transform="translate(-2.85244 -0.44238)"/>
        </g>
      </g>
    </g>
    <g>
      <path class="cls-9" d="M55.67372,116.04232a3.534,3.534,0,1,1,3.28763-3.52539A3.41663,3.41663,0,0,1,55.67372,116.04232Z" transform="translate(-2.85244 -0.44238)"/>
      <path class="cls-9" d="M55.67372,79.61328a3.534,3.534,0,1,1,3.28763-3.52539A3.41663,3.41663,0,0,1,55.67372,79.61328Z" transform="translate(-2.85244 -0.44238)"/>
      <ellipse class="cls-9" cx="52.82128" cy="93.86003" rx="3.28763" ry="3.52539"/>
    </g>
    <g>
      <path class="cls-9" d="M51.73174,106.87748l-7.71793-5.79328a1.56892,1.56892,0,0,0-.94267-.31858H30.91939a35.931,35.931,0,0,1,1.50113,3.52539H42.553l7.12145,5.34555a7.03009,7.03009,0,0,1,2.05729-2.75909Z" transform="translate(-2.85244 -0.44238)"/>
      <path class="cls-9" d="M44.01381,87.52061l7.71793-5.79327a7.02926,7.02926,0,0,1-2.05729-2.75909L42.5529,84.3138H32.42053a35.93188,35.93188,0,0,1-1.50124,3.52539H43.07114A1.56893,1.56893,0,0,0,44.01381,87.52061Z" transform="translate(-2.85244 -0.44238)"/>
      <path class="cls-9" d="M49.30657,92.53971H28.14375q-.63353.9032-1.32338,1.76258.68925.85931,1.3236,1.76281h21.1626a7.56924,7.56924,0,0,1,0-3.52539Z" transform="translate(-2.85244 -0.44238)"/>
    </g>
  </g>
  <g>
    <g>
      <path class="cls-7" d="M30.18283,187.28444H26.90529a1.70118,1.70118,0,0,1-1.63877-1.75729v-5.73227A24.52248,24.52248,0,0,0,15.73957,160.173,31.72221,31.72221,0,0,1,3.41623,134.792V129.0597A1.70117,1.70117,0,0,1,5.055,127.30241H8.33254a1.70117,1.70117,0,0,1,1.63877,1.75729V134.792a24.52139,24.52139,0,0,0,9.52749,19.62186,31.72331,31.72331,0,0,1,12.3228,25.38107v5.73227A1.70118,1.70118,0,0,1,30.18283,187.28444Z" transform="translate(-2.85244 -0.44238)"/>
      <g>
        <path class="cls-7" d="M25.03687,154.73587A32.38481,32.38481,0,0,0,31.8216,134.792v-5.73227a1.70117,1.70117,0,0,0-1.63877-1.75729H26.90529a1.70118,1.70118,0,0,0-1.63877,1.75729V134.792a25.02115,25.02115,0,0,1-5.3401,15.53558q.695.63684,1.45141,1.20679a32.65631,32.65631,0,0,1,3.659,3.20154Z" transform="translate(-2.85244 -0.44238)"/>
        <path class="cls-7" d="M10.201,159.85063a32.38649,32.38649,0,0,0-6.78473,19.94426v5.73227A1.70118,1.70118,0,0,0,5.055,187.28444H8.33254a1.70118,1.70118,0,0,0,1.63877-1.75729v-5.73227a25.02256,25.02256,0,0,1,5.3401-15.53593q-.69484-.63684-1.45108-1.20644A32.68241,32.68241,0,0,1,10.201,159.85063Z" transform="translate(-2.85244 -0.44238)"/>
      </g>
      <g>
        <path class="cls-8" d="M13.24886,130.03534H21.989v3.51457H13.24886Z" transform="translate(-2.85244 -0.44238)"/>
        <path class="cls-8" d="M13.24886,181.03682H21.989v3.51457H13.24886Z" transform="translate(-2.85244 -0.44238)"/>
        <g>
          <path class="cls-8" d="M21.28932,174.3207H13.94883a21.74718,21.74718,0,0,0-.61072,3.51457h8.56083A21.70274,21.70274,0,0,0,21.28932,174.3207Z" transform="translate(-2.85244 -0.44238)"/>
          <path class="cls-8" d="M13.3379,136.75145a21.73893,21.73893,0,0,0,.60831,3.51457H21.289a21.74718,21.74718,0,0,0,.61072-3.51457Z" transform="translate(-2.85244 -0.44238)"/>
          <path class="cls-8" d="M15.05522,143.46756a20.83006,20.83006,0,0,0,1.95877,3.51457h1.20887a20.83668,20.83668,0,0,0,1.95877-3.51457Z" transform="translate(-2.85244 -0.44238)"/>
          <path class="cls-8" d="M20.18261,171.11916a20.83715,20.83715,0,0,0-1.95866-3.51457H17.015a20.84423,20.84423,0,0,0-1.95877,3.51457Z" transform="translate(-2.85244 -0.44238)"/>
        </g>
      </g>
    </g>
    <g>
      <path class="cls-8" d="M56.07542,178.96662A3.52314,3.52314,0,1,1,59.353,175.452,3.40614,3.40614,0,0,1,56.07542,178.96662Z" transform="translate(-2.85244 -0.44238)"/>
      <path class="cls-8" d="M56.07542,142.64937A3.52314,3.52314,0,1,1,59.353,139.1348,3.40614,3.40614,0,0,1,56.07542,142.64937Z" transform="translate(-2.85244 -0.44238)"/>
      <ellipse class="cls-8" cx="53.22297" cy="156.85104" rx="3.27754" ry="3.51457"/>
    </g>
    <g>
      <path class="cls-8" d="M52.14553,169.8299l-7.69425-5.7755a1.56411,1.56411,0,0,0-.93978-.3176H31.397a35.82067,35.82067,0,0,1,1.49653,3.51457H42.995l7.0996,5.32915a7.00852,7.00852,0,0,1,2.051-2.75062Z" transform="translate(-2.85244 -0.44238)"/>
      <path class="cls-8" d="M44.45128,150.53244l7.69425-5.7755a7.00769,7.00769,0,0,1-2.051-2.75062l-7.0997,5.32915H32.89358A35.82162,35.82162,0,0,1,31.39694,150.85H43.5115A1.56412,1.56412,0,0,0,44.45128,150.53244Z" transform="translate(-2.85244 -0.44238)"/>
      <path class="cls-8" d="M49.7278,155.53614H28.62993q-.63158.90043-1.31932,1.75717.68714.85668,1.31954,1.7574H49.7278a7.546,7.546,0,0,1,0-3.51457Z" transform="translate(-2.85244 -0.44238)"/>
    </g>
  </g>
</svg>
