<?xml version="1.0" standalone="no"?>
<!DOCTYPE svg PUBLIC "-//W3C//DTD SVG 20010904//EN"
 "http://www.w3.org/TR/2001/REC-SVG-20010904/DTD/svg10.dtd">
<svg version="1.0" xmlns="http://www.w3.org/2000/svg"
 width="1541.000000pt" height="1551.000000pt" viewBox="0 0 1541.000000 1551.000000"
 preserveAspectRatio="xMidYMid meet">

<g transform="translate(0.000000,1551.000000) scale(0.100000,-0.100000)"
fill="#000000" stroke="none">
<path d="M213 14913 c-34 -7 -81 -59 -89 -99 -13 -68 3 -642 20 -754 61 -385
201 -721 430 -1030 102 -138 315 -347 481 -470 289 -217 460 -416 590 -685
138 -286 175 -484 175 -930 0 -372 -5 -365 258 -365 146 0 161 2 186 21 54 42
56 55 56 351 0 163 -6 326 -14 403 -64 594 -363 1141 -823 1504 -67 53 -149
116 -183 141 -34 25 -106 88 -159 141 -265 261 -433 585 -497 957 -12 70 -19
186 -23 417 -5 288 -8 324 -24 349 -31 46 -71 56 -224 55 -76 -1 -148 -4 -160
-6z"/>
<path d="M1891 14902 c-67 -36 -71 -54 -71 -357 0 -361 -17 -494 -92 -720 -62
-188 -155 -358 -294 -541 l-25 -32 121 -92 c66 -50 153 -120 194 -155 l73 -64
35 43 c115 137 270 410 340 596 116 309 148 521 148 975 0 293 -4 315 -70 347
-52 27 -310 26 -359 0z"/>
<path d="M912 14683 l-43 -4 2 -96 c1 -53 4 -104 6 -114 5 -18 22 -19 334 -19
l329 0 0 114 0 113 -37 7 c-40 6 -517 5 -591 -1z"/>
<path d="M5370 14230 c-41 -41 -10 -110 48 -110 54 0 80 60 46 108 -19 28 -67
29 -94 2z"/>
<path d="M12120 14230 c-41 -41 -10 -110 48 -110 36 0 62 28 62 67 0 57 -69
84 -110 43z"/>
<path d="M6310 13891 l0 -351 44 0 44 0 4 168 c4 179 14 219 60 243 40 21 97
15 126 -15 l27 -26 3 -185 3 -185 45 0 44 0 0 188 c0 163 -3 192 -20 229 -28
63 -69 85 -152 81 -75 -4 -103 -21 -113 -69 -15 -67 -26 -10 -24 124 l1 142
-46 3 -46 3 0 -350z"/>
<path d="M14150 14200 l0 -40 74 0 75 0 3 -262 c3 -229 5 -267 21 -295 26 -49
69 -68 153 -67 111 1 124 7 124 53 l0 39 -73 -5 c-88 -7 -112 4 -127 55 -5 21
-10 149 -10 300 l0 262 -120 0 -120 0 0 -40z"/>
<path d="M7600 14201 c-78 -24 -131 -72 -169 -151 -24 -50 -26 -66 -26 -180 0
-109 3 -132 23 -176 48 -107 133 -156 271 -157 47 0 106 5 129 12 44 12 44 13
37 49 -4 20 -8 38 -8 39 -1 1 -27 -5 -57 -13 -69 -18 -94 -18 -157 1 -59 18
-113 70 -134 131 -18 50 -18 188 0 237 28 83 101 137 181 137 45 0 73 -11 108
-43 l23 -21 31 31 c40 40 33 57 -34 88 -41 19 -69 25 -123 24 -38 0 -81 -4
-95 -8z"/>
<path d="M894 14143 c9 -88 24 -165 34 -175 5 -5 132 -7 283 -6 l274 3 16 67
c9 36 18 89 21 117 l5 51 -320 0 -320 0 7 -57z"/>
<path d="M4060 14160 l0 -39 78 -3 77 -3 3 -242 2 -243 -80 0 -80 0 0 -45 0
-45 200 0 200 0 0 45 0 45 -75 0 -75 0 0 245 0 245 75 0 75 0 0 40 0 40 -200
0 -200 0 0 -40z"/>
<path d="M10328 14108 l-3 -73 -63 0 -62 0 0 -42 0 -43 65 0 65 0 0 -142 c0
-119 4 -150 19 -185 32 -69 119 -100 247 -87 l64 7 0 38 0 39 -79 0 c-147 0
-161 18 -161 205 l0 125 115 0 115 0 0 40 0 39 -112 3 -113 3 -3 73 -3 72 -44
0 -44 0 -3 -72z"/>
<path d="M11450 14105 l0 -75 -60 0 -60 0 0 -40 0 -40 60 0 60 0 0 -117 c1
-190 18 -239 96 -278 31 -16 58 -19 137 -18 54 0 101 3 104 7 3 3 2 21 -1 41
l-7 35 -79 0 c-89 0 -123 11 -139 47 -6 13 -11 80 -11 153 l0 130 110 0 110 0
0 40 0 40 -110 0 -110 0 0 75 0 75 -50 0 -50 0 0 -75z"/>
<path d="M4858 14024 c-18 -9 -33 -31 -45 -64 -20 -56 -33 -64 -33 -21 0 16
-3 43 -6 60 l-6 31 -84 0 -84 0 0 -40 0 -40 45 0 45 0 0 -166 0 -166 -42 2
c-68 3 -68 3 -68 -40 l0 -40 165 0 165 0 0 40 0 40 -60 0 -60 0 0 108 c1 150
26 212 94 231 52 13 85 -5 98 -55 12 -43 13 -44 55 -44 38 0 43 3 43 23 -1 52
-20 103 -50 130 -26 23 -39 27 -88 27 -31 -1 -69 -7 -84 -16z"/>
<path d="M5851 14021 c-79 -28 -113 -84 -96 -160 11 -52 59 -79 207 -116 81
-20 106 -43 90 -80 -18 -39 -54 -48 -184 -42 l-118 4 0 -42 0 -42 85 -7 c94
-7 211 6 255 29 17 9 36 29 45 45 17 33 20 112 5 141 -15 27 -73 54 -170 79
-105 27 -120 35 -120 65 0 46 40 60 166 60 l113 0 6 33 c3 18 3 37 0 42 -11
18 -224 11 -284 -9z"/>
<path d="M8105 14026 c-80 -36 -117 -111 -116 -239 0 -77 4 -99 26 -144 37
-74 92 -106 184 -106 138 0 211 85 211 247 0 121 -32 192 -105 233 -47 26
-150 31 -200 9z m145 -81 c35 -18 46 -37 61 -104 15 -70 -3 -155 -41 -193 -22
-21 -38 -28 -69 -28 -59 0 -98 38 -113 110 -32 156 55 271 162 215z"/>
<path d="M8657 14022 c-9 -10 -17 -26 -17 -36 0 -9 -4 -14 -10 -11 -5 3 -10
17 -10 31 0 21 -4 24 -40 24 l-40 0 0 -245 0 -245 45 0 45 0 0 198 c0 220 4
236 55 230 l30 -3 3 -212 2 -213 40 0 40 0 0 198 c0 220 4 236 55 230 l30 -3
3 -212 2 -213 50 0 50 0 0 203 c0 272 -8 297 -99 297 -42 0 -81 -28 -81 -58 0
-8 -10 0 -23 19 -19 29 -29 34 -68 37 -34 2 -49 -2 -62 -16z"/>
<path d="M9278 14023 c-15 -10 -33 -30 -39 -45 -16 -40 -29 -35 -29 12 l0 40
-45 0 -45 0 0 -350 0 -350 50 0 50 0 1 153 c0 144 1 150 16 121 48 -96 220
-91 282 9 27 45 44 148 36 221 -12 104 -47 165 -112 192 -45 19 -132 17 -165
-3z m128 -78 c36 -23 56 -81 56 -160 0 -104 -34 -160 -104 -172 -51 -8 -101
19 -123 67 -25 55 -18 197 11 237 36 49 106 61 160 28z"/>
<path d="M10845 14006 c-4 -20 -6 -39 -3 -41 2 -2 39 -7 83 -10 103 -8 151
-28 164 -68 20 -56 19 -57 -80 -57 -156 0 -229 -49 -229 -155 0 -104 82 -159
203 -136 52 9 107 52 107 82 0 10 5 21 10 24 6 3 10 -4 10 -18 0 -14 3 -39 6
-56 l7 -31 73 0 74 0 0 40 c0 38 -1 40 -32 40 -18 0 -38 4 -45 8 -8 5 -13 55
-15 152 -3 132 -5 148 -26 177 -35 49 -94 72 -205 80 l-96 6 -6 -37z m249
-289 c-2 -62 -58 -107 -136 -107 -64 0 -90 22 -86 73 4 59 44 78 148 75 l75
-3 -1 -38z"/>
<path d="M12605 14026 c-80 -37 -115 -109 -115 -239 0 -80 4 -100 26 -145 37
-74 94 -106 184 -106 141 2 210 86 210 258 0 99 -28 168 -86 212 -33 25 -47
29 -113 32 -49 1 -87 -3 -106 -12z m151 -85 c40 -25 59 -76 58 -161 -2 -107
-42 -160 -119 -160 -56 0 -91 37 -107 111 -33 158 61 275 168 210z"/>
<path d="M13060 13788 l0 -248 44 0 44 0 4 168 c5 188 14 222 69 241 50 17 85
13 116 -13 l28 -24 3 -186 4 -186 44 0 44 0 0 188 c0 213 -11 254 -72 292 -74
45 -199 16 -213 -49 -9 -42 -25 -29 -25 19 0 38 0 38 -45 42 l-45 3 0 -247z"/>
<path d="M13660 14024 c0 -10 -3 -29 -6 -41 -6 -20 -2 -21 73 -27 114 -10 150
-21 168 -56 8 -16 15 -38 15 -50 0 -19 -6 -20 -93 -20 -76 0 -101 -4 -137 -22
-83 -42 -114 -133 -70 -205 31 -51 64 -67 139 -67 84 0 126 21 150 75 22 48
31 41 31 -23 l0 -48 75 0 75 0 0 40 c0 36 -3 40 -24 40 -55 0 -56 3 -56 134
-1 220 -44 270 -244 283 -90 6 -96 5 -96 -13z m248 -301 c3 -25 -4 -40 -31
-69 -31 -34 -40 -38 -94 -42 -52 -4 -64 -1 -82 17 -28 28 -27 72 2 98 32 29
43 32 127 30 l75 -2 3 -32z"/>
<path d="M5210 13990 l0 -40 80 0 80 0 0 -165 0 -165 -95 0 -95 0 0 -40 0 -40
220 0 220 0 0 40 0 40 -75 0 -75 0 0 205 0 205 -130 0 -130 0 0 -40z"/>
<path d="M9680 13837 c0 -168 2 -197 19 -227 25 -47 73 -74 132 -74 63 0 96
19 122 69 11 22 22 33 23 25 2 -8 5 -32 9 -52 l6 -38 74 0 75 0 0 40 c0 33 -3
40 -19 40 -51 0 -51 -2 -51 211 l0 199 -45 0 -45 0 0 -147 c0 -166 -9 -213
-47 -243 -34 -26 -102 -27 -134 -1 -23 19 -24 24 -27 205 l-3 186 -45 0 -44 0
0 -193z"/>
<path d="M11960 13990 l0 -40 80 0 80 0 0 -165 0 -165 -95 0 -95 0 0 -40 0
-40 220 0 220 0 0 40 0 40 -75 0 -75 0 0 205 0 205 -130 0 -130 0 0 -40z"/>
<path d="M3630 13879 c-107 -43 -158 -162 -111 -264 30 -67 104 -115 176 -115
79 0 163 66 185 144 14 50 6 121 -12 110 -7 -4 -8 -3 -4 4 4 6 2 22 -5 34 -40
76 -151 118 -229 87z"/>
<path d="M1049 13658 c38 -73 98 -165 113 -175 7 -4 29 -8 48 -8 29 0 40 7 63
37 16 21 26 42 22 48 -4 6 -2 9 4 8 6 -2 30 30 52 70 l41 72 -186 0 -185 0 28
-52z"/>
<path d="M3230 13453 c-97 -65 -112 -78 -102 -88 4 -5 2 -5 -5 -1 -7 4 -42
-15 -80 -42 -37 -26 -82 -57 -100 -67 -18 -10 -30 -22 -27 -27 3 -4 -3 -8 -13
-8 -10 0 -157 -1 -326 -3 l-309 -2 -29 -70 c-16 -38 -33 -77 -38 -87 -7 -11
-6 -18 4 -22 8 -3 178 -5 378 -6 l363 0 105 70 c57 39 120 85 138 103 19 17
31 25 26 17 -8 -13 -6 -13 8 -1 9 7 14 17 11 22 -3 5 2 6 10 3 9 -3 16 -1 16
5 0 6 4 11 10 11 9 0 90 52 116 75 6 6 21 16 32 24 20 14 20 14 -6 35 -15 12
-30 20 -34 19 -4 -2 -5 4 -2 12 4 8 2 15 -3 15 -6 0 -18 16 -29 35 -10 19 -21
35 -24 35 -3 0 -43 -26 -90 -57z"/>
<path d="M4807 13122 c-22 -25 -21 -75 1 -95 41 -37 112 -6 112 48 0 55 -77
87 -113 47z"/>
<path d="M13807 13122 c-22 -25 -21 -75 1 -95 41 -37 112 -6 112 48 0 55 -77
87 -113 47z"/>
<path d="M5720 13090 l0 -40 69 0 70 0 3 -257 c3 -229 5 -262 22 -296 31 -62
97 -84 211 -68 37 5 68 11 70 13 1 2 0 19 -2 39 l-5 37 -77 -5 c-75 -5 -78 -5
-99 22 -21 27 -22 35 -22 311 l0 284 -120 0 -120 0 0 -40z"/>
<path d="M9989 12978 c-1 -136 -2 -150 -14 -123 -21 49 -50 68 -110 73 -70 6
-97 -2 -139 -39 -48 -42 -69 -104 -70 -203 -2 -154 43 -233 143 -255 86 -18
149 6 172 68 8 20 12 23 19 11 6 -8 10 -30 10 -47 0 -32 1 -33 45 -33 l45 0 0
350 0 350 -50 0 -50 0 -1 -152z m-51 -145 c35 -21 52 -73 52 -153 0 -112 -34
-168 -107 -176 -96 -12 -151 81 -132 220 4 31 17 69 29 86 34 48 102 58 158
23z"/>
<path d="M10946 13085 c-132 -47 -200 -200 -175 -399 22 -178 111 -259 284
-259 44 0 104 5 133 12 l52 13 0 154 0 154 -110 0 -110 0 0 -40 0 -39 63 -3
62 -3 3 -81 3 -81 -42 -7 c-152 -24 -249 76 -249 257 0 126 33 196 110 235 73
36 143 29 198 -22 l24 -21 30 34 30 33 -22 24 c-48 50 -196 70 -284 39z"/>
<path d="M4060 12759 l0 -331 163 4 c172 4 199 11 243 60 71 78 50 214 -40
257 -23 12 -53 21 -67 22 -13 0 -33 4 -44 8 -16 6 -12 9 20 15 48 9 100 42
114 74 6 13 11 42 11 66 0 56 -32 105 -90 134 -39 19 -59 22 -177 22 l-133 0
0 -331z m255 237 c54 -23 69 -70 40 -126 -18 -35 -63 -50 -147 -50 l-58 0 0
95 0 95 65 0 c36 0 81 -6 100 -14z m63 -289 c37 -35 46 -77 28 -122 -21 -50
-59 -65 -166 -65 l-90 0 0 111 0 111 99 -4 c94 -3 102 -5 129 -31z"/>
<path d="M4654 12921 c-2 -2 -4 -22 -4 -43 l0 -38 80 0 80 0 -2 -162 -3 -163
-93 0 -92 0 0 -42 0 -43 220 0 220 0 0 43 0 42 -77 0 -78 0 -3 202 -2 202
-121 3 c-66 2 -123 1 -125 -1z"/>
<path d="M5284 12910 c-52 -26 -80 -65 -99 -137 -57 -219 64 -383 254 -342
100 21 150 92 159 224 7 125 -31 216 -108 255 -53 27 -150 27 -206 0z m161
-82 c38 -30 55 -76 55 -154 0 -72 -19 -125 -54 -149 -27 -20 -91 -19 -121 1
-48 31 -70 146 -45 236 22 77 107 112 165 66z"/>
<path d="M6405 12907 c-72 -41 -105 -112 -105 -231 0 -93 17 -142 65 -192 31
-32 52 -44 93 -53 107 -22 189 12 234 98 25 48 28 63 28 150 0 107 -16 156
-66 203 -40 37 -75 48 -147 48 -46 0 -73 -6 -102 -23z m175 -85 c71 -71 60
-266 -16 -301 -124 -56 -208 86 -153 257 23 70 118 95 169 44z"/>
<path d="M6940 12910 c-24 -12 -46 -37 -65 -72 -28 -49 -30 -60 -30 -158 0
-94 3 -111 26 -155 30 -59 72 -90 131 -99 74 -11 158 30 158 76 0 10 5 18 11
18 8 0 10 -21 7 -68 -8 -113 -51 -152 -165 -152 -32 0 -75 -3 -95 -6 -37 -6
-38 -8 -38 -47 l0 -40 108 6 c163 9 218 35 258 121 23 50 24 58 24 319 l0 267
-40 0 c-28 0 -40 -4 -41 -15 -1 -8 -3 -19 -4 -25 -1 -5 -3 -18 -4 -27 -1 -13
-6 -9 -20 13 -11 18 -30 39 -42 48 -33 23 -133 21 -179 -4z m207 -96 c50 -63
44 -231 -11 -283 -50 -47 -143 -33 -178 27 -40 67 -28 222 21 266 46 41 131
36 168 -10z"/>
<path d="M7774 12915 c-2 -5 -28 -98 -59 -205 -31 -107 -60 -198 -64 -202 -3
-4 -42 87 -86 202 l-80 210 -47 0 c-27 0 -48 -2 -48 -5 0 -5 152 -390 177
-447 12 -29 22 -38 40 -38 23 0 23 -1 9 -29 -31 -59 -86 -90 -188 -106 -37 -6
-38 -7 -38 -46 l0 -41 63 7 c132 14 210 78 260 212 25 66 157 476 157 486 0
10 -93 12 -96 2z"/>
<path d="M8595 12896 c-4 -20 -6 -39 -4 -41 2 -2 48 -8 103 -13 110 -11 140
-28 152 -89 l7 -33 -92 0 c-152 0 -219 -42 -229 -143 -11 -110 74 -172 202
-148 51 9 106 52 106 82 0 10 5 21 10 24 6 4 10 -7 10 -27 0 -74 5 -78 86 -78
l74 0 0 40 c0 38 -1 40 -32 40 -18 0 -38 4 -45 8 -8 5 -13 55 -15 152 -3 132
-5 148 -26 177 -35 50 -97 74 -206 80 l-95 6 -6 -37z m249 -289 c-2 -59 -46
-99 -118 -105 -79 -6 -108 14 -104 71 4 59 44 78 148 75 l75 -3 -1 -38z"/>
<path d="M9278 12915 c-15 -9 -31 -30 -38 -51 -14 -42 -30 -30 -30 24 0 31 -1
32 -45 32 l-45 0 0 -245 0 -245 49 0 50 0 3 180 c3 179 3 180 29 206 18 18 41
28 72 31 41 5 49 2 77 -25 l30 -30 0 -181 0 -181 45 0 45 0 0 193 c0 216 -7
243 -69 284 -40 27 -130 31 -173 8z"/>
<path d="M11470 12908 c-26 -14 -57 -41 -74 -66 -27 -38 -31 -52 -34 -136 -5
-109 6 -152 52 -204 51 -58 104 -76 225 -75 57 1 107 5 111 10 4 4 5 25 3 46
-5 32 -8 37 -26 31 -41 -13 -161 -8 -193 9 -39 20 -84 72 -84 98 0 18 9 19
166 19 l167 0 -5 84 c-5 103 -34 156 -101 187 -60 27 -150 25 -207 -3z m169
-73 c30 -15 61 -68 61 -104 0 -20 -5 -21 -130 -21 -78 0 -130 4 -130 10 0 31
37 94 64 111 37 23 96 25 135 4z"/>
<path d="M11940 12678 l0 -248 45 0 45 0 0 160 c0 116 4 170 14 195 27 64 120
86 170 40 l26 -24 0 -186 0 -185 51 0 51 0 -4 193 c-4 209 -12 243 -65 281
-28 21 -114 33 -157 22 -31 -8 -66 -44 -66 -68 0 -34 -18 -18 -25 21 -6 37 -9
39 -46 43 l-39 4 0 -248z"/>
<path d="M12605 12914 c-86 -44 -114 -103 -115 -235 0 -82 4 -102 25 -145 40
-80 121 -120 215 -108 54 8 76 18 113 53 45 41 59 79 65 171 7 134 -25 213
-103 257 -49 28 -153 32 -200 7z m146 -80 c80 -41 88 -244 13 -303 -52 -41
-131 -22 -161 38 -26 53 -25 175 3 221 34 58 87 74 145 44z"/>
<path d="M13157 12912 c-10 -10 -17 -26 -17 -36 0 -9 -4 -14 -10 -11 -5 3 -10
17 -10 31 0 21 -4 24 -40 24 l-40 0 0 -245 0 -245 45 0 45 0 0 198 c0 220 4
236 55 230 l30 -3 3 -212 2 -213 40 0 40 0 0 198 c0 220 4 236 55 230 l30 -3
3 -212 2 -213 50 0 50 0 0 199 c0 109 -3 212 -6 229 -10 48 -38 72 -87 72 -50
0 -61 -6 -81 -45 -14 -26 -16 -27 -22 -9 -14 39 -36 54 -79 54 -28 0 -47 -6
-58 -18z"/>
<path d="M14303 12911 c-52 -24 -98 -72 -115 -120 -7 -20 -13 -70 -13 -111 0
-89 15 -137 57 -180 54 -57 108 -74 232 -73 60 1 113 6 118 11 5 5 7 25 3 43
l-6 34 -97 -3 c-107 -3 -148 10 -187 62 -29 39 -33 158 -7 205 46 84 170 95
236 22 l19 -20 37 27 38 27 -21 29 c-11 15 -38 37 -61 47 -56 26 -176 25 -233
0z"/>
<path d="M14865 12916 c-88 -28 -126 -81 -111 -159 10 -56 44 -77 179 -113 50
-14 97 -30 104 -36 8 -6 13 -25 11 -42 -5 -49 -34 -58 -176 -53 l-123 4 3 -41
3 -41 75 -8 c95 -10 221 6 265 33 79 49 76 179 -5 220 -20 10 -74 28 -120 40
-105 27 -120 35 -120 65 0 46 40 60 167 60 l113 0 6 32 c3 17 3 36 -1 42 -9
15 -220 13 -270 -3z"/>
<path d="M13650 12880 l0 -40 80 0 80 0 -2 -162 -3 -163 -93 0 -92 0 0 -42 0
-43 220 0 220 0 0 43 0 42 -77 0 -78 0 -3 203 -2 202 -125 0 -125 0 0 -40z"/>
<path d="M3614 12825 c-12 -8 -25 -11 -29 -7 -5 4 -5 -1 -2 -11 4 -11 3 -16
-4 -11 -22 13 -67 -57 -75 -120 -16 -116 70 -215 186 -216 62 0 87 11 74 31
-6 11 -4 11 10 0 16 -13 21 -11 52 22 19 20 41 55 49 78 17 48 20 103 5 94 -5
-3 -7 0 -4 9 12 32 -71 136 -97 121 -7 -5 -10 -4 -6 2 16 25 -126 32 -159 8z"/>
<path d="M1990 12723 c-8 -9 -25 -30 -37 -47 -23 -30 -23 -30 -3 -48 11 -11
27 -30 36 -44 l16 -24 640 2 641 3 1 88 1 87 -640 0 c-582 -1 -641 -2 -655
-17z"/>
<path d="M607 12508 c-181 -225 -337 -539 -412 -830 -60 -237 -69 -324 -70
-696 l0 -333 37 -35 38 -34 171 0 171 0 38 38 38 37 5 330 c5 348 14 429 66
609 63 214 169 422 299 589 l46 58 -26 23 c-15 12 -55 42 -89 67 -73 52 -253
199 -257 211 -7 16 -21 7 -55 -34z"/>
<path d="M2199 12253 c11 -37 73 -163 80 -163 3 0 146 -1 318 -3 294 -2 313
-3 326 -21 9 -12 19 -16 27 -11 8 5 11 4 7 -2 -3 -5 33 -36 80 -69 47 -32 111
-78 142 -100 31 -23 77 -53 102 -67 l46 -26 11 24 c7 14 30 45 53 70 l41 44
-28 26 c-15 14 -30 25 -35 25 -4 0 -21 12 -38 26 -18 15 -36 22 -43 18 -7 -4
-10 -4 -6 0 10 12 -222 179 -249 179 -6 0 -11 3 -10 6 1 3 -2 7 -7 8 -5 0 -13
9 -19 18 -23 41 -59 45 -441 45 l-365 0 8 -27z"/>
<path d="M7620 12000 c-41 -41 -10 -110 48 -110 36 0 62 28 62 67 0 57 -69 84
-110 43z"/>
<path d="M4153 11960 c-99 -45 -124 -185 -47 -270 23 -25 70 -55 137 -88 114
-54 125 -65 134 -116 15 -92 -126 -132 -270 -77 -45 17 -55 14 -59 -24 -2 -19
-2 -39 1 -44 21 -33 255 -46 321 -18 61 27 93 69 98 131 2 30 2 66 -2 80 -12
50 -67 96 -178 152 -89 45 -112 61 -122 86 -17 39 -6 85 26 112 34 27 123 19
178 -18 l43 -28 31 32 31 31 -30 25 c-66 53 -212 71 -292 34z"/>
<path d="M9565 11961 c-44 -11 -94 -39 -129 -73 l-31 -29 37 -34 38 -35 44 32
c58 41 138 49 176 19 22 -17 25 -28 24 -78 -1 -108 -69 -202 -212 -293 l-71
-45 -1 -63 0 -62 218 2 217 3 0 50 0 50 -122 3 c-72 1 -123 7 -123 12 0 6 10
18 22 28 59 47 118 106 118 118 0 8 4 14 9 14 19 0 64 115 69 175 5 66 -17
133 -57 169 -43 39 -146 56 -226 37z"/>
<path d="M10133 11959 c-43 -13 -110 -91 -128 -151 -21 -73 -29 -203 -15 -278
25 -139 80 -211 176 -229 107 -20 195 22 240 116 24 51 28 72 32 182 4 123 -9
231 -29 231 -5 0 -8 3 -8 8 6 34 -39 86 -95 111 -45 20 -124 25 -173 10z m132
-117 c40 -36 49 -64 53 -182 7 -180 -22 -250 -103 -250 -26 0 -51 7 -64 18
-33 28 -55 131 -48 237 6 99 25 155 59 179 30 21 78 20 103 -2z"/>
<path d="M10177 11693 c-26 -29 -27 -102 -1 -127 38 -38 94 -1 94 63 0 69 -55
106 -93 64z"/>
<path d="M10685 11961 c-56 -14 -145 -74 -145 -98 0 -5 13 -23 29 -41 l30 -32
50 32 c68 42 135 49 175 17 27 -21 28 -25 24 -88 -3 -37 -13 -82 -23 -101 -26
-51 -131 -150 -203 -190 l-61 -35 -1 -62 0 -63 220 0 220 0 0 56 0 55 -77 -1
c-132 -2 -173 0 -173 9 0 4 24 27 54 51 54 43 110 110 139 166 42 82 39 209
-8 270 -41 53 -154 78 -250 55z"/>
<path d="M11223 11952 c-44 -16 -123 -75 -123 -92 0 -3 14 -20 31 -38 29 -31
32 -32 53 -17 120 89 233 66 230 -45 -4 -105 -81 -208 -226 -299 l-68 -43 0
-59 0 -59 225 0 225 0 0 55 0 56 -126 -2 c-69 0 -127 1 -130 4 -7 7 7 37 16
32 4 -3 38 25 76 62 161 161 177 366 35 443 -41 22 -160 23 -218 2z"/>
<path d="M1149 11938 c-6 -12 -20 -31 -31 -42 -10 -11 -16 -26 -13 -34 2 -7 0
-10 -5 -7 -7 4 -46 -59 -78 -127 -2 -4 80 -6 182 -6 102 0 186 3 186 5 0 10
-62 120 -98 173 -35 52 -39 55 -84 58 -40 2 -49 -1 -59 -20z"/>
<path d="M4580 11795 c0 -6 42 -116 94 -245 86 -218 95 -235 120 -240 l28 -5
-32 -43 c-32 -45 -95 -81 -140 -82 -58 -1 -70 -10 -70 -52 l0 -40 63 7 c75 9
146 37 180 73 52 55 84 140 223 590 l13 42 -48 0 -48 0 -58 -202 c-32 -112
-61 -207 -65 -211 -4 -5 -19 22 -33 60 -14 37 -49 129 -77 203 -28 74 -55 138
-59 142 -12 13 -91 15 -91 3z"/>
<path d="M5165 11801 c-3 -2 -5 -114 -5 -248 l0 -243 45 0 45 0 0 188 c0 201
7 234 48 240 49 7 52 -5 52 -224 l0 -204 34 0 34 0 4 198 c3 211 8 232 52 232
43 0 46 -13 46 -227 l0 -203 45 0 45 0 0 225 0 226 -25 24 c-18 19 -35 25 -68
25 -45 0 -66 -14 -81 -55 -7 -18 -9 -17 -21 11 -14 34 -31 44 -78 44 -39 0
-50 -7 -69 -44 l-15 -29 -6 31 c-5 25 -11 30 -42 34 -20 2 -38 2 -40 -1z"/>
<path d="M5903 11791 c-18 -11 -35 -32 -39 -46 -9 -37 -22 -31 -26 13 -3 36
-4 37 -45 40 l-43 3 0 -350 0 -351 45 0 45 0 0 150 c0 83 4 150 8 150 4 0 13
-13 19 -29 16 -44 55 -64 121 -64 90 0 150 42 178 126 24 72 16 216 -15 279
-32 68 -71 92 -151 96 -52 2 -72 -1 -97 -17z m119 -73 c42 -16 63 -70 63 -163
-1 -94 -19 -138 -69 -162 -43 -20 -99 -11 -131 21 -61 61 -60 228 1 289 37 37
70 41 136 15z"/>
<path d="M6405 11787 c-72 -41 -105 -112 -105 -231 0 -93 17 -142 65 -192 31
-32 52 -44 93 -53 107 -22 189 12 234 98 25 48 28 63 28 150 0 107 -16 156
-66 203 -40 37 -75 48 -147 48 -46 0 -73 -6 -102 -23z m175 -85 c71 -71 60
-266 -16 -301 -124 -56 -208 86 -153 257 23 70 118 95 169 44z"/>
<path d="M6978 11794 c-53 -16 -97 -62 -99 -102 -5 -108 18 -128 193 -172 45
-12 89 -26 96 -32 19 -16 14 -53 -9 -74 -19 -17 -37 -19 -149 -19 l-129 0 -6
-34 c-4 -19 -2 -38 4 -44 7 -7 61 -11 139 -11 107 0 134 3 174 21 55 25 79 58
85 116 8 83 -38 123 -179 157 -109 26 -137 46 -120 84 15 35 73 48 188 44 l94
-3 0 43 0 42 -117 -1 c-72 0 -136 -6 -165 -15z"/>
<path d="M7464 11801 c-2 -2 -4 -22 -4 -43 l0 -38 80 0 80 0 -2 -162 -3 -163
-93 0 -92 0 0 -42 0 -43 220 0 220 0 0 40 0 39 -72 3 -73 3 -3 202 -2 202
-126 3 c-69 2 -128 1 -130 -1z"/>
<path d="M8333 11802 l-41 -3 -4 -172 c-3 -183 -9 -205 -55 -226 -32 -15 -94
-13 -114 2 -34 26 -39 54 -39 226 l0 171 -45 0 -45 0 0 -185 c0 -210 8 -245
65 -284 26 -17 50 -24 89 -25 64 0 96 18 120 69 10 20 19 35 21 33 4 -4 13
-54 14 -80 1 -16 12 -18 76 -18 l75 0 0 40 c0 35 -3 40 -22 40 -46 0 -47 6
-50 215 l-3 200 -42 -3z"/>
<path d="M8657 11792 c-9 -10 -17 -26 -17 -36 0 -9 -4 -14 -10 -11 -5 3 -10
17 -10 31 0 21 -4 24 -40 24 l-40 0 0 -245 0 -245 45 0 45 0 0 198 c0 220 4
236 55 230 l30 -3 3 -212 2 -213 40 0 40 0 0 198 c0 220 4 236 55 230 l30 -3
3 -212 2 -213 50 0 50 0 0 203 c0 272 -8 297 -99 297 -42 0 -81 -28 -81 -58 0
-8 -10 0 -23 19 -19 29 -29 34 -68 37 -34 2 -49 -2 -62 -16z"/>
<path d="M3625 11788 c-40 -14 -56 -28 -48 -41 3 -6 1 -7 -5 -3 -6 3 -23 -10
-38 -30 -24 -30 -28 -45 -28 -104 -1 -61 2 -73 30 -111 54 -76 146 -106 219
-72 58 27 85 46 85 60 0 7 5 13 11 13 6 0 8 7 5 16 -3 8 -2 12 4 9 9 -5 12 8
9 31 0 4 5 10 12 15 20 12 -4 113 -37 156 -47 62 -141 88 -219 61z"/>
<path d="M921 11447 c-9 -29 -23 -101 -34 -179 l-4 -28 323 0 323 0 -5 38
c-11 82 -37 187 -48 194 -6 4 -131 7 -278 7 l-267 0 -10 -32z"/>
<path d="M877 10983 c-3 -5 -4 -59 -3 -120 l1 -113 333 0 332 0 0 120 0 120
-329 0 c-182 0 -332 -3 -334 -7z"/>
<path d="M213 9933 c-34 -7 -81 -59 -89 -99 -13 -68 3 -642 20 -754 61 -385
201 -721 430 -1030 102 -138 315 -347 481 -470 289 -217 460 -416 590 -685
138 -286 175 -484 175 -930 0 -372 -5 -365 258 -365 146 0 161 2 186 21 54 42
56 55 56 351 0 163 -6 326 -14 403 -64 594 -363 1141 -823 1504 -67 53 -149
116 -183 141 -34 25 -106 88 -159 141 -265 261 -433 585 -497 957 -12 70 -19
186 -23 417 -5 288 -8 324 -24 349 -31 46 -71 56 -224 55 -76 -1 -148 -4 -160
-6z"/>
<path d="M1891 9922 c-67 -36 -71 -54 -71 -357 0 -361 -17 -494 -92 -720 -62
-188 -155 -358 -294 -541 l-25 -32 121 -92 c66 -50 153 -120 194 -155 l73 -64
35 43 c115 137 270 410 340 596 116 309 148 521 148 975 0 293 -4 315 -70 347
-52 27 -310 26 -359 0z"/>
<path d="M912 9703 l-43 -4 2 -96 c1 -53 4 -104 6 -114 5 -18 22 -19 334 -19
l329 0 0 114 0 113 -37 7 c-40 6 -517 5 -591 -1z"/>
<path d="M5370 9250 c-41 -41 -10 -110 48 -110 54 0 80 60 46 108 -19 28 -67
29 -94 2z"/>
<path d="M12120 9250 c-41 -41 -10 -110 48 -110 36 0 62 28 62 67 0 57 -69 84
-110 43z"/>
<path d="M6310 8911 l0 -351 44 0 44 0 4 168 c4 179 14 219 60 243 40 21 97
15 126 -15 l27 -26 3 -185 3 -185 45 0 44 0 0 188 c0 163 -3 192 -20 229 -28
63 -69 85 -152 81 -75 -4 -103 -21 -113 -69 -15 -67 -26 -10 -24 124 l1 142
-46 3 -46 3 0 -350z"/>
<path d="M14150 9220 l0 -40 74 0 75 0 3 -262 c3 -229 5 -267 21 -295 26 -49
69 -68 153 -67 111 1 124 7 124 53 l0 39 -73 -5 c-88 -7 -112 4 -127 55 -5 21
-10 149 -10 300 l0 262 -120 0 -120 0 0 -40z"/>
<path d="M7600 9221 c-78 -24 -131 -72 -169 -151 -24 -50 -26 -66 -26 -180 0
-109 3 -132 23 -176 48 -107 133 -156 271 -157 47 0 106 5 129 12 44 12 44 13
37 49 -4 20 -8 38 -8 39 -1 1 -27 -5 -57 -13 -69 -18 -94 -18 -157 1 -59 18
-113 70 -134 131 -18 50 -18 188 0 237 28 83 101 137 181 137 45 0 73 -11 108
-43 l23 -21 31 31 c40 40 33 57 -34 88 -41 19 -69 25 -123 24 -38 0 -81 -4
-95 -8z"/>
<path d="M894 9163 c9 -88 24 -165 34 -175 5 -5 132 -7 283 -6 l274 3 16 67
c9 36 18 89 21 117 l5 51 -320 0 -320 0 7 -57z"/>
<path d="M4060 9180 l0 -39 78 -3 77 -3 3 -242 2 -243 -80 0 -80 0 0 -45 0
-45 200 0 200 0 0 45 0 45 -75 0 -75 0 0 245 0 245 75 0 75 0 0 40 0 40 -200
0 -200 0 0 -40z"/>
<path d="M10328 9128 l-3 -73 -63 0 -62 0 0 -42 0 -43 65 0 65 0 0 -142 c0
-119 4 -150 19 -185 32 -69 119 -100 247 -87 l64 7 0 38 0 39 -79 0 c-147 0
-161 18 -161 205 l0 125 115 0 115 0 0 40 0 39 -112 3 -113 3 -3 73 -3 72 -44
0 -44 0 -3 -72z"/>
<path d="M11450 9125 l0 -75 -60 0 -60 0 0 -40 0 -40 60 0 60 0 0 -117 c1
-190 18 -239 96 -278 31 -16 58 -19 137 -18 54 0 101 3 104 7 3 3 2 21 -1 41
l-7 35 -79 0 c-89 0 -123 11 -139 47 -6 13 -11 80 -11 153 l0 130 110 0 110 0
0 40 0 40 -110 0 -110 0 0 75 0 75 -50 0 -50 0 0 -75z"/>
<path d="M4858 9044 c-18 -9 -33 -31 -45 -64 -20 -56 -33 -64 -33 -21 0 16 -3
43 -6 60 l-6 31 -84 0 -84 0 0 -40 0 -40 45 0 45 0 0 -166 0 -166 -42 2 c-68
3 -68 3 -68 -40 l0 -40 165 0 165 0 0 40 0 40 -60 0 -60 0 0 108 c1 150 26
212 94 231 52 13 85 -5 98 -55 12 -43 13 -44 55 -44 38 0 43 3 43 23 -1 52
-20 103 -50 130 -26 23 -39 27 -88 27 -31 -1 -69 -7 -84 -16z"/>
<path d="M5851 9041 c-79 -28 -113 -84 -96 -160 11 -52 59 -79 207 -116 81
-20 106 -43 90 -80 -18 -39 -54 -48 -184 -42 l-118 4 0 -42 0 -42 85 -7 c94
-7 211 6 255 29 17 9 36 29 45 45 17 33 20 112 5 141 -15 27 -73 54 -170 79
-105 27 -120 35 -120 65 0 46 40 60 166 60 l113 0 6 33 c3 18 3 37 0 42 -11
18 -224 11 -284 -9z"/>
<path d="M8105 9046 c-80 -36 -117 -111 -116 -239 0 -77 4 -99 26 -144 37 -74
92 -106 184 -106 138 0 211 85 211 247 0 121 -32 192 -105 233 -47 26 -150 31
-200 9z m145 -81 c35 -18 46 -37 61 -104 15 -70 -3 -155 -41 -193 -22 -21 -38
-28 -69 -28 -59 0 -98 38 -113 110 -32 156 55 271 162 215z"/>
<path d="M8657 9042 c-9 -10 -17 -26 -17 -36 0 -9 -4 -14 -10 -11 -5 3 -10 17
-10 31 0 21 -4 24 -40 24 l-40 0 0 -245 0 -245 45 0 45 0 0 198 c0 220 4 236
55 230 l30 -3 3 -212 2 -213 40 0 40 0 0 198 c0 220 4 236 55 230 l30 -3 3
-212 2 -213 50 0 50 0 0 203 c0 272 -8 297 -99 297 -42 0 -81 -28 -81 -58 0
-8 -10 0 -23 19 -19 29 -29 34 -68 37 -34 2 -49 -2 -62 -16z"/>
<path d="M9278 9043 c-15 -10 -33 -30 -39 -45 -16 -40 -29 -35 -29 12 l0 40
-45 0 -45 0 0 -350 0 -350 50 0 50 0 1 153 c0 144 1 150 16 121 48 -96 220
-91 282 9 27 45 44 148 36 221 -12 104 -47 165 -112 192 -45 19 -132 17 -165
-3z m128 -78 c36 -23 56 -81 56 -160 0 -104 -34 -160 -104 -172 -51 -8 -101
19 -123 67 -25 55 -18 197 11 237 36 49 106 61 160 28z"/>
<path d="M10845 9026 c-4 -20 -6 -39 -3 -41 2 -2 39 -7 83 -10 103 -8 151 -28
164 -68 20 -56 19 -57 -80 -57 -156 0 -229 -49 -229 -155 0 -104 82 -159 203
-136 52 9 107 52 107 82 0 10 5 21 10 24 6 3 10 -4 10 -18 0 -14 3 -39 6 -56
l7 -31 73 0 74 0 0 40 c0 38 -1 40 -32 40 -18 0 -38 4 -45 8 -8 5 -13 55 -15
152 -3 132 -5 148 -26 177 -35 49 -94 72 -205 80 l-96 6 -6 -37z m249 -289
c-2 -62 -58 -107 -136 -107 -64 0 -90 22 -86 73 4 59 44 78 148 75 l75 -3 -1
-38z"/>
<path d="M12605 9046 c-80 -37 -115 -109 -115 -239 0 -80 4 -100 26 -145 37
-74 94 -106 184 -106 141 2 210 86 210 258 0 99 -28 168 -86 212 -33 25 -47
29 -113 32 -49 1 -87 -3 -106 -12z m151 -85 c40 -25 59 -76 58 -161 -2 -107
-42 -160 -119 -160 -56 0 -91 37 -107 111 -33 158 61 275 168 210z"/>
<path d="M13060 8808 l0 -248 44 0 44 0 4 168 c5 188 14 222 69 241 50 17 85
13 116 -13 l28 -24 3 -186 4 -186 44 0 44 0 0 188 c0 213 -11 254 -72 292 -74
45 -199 16 -213 -49 -9 -42 -25 -29 -25 19 0 38 0 38 -45 42 l-45 3 0 -247z"/>
<path d="M13660 9044 c0 -10 -3 -29 -6 -41 -6 -20 -2 -21 73 -27 114 -10 150
-21 168 -56 8 -16 15 -38 15 -50 0 -19 -6 -20 -93 -20 -76 0 -101 -4 -137 -22
-83 -42 -114 -133 -70 -205 31 -51 64 -67 139 -67 84 0 126 21 150 75 22 48
31 41 31 -23 l0 -48 75 0 75 0 0 40 c0 36 -3 40 -24 40 -55 0 -56 3 -56 134
-1 220 -44 270 -244 283 -90 6 -96 5 -96 -13z m248 -301 c3 -25 -4 -40 -31
-69 -31 -34 -40 -38 -94 -42 -52 -4 -64 -1 -82 17 -28 28 -27 72 2 98 32 29
43 32 127 30 l75 -2 3 -32z"/>
<path d="M5210 9010 l0 -40 80 0 80 0 0 -165 0 -165 -95 0 -95 0 0 -40 0 -40
220 0 220 0 0 40 0 40 -75 0 -75 0 0 205 0 205 -130 0 -130 0 0 -40z"/>
<path d="M9680 8857 c0 -168 2 -197 19 -227 25 -47 73 -74 132 -74 63 0 96 19
122 69 11 22 22 33 23 25 2 -8 5 -32 9 -52 l6 -38 74 0 75 0 0 40 c0 33 -3 40
-19 40 -51 0 -51 -2 -51 211 l0 199 -45 0 -45 0 0 -147 c0 -166 -9 -213 -47
-243 -34 -26 -102 -27 -134 -1 -23 19 -24 24 -27 205 l-3 186 -45 0 -44 0 0
-193z"/>
<path d="M11960 9010 l0 -40 80 0 80 0 0 -165 0 -165 -95 0 -95 0 0 -40 0 -40
220 0 220 0 0 40 0 40 -75 0 -75 0 0 205 0 205 -130 0 -130 0 0 -40z"/>
<path d="M3630 8899 c-107 -43 -158 -162 -111 -264 30 -67 104 -115 176 -115
79 0 163 66 185 144 14 50 6 121 -12 110 -7 -4 -8 -3 -4 4 4 6 2 22 -5 34 -40
76 -151 118 -229 87z"/>
<path d="M1049 8678 c38 -73 98 -165 113 -175 7 -4 29 -8 48 -8 29 0 40 7 63
37 16 21 26 42 22 48 -4 6 -2 9 4 8 6 -2 30 30 52 70 l41 72 -186 0 -185 0 28
-52z"/>
<path d="M3230 8473 c-97 -65 -112 -78 -102 -88 4 -5 2 -5 -5 -1 -7 4 -42 -15
-80 -42 -37 -26 -82 -57 -100 -67 -18 -10 -30 -22 -27 -27 3 -4 -3 -8 -13 -8
-10 0 -157 -1 -326 -3 l-309 -2 -29 -70 c-16 -38 -33 -77 -38 -87 -7 -11 -6
-18 4 -22 8 -3 178 -5 378 -6 l363 0 105 70 c57 39 120 85 138 103 19 17 31
25 26 17 -8 -13 -6 -13 8 -1 9 7 14 17 11 22 -3 5 2 6 10 3 9 -3 16 -1 16 5 0
6 4 11 10 11 9 0 90 52 116 75 6 6 21 16 32 24 20 14 20 14 -6 35 -15 12 -30
20 -34 19 -4 -2 -5 4 -2 12 4 8 2 15 -3 15 -6 0 -18 16 -29 35 -10 19 -21 35
-24 35 -3 0 -43 -26 -90 -57z"/>
<path d="M4807 8142 c-22 -25 -21 -75 1 -95 41 -37 112 -6 112 48 0 55 -77 87
-113 47z"/>
<path d="M13807 8142 c-22 -25 -21 -75 1 -95 41 -37 112 -6 112 48 0 55 -77
87 -113 47z"/>
<path d="M5720 8110 l0 -40 69 0 70 0 3 -257 c3 -229 5 -262 22 -296 31 -62
97 -84 211 -68 37 5 68 11 70 13 1 2 0 19 -2 39 l-5 37 -77 -5 c-75 -5 -78 -5
-99 22 -21 27 -22 35 -22 311 l0 284 -120 0 -120 0 0 -40z"/>
<path d="M9989 7998 c-1 -136 -2 -150 -14 -123 -21 49 -50 68 -110 73 -70 6
-97 -2 -139 -39 -48 -42 -69 -104 -70 -203 -2 -154 43 -233 143 -255 86 -18
149 6 172 68 8 20 12 23 19 11 6 -8 10 -30 10 -47 0 -32 1 -33 45 -33 l45 0 0
350 0 350 -50 0 -50 0 -1 -152z m-51 -145 c35 -21 52 -73 52 -153 0 -112 -34
-168 -107 -176 -96 -12 -151 81 -132 220 4 31 17 69 29 86 34 48 102 58 158
23z"/>
<path d="M10946 8105 c-132 -47 -200 -200 -175 -399 22 -178 111 -259 284
-259 44 0 104 5 133 12 l52 13 0 154 0 154 -110 0 -110 0 0 -40 0 -39 63 -3
62 -3 3 -81 3 -81 -42 -7 c-152 -24 -249 76 -249 257 0 126 33 196 110 235 73
36 143 29 198 -22 l24 -21 30 34 30 33 -22 24 c-48 50 -196 70 -284 39z"/>
<path d="M4060 7779 l0 -331 163 4 c172 4 199 11 243 60 71 78 50 214 -40 257
-23 12 -53 21 -67 22 -13 0 -33 4 -44 8 -16 6 -12 9 20 15 48 9 100 42 114 74
6 13 11 42 11 66 0 56 -32 105 -90 134 -39 19 -59 22 -177 22 l-133 0 0 -331z
m255 237 c54 -23 69 -70 40 -126 -18 -35 -63 -50 -147 -50 l-58 0 0 95 0 95
65 0 c36 0 81 -6 100 -14z m63 -289 c37 -35 46 -77 28 -122 -21 -50 -59 -65
-166 -65 l-90 0 0 111 0 111 99 -4 c94 -3 102 -5 129 -31z"/>
<path d="M4654 7941 c-2 -2 -4 -22 -4 -43 l0 -38 80 0 80 0 -2 -162 -3 -163
-93 0 -92 0 0 -42 0 -43 220 0 220 0 0 43 0 42 -77 0 -78 0 -3 202 -2 202
-121 3 c-66 2 -123 1 -125 -1z"/>
<path d="M5284 7930 c-52 -26 -80 -65 -99 -137 -57 -219 64 -383 254 -342 100
21 150 92 159 224 7 125 -31 216 -108 255 -53 27 -150 27 -206 0z m161 -82
c38 -30 55 -76 55 -154 0 -72 -19 -125 -54 -149 -27 -20 -91 -19 -121 1 -48
31 -70 146 -45 236 22 77 107 112 165 66z"/>
<path d="M6405 7927 c-72 -41 -105 -112 -105 -231 0 -93 17 -142 65 -192 31
-32 52 -44 93 -53 107 -22 189 12 234 98 25 48 28 63 28 150 0 107 -16 156
-66 203 -40 37 -75 48 -147 48 -46 0 -73 -6 -102 -23z m175 -85 c71 -71 60
-266 -16 -301 -124 -56 -208 86 -153 257 23 70 118 95 169 44z"/>
<path d="M6940 7930 c-24 -12 -46 -37 -65 -72 -28 -49 -30 -60 -30 -158 0 -94
3 -111 26 -155 30 -59 72 -90 131 -99 74 -11 158 30 158 76 0 10 5 18 11 18 8
0 10 -21 7 -68 -8 -113 -51 -152 -165 -152 -32 0 -75 -3 -95 -6 -37 -6 -38 -8
-38 -47 l0 -40 108 6 c163 9 218 35 258 121 23 50 24 58 24 319 l0 267 -40 0
c-28 0 -40 -4 -41 -15 -1 -8 -3 -19 -4 -25 -1 -5 -3 -18 -4 -27 -1 -13 -6 -9
-20 13 -11 18 -30 39 -42 48 -33 23 -133 21 -179 -4z m207 -96 c50 -63 44
-231 -11 -283 -50 -47 -143 -33 -178 27 -40 67 -28 222 21 266 46 41 131 36
168 -10z"/>
<path d="M7774 7935 c-2 -5 -28 -98 -59 -205 -31 -107 -60 -198 -64 -202 -3
-4 -42 87 -86 202 l-80 210 -47 0 c-27 0 -48 -2 -48 -5 0 -5 152 -390 177
-447 12 -29 22 -38 40 -38 23 0 23 -1 9 -29 -31 -59 -86 -90 -188 -106 -37 -6
-38 -7 -38 -46 l0 -41 63 7 c132 14 210 78 260 212 25 66 157 476 157 486 0
10 -93 12 -96 2z"/>
<path d="M8595 7916 c-4 -20 -6 -39 -4 -41 2 -2 48 -8 103 -13 110 -11 140
-28 152 -89 l7 -33 -92 0 c-152 0 -219 -42 -229 -143 -11 -110 74 -172 202
-148 51 9 106 52 106 82 0 10 5 21 10 24 6 4 10 -7 10 -27 0 -74 5 -78 86 -78
l74 0 0 40 c0 38 -1 40 -32 40 -18 0 -38 4 -45 8 -8 5 -13 55 -15 152 -3 132
-5 148 -26 177 -35 50 -97 74 -206 80 l-95 6 -6 -37z m249 -289 c-2 -59 -46
-99 -118 -105 -79 -6 -108 14 -104 71 4 59 44 78 148 75 l75 -3 -1 -38z"/>
<path d="M9278 7935 c-15 -9 -31 -30 -38 -51 -14 -42 -30 -30 -30 24 0 31 -1
32 -45 32 l-45 0 0 -245 0 -245 49 0 50 0 3 180 c3 179 3 180 29 206 18 18 41
28 72 31 41 5 49 2 77 -25 l30 -30 0 -181 0 -181 45 0 45 0 0 193 c0 216 -7
243 -69 284 -40 27 -130 31 -173 8z"/>
<path d="M11470 7928 c-26 -14 -57 -41 -74 -66 -27 -38 -31 -52 -34 -136 -5
-109 6 -152 52 -204 51 -58 104 -76 225 -75 57 1 107 5 111 10 4 4 5 25 3 46
-5 32 -8 37 -26 31 -41 -13 -161 -8 -193 9 -39 20 -84 72 -84 98 0 18 9 19
166 19 l167 0 -5 84 c-5 103 -34 156 -101 187 -60 27 -150 25 -207 -3z m169
-73 c30 -15 61 -68 61 -104 0 -20 -5 -21 -130 -21 -78 0 -130 4 -130 10 0 31
37 94 64 111 37 23 96 25 135 4z"/>
<path d="M11940 7698 l0 -248 45 0 45 0 0 160 c0 116 4 170 14 195 27 64 120
86 170 40 l26 -24 0 -186 0 -185 51 0 51 0 -4 193 c-4 209 -12 243 -65 281
-28 21 -114 33 -157 22 -31 -8 -66 -44 -66 -68 0 -34 -18 -18 -25 21 -6 37 -9
39 -46 43 l-39 4 0 -248z"/>
<path d="M12605 7934 c-86 -44 -114 -103 -115 -235 0 -82 4 -102 25 -145 40
-80 121 -120 215 -108 54 8 76 18 113 53 45 41 59 79 65 171 7 134 -25 213
-103 257 -49 28 -153 32 -200 7z m146 -80 c80 -41 88 -244 13 -303 -52 -41
-131 -22 -161 38 -26 53 -25 175 3 221 34 58 87 74 145 44z"/>
<path d="M13157 7932 c-10 -10 -17 -26 -17 -36 0 -9 -4 -14 -10 -11 -5 3 -10
17 -10 31 0 21 -4 24 -40 24 l-40 0 0 -245 0 -245 45 0 45 0 0 198 c0 220 4
236 55 230 l30 -3 3 -212 2 -213 40 0 40 0 0 198 c0 220 4 236 55 230 l30 -3
3 -212 2 -213 50 0 50 0 0 199 c0 109 -3 212 -6 229 -10 48 -38 72 -87 72 -50
0 -61 -6 -81 -45 -14 -26 -16 -27 -22 -9 -14 39 -36 54 -79 54 -28 0 -47 -6
-58 -18z"/>
<path d="M14303 7931 c-52 -24 -98 -72 -115 -120 -7 -20 -13 -70 -13 -111 0
-89 15 -137 57 -180 54 -57 108 -74 232 -73 60 1 113 6 118 11 5 5 7 25 3 43
l-6 34 -97 -3 c-107 -3 -148 10 -187 62 -29 39 -33 158 -7 205 46 84 170 95
236 22 l19 -20 37 27 38 27 -21 29 c-11 15 -38 37 -61 47 -56 26 -176 25 -233
0z"/>
<path d="M14865 7936 c-88 -28 -126 -81 -111 -159 10 -56 44 -77 179 -113 50
-14 97 -30 104 -36 8 -6 13 -25 11 -42 -5 -49 -34 -58 -176 -53 l-123 4 3 -41
3 -41 75 -8 c95 -10 221 6 265 33 79 49 76 179 -5 220 -20 10 -74 28 -120 40
-105 27 -120 35 -120 65 0 46 40 60 167 60 l113 0 6 32 c3 17 3 36 -1 42 -9
15 -220 13 -270 -3z"/>
<path d="M13650 7900 l0 -40 80 0 80 0 -2 -162 -3 -163 -93 0 -92 0 0 -42 0
-43 220 0 220 0 0 43 0 42 -77 0 -78 0 -3 203 -2 202 -125 0 -125 0 0 -40z"/>
<path d="M3614 7845 c-12 -8 -25 -11 -29 -7 -5 4 -5 -1 -2 -11 4 -11 3 -16 -4
-11 -22 13 -67 -57 -75 -120 -16 -116 70 -215 186 -216 62 0 87 11 74 31 -6
11 -4 11 10 0 16 -13 21 -11 52 22 19 20 41 55 49 78 17 48 20 103 5 94 -5 -3
-7 0 -4 9 12 32 -71 136 -97 121 -7 -5 -10 -4 -6 2 16 25 -126 32 -159 8z"/>
<path d="M1990 7743 c-8 -9 -25 -30 -37 -47 -23 -30 -23 -30 -3 -48 11 -11 27
-30 36 -44 l16 -24 640 2 641 3 1 88 1 87 -640 0 c-582 -1 -641 -2 -655 -17z"/>
<path d="M607 7528 c-181 -225 -337 -539 -412 -830 -60 -237 -69 -324 -70
-696 l0 -333 37 -35 38 -34 171 0 171 0 38 38 38 37 5 330 c5 348 14 429 66
609 63 214 169 422 299 589 l46 58 -26 23 c-15 12 -55 42 -89 67 -73 52 -253
199 -257 211 -7 16 -21 7 -55 -34z"/>
<path d="M2199 7273 c11 -37 73 -163 80 -163 3 0 146 -1 318 -3 294 -2 313 -3
326 -21 9 -12 19 -16 27 -11 8 5 11 4 7 -2 -3 -5 33 -36 80 -69 47 -32 111
-78 142 -100 31 -23 77 -53 102 -67 l46 -26 11 24 c7 14 30 45 53 70 l41 44
-28 26 c-15 14 -30 25 -35 25 -4 0 -21 12 -38 26 -18 15 -36 22 -43 18 -7 -4
-10 -4 -6 0 10 12 -222 179 -249 179 -6 0 -11 3 -10 6 1 3 -2 7 -7 8 -5 0 -13
9 -19 18 -23 41 -59 45 -441 45 l-365 0 8 -27z"/>
<path d="M7620 7020 c-41 -41 -10 -110 48 -110 36 0 62 28 62 67 0 57 -69 84
-110 43z"/>
<path d="M4153 6980 c-99 -45 -124 -185 -47 -270 23 -25 70 -55 137 -88 114
-54 125 -65 134 -116 15 -92 -126 -132 -270 -77 -45 17 -55 14 -59 -24 -2 -19
-2 -39 1 -44 21 -33 255 -46 321 -18 61 27 93 69 98 131 2 30 2 66 -2 80 -12
50 -67 96 -178 152 -89 45 -112 61 -122 86 -17 39 -6 85 26 112 34 27 123 19
178 -18 l43 -28 31 32 31 31 -30 25 c-66 53 -212 71 -292 34z"/>
<path d="M9565 6981 c-44 -11 -94 -39 -129 -73 l-31 -29 37 -34 38 -35 44 32
c58 41 138 49 176 19 22 -17 25 -28 24 -78 -1 -108 -69 -202 -212 -293 l-71
-45 -1 -63 0 -62 218 2 217 3 0 50 0 50 -122 3 c-72 1 -123 7 -123 12 0 6 10
18 22 28 59 47 118 106 118 118 0 8 4 14 9 14 19 0 64 115 69 175 5 66 -17
133 -57 169 -43 39 -146 56 -226 37z"/>
<path d="M10133 6979 c-43 -13 -110 -91 -128 -151 -21 -73 -29 -203 -15 -278
25 -139 80 -211 176 -229 107 -20 195 22 240 116 24 51 28 72 32 182 4 123 -9
231 -29 231 -5 0 -8 3 -8 8 6 34 -39 86 -95 111 -45 20 -124 25 -173 10z m132
-117 c40 -36 49 -64 53 -182 7 -180 -22 -250 -103 -250 -26 0 -51 7 -64 18
-33 28 -55 131 -48 237 6 99 25 155 59 179 30 21 78 20 103 -2z"/>
<path d="M10177 6713 c-26 -29 -27 -102 -1 -127 38 -38 94 -1 94 63 0 69 -55
106 -93 64z"/>
<path d="M10685 6981 c-56 -14 -145 -74 -145 -98 0 -5 13 -23 29 -41 l30 -32
50 32 c68 42 135 49 175 17 27 -21 28 -25 24 -88 -3 -37 -13 -82 -23 -101 -26
-51 -131 -150 -203 -190 l-61 -35 -1 -62 0 -63 220 0 220 0 0 56 0 55 -77 -1
c-132 -2 -173 0 -173 9 0 4 24 27 54 51 54 43 110 110 139 166 42 82 39 209
-8 270 -41 53 -154 78 -250 55z"/>
<path d="M11223 6972 c-44 -16 -123 -75 -123 -92 0 -3 14 -20 31 -38 29 -31
32 -32 53 -17 120 89 233 66 230 -45 -4 -105 -81 -208 -226 -299 l-68 -43 0
-59 0 -59 225 0 225 0 0 55 0 56 -126 -2 c-69 0 -127 1 -130 4 -7 7 7 37 16
32 4 -3 38 25 76 62 161 161 177 366 35 443 -41 22 -160 23 -218 2z"/>
<path d="M1149 6958 c-6 -12 -20 -31 -31 -42 -10 -11 -16 -26 -13 -34 2 -7 0
-10 -5 -7 -7 4 -46 -59 -78 -127 -2 -4 80 -6 182 -6 102 0 186 3 186 5 0 10
-62 120 -98 173 -35 52 -39 55 -84 58 -40 2 -49 -1 -59 -20z"/>
<path d="M4580 6815 c0 -6 42 -116 94 -245 86 -218 95 -235 120 -240 l28 -5
-32 -43 c-32 -45 -95 -81 -140 -82 -58 -1 -70 -10 -70 -52 l0 -40 63 7 c75 9
146 37 180 73 52 55 84 140 223 590 l13 42 -48 0 -48 0 -58 -202 c-32 -112
-61 -207 -65 -211 -4 -5 -19 22 -33 60 -14 37 -49 129 -77 203 -28 74 -55 138
-59 142 -12 13 -91 15 -91 3z"/>
<path d="M5165 6821 c-3 -2 -5 -114 -5 -248 l0 -243 45 0 45 0 0 188 c0 201 7
234 48 240 49 7 52 -5 52 -224 l0 -204 34 0 34 0 4 198 c3 211 8 232 52 232
43 0 46 -13 46 -227 l0 -203 45 0 45 0 0 225 0 226 -25 24 c-18 19 -35 25 -68
25 -45 0 -66 -14 -81 -55 -7 -18 -9 -17 -21 11 -14 34 -31 44 -78 44 -39 0
-50 -7 -69 -44 l-15 -29 -6 31 c-5 25 -11 30 -42 34 -20 2 -38 2 -40 -1z"/>
<path d="M5903 6811 c-18 -11 -35 -32 -39 -46 -9 -37 -22 -31 -26 13 -3 36 -4
37 -45 40 l-43 3 0 -350 0 -351 45 0 45 0 0 150 c0 83 4 150 8 150 4 0 13 -13
19 -29 16 -44 55 -64 121 -64 90 0 150 42 178 126 24 72 16 216 -15 279 -32
68 -71 92 -151 96 -52 2 -72 -1 -97 -17z m119 -73 c42 -16 63 -70 63 -163 -1
-94 -19 -138 -69 -162 -43 -20 -99 -11 -131 21 -61 61 -60 228 1 289 37 37 70
41 136 15z"/>
<path d="M6405 6807 c-72 -41 -105 -112 -105 -231 0 -93 17 -142 65 -192 31
-32 52 -44 93 -53 107 -22 189 12 234 98 25 48 28 63 28 150 0 107 -16 156
-66 203 -40 37 -75 48 -147 48 -46 0 -73 -6 -102 -23z m175 -85 c71 -71 60
-266 -16 -301 -124 -56 -208 86 -153 257 23 70 118 95 169 44z"/>
<path d="M6978 6814 c-53 -16 -97 -62 -99 -102 -5 -108 18 -128 193 -172 45
-12 89 -26 96 -32 19 -16 14 -53 -9 -74 -19 -17 -37 -19 -149 -19 l-129 0 -6
-34 c-4 -19 -2 -38 4 -44 7 -7 61 -11 139 -11 107 0 134 3 174 21 55 25 79 58
85 116 8 83 -38 123 -179 157 -109 26 -137 46 -120 84 15 35 73 48 188 44 l94
-3 0 43 0 42 -117 -1 c-72 0 -136 -6 -165 -15z"/>
<path d="M7464 6821 c-2 -2 -4 -22 -4 -43 l0 -38 80 0 80 0 -2 -162 -3 -163
-93 0 -92 0 0 -42 0 -43 220 0 220 0 0 40 0 39 -72 3 -73 3 -3 202 -2 202
-126 3 c-69 2 -128 1 -130 -1z"/>
<path d="M8333 6822 l-41 -3 -4 -172 c-3 -183 -9 -205 -55 -226 -32 -15 -94
-13 -114 2 -34 26 -39 54 -39 226 l0 171 -45 0 -45 0 0 -185 c0 -210 8 -245
65 -284 26 -17 50 -24 89 -25 64 0 96 18 120 69 10 20 19 35 21 33 4 -4 13
-54 14 -80 1 -16 12 -18 76 -18 l75 0 0 40 c0 35 -3 40 -22 40 -46 0 -47 6
-50 215 l-3 200 -42 -3z"/>
<path d="M8657 6812 c-9 -10 -17 -26 -17 -36 0 -9 -4 -14 -10 -11 -5 3 -10 17
-10 31 0 21 -4 24 -40 24 l-40 0 0 -245 0 -245 45 0 45 0 0 198 c0 220 4 236
55 230 l30 -3 3 -212 2 -213 40 0 40 0 0 198 c0 220 4 236 55 230 l30 -3 3
-212 2 -213 50 0 50 0 0 203 c0 272 -8 297 -99 297 -42 0 -81 -28 -81 -58 0
-8 -10 0 -23 19 -19 29 -29 34 -68 37 -34 2 -49 -2 -62 -16z"/>
<path d="M3625 6808 c-40 -14 -56 -28 -48 -41 3 -6 1 -7 -5 -3 -6 3 -23 -10
-38 -30 -24 -30 -28 -45 -28 -104 -1 -61 2 -73 30 -111 54 -76 146 -106 219
-72 58 27 85 46 85 60 0 7 5 13 11 13 6 0 8 7 5 16 -3 8 -2 12 4 9 9 -5 12 8
9 31 0 4 5 10 12 15 20 12 -4 113 -37 156 -47 62 -141 88 -219 61z"/>
<path d="M921 6467 c-9 -29 -23 -101 -34 -179 l-4 -28 323 0 323 0 -5 38 c-11
82 -37 187 -48 194 -6 4 -131 7 -278 7 l-267 0 -10 -32z"/>
<path d="M877 6003 c-3 -5 -4 -59 -3 -120 l1 -113 333 0 332 0 0 120 0 120
-329 0 c-182 0 -332 -3 -334 -7z"/>
<path d="M213 4813 c-34 -7 -81 -59 -89 -99 -13 -68 3 -642 20 -754 61 -385
201 -721 430 -1030 102 -138 315 -347 481 -470 289 -217 460 -416 590 -685
138 -286 175 -484 175 -930 0 -372 -5 -365 258 -365 146 0 161 2 186 21 54 42
56 55 56 351 0 163 -6 326 -14 403 -64 594 -363 1141 -823 1504 -67 53 -149
116 -183 141 -34 25 -106 88 -159 141 -265 261 -433 585 -497 957 -12 70 -19
186 -23 417 -5 288 -8 324 -24 349 -31 46 -71 56 -224 55 -76 -1 -148 -4 -160
-6z"/>
<path d="M1891 4802 c-67 -36 -71 -54 -71 -357 0 -361 -17 -494 -92 -720 -62
-188 -155 -358 -294 -541 l-25 -32 121 -92 c66 -50 153 -120 194 -155 l73 -64
35 43 c115 137 270 410 340 596 116 309 148 521 148 975 0 293 -4 315 -70 347
-52 27 -310 26 -359 0z"/>
<path d="M912 4583 l-43 -4 2 -96 c1 -53 4 -104 6 -114 5 -18 22 -19 334 -19
l329 0 0 114 0 113 -37 7 c-40 6 -517 5 -591 -1z"/>
<path d="M5370 4130 c-41 -41 -10 -110 48 -110 54 0 80 60 46 108 -19 28 -67
29 -94 2z"/>
<path d="M12120 4130 c-41 -41 -10 -110 48 -110 36 0 62 28 62 67 0 57 -69 84
-110 43z"/>
<path d="M6310 3791 l0 -351 44 0 44 0 4 168 c4 179 14 219 60 243 40 21 97
15 126 -15 l27 -26 3 -185 3 -185 45 0 44 0 0 188 c0 163 -3 192 -20 229 -28
63 -69 85 -152 81 -75 -4 -103 -21 -113 -69 -15 -67 -26 -10 -24 124 l1 142
-46 3 -46 3 0 -350z"/>
<path d="M14150 4100 l0 -40 74 0 75 0 3 -262 c3 -229 5 -267 21 -295 26 -49
69 -68 153 -67 111 1 124 7 124 53 l0 39 -73 -5 c-88 -7 -112 4 -127 55 -5 21
-10 149 -10 300 l0 262 -120 0 -120 0 0 -40z"/>
<path d="M7600 4101 c-78 -24 -131 -72 -169 -151 -24 -50 -26 -66 -26 -180 0
-109 3 -132 23 -176 48 -107 133 -156 271 -157 47 0 106 5 129 12 44 12 44 13
37 49 -4 20 -8 38 -8 39 -1 1 -27 -5 -57 -13 -69 -18 -94 -18 -157 1 -59 18
-113 70 -134 131 -18 50 -18 188 0 237 28 83 101 137 181 137 45 0 73 -11 108
-43 l23 -21 31 31 c40 40 33 57 -34 88 -41 19 -69 25 -123 24 -38 0 -81 -4
-95 -8z"/>
<path d="M894 4043 c9 -88 24 -165 34 -175 5 -5 132 -7 283 -6 l274 3 16 67
c9 36 18 89 21 117 l5 51 -320 0 -320 0 7 -57z"/>
<path d="M4060 4060 l0 -39 78 -3 77 -3 3 -242 2 -243 -80 0 -80 0 0 -45 0
-45 200 0 200 0 0 45 0 45 -75 0 -75 0 0 245 0 245 75 0 75 0 0 40 0 40 -200
0 -200 0 0 -40z"/>
<path d="M10328 4008 l-3 -73 -63 0 -62 0 0 -42 0 -43 65 0 65 0 0 -142 c0
-119 4 -150 19 -185 32 -69 119 -100 247 -87 l64 7 0 38 0 39 -79 0 c-147 0
-161 18 -161 205 l0 125 115 0 115 0 0 40 0 39 -112 3 -113 3 -3 73 -3 72 -44
0 -44 0 -3 -72z"/>
<path d="M11450 4005 l0 -75 -60 0 -60 0 0 -40 0 -40 60 0 60 0 0 -117 c1
-190 18 -239 96 -278 31 -16 58 -19 137 -18 54 0 101 3 104 7 3 3 2 21 -1 41
l-7 35 -79 0 c-89 0 -123 11 -139 47 -6 13 -11 80 -11 153 l0 130 110 0 110 0
0 40 0 40 -110 0 -110 0 0 75 0 75 -50 0 -50 0 0 -75z"/>
<path d="M4858 3924 c-18 -9 -33 -31 -45 -64 -20 -56 -33 -64 -33 -21 0 16 -3
43 -6 60 l-6 31 -84 0 -84 0 0 -40 0 -40 45 0 45 0 0 -166 0 -166 -42 2 c-68
3 -68 3 -68 -40 l0 -40 165 0 165 0 0 40 0 40 -60 0 -60 0 0 108 c1 150 26
212 94 231 52 13 85 -5 98 -55 12 -43 13 -44 55 -44 38 0 43 3 43 23 -1 52
-20 103 -50 130 -26 23 -39 27 -88 27 -31 -1 -69 -7 -84 -16z"/>
<path d="M5851 3921 c-79 -28 -113 -84 -96 -160 11 -52 59 -79 207 -116 81
-20 106 -43 90 -80 -18 -39 -54 -48 -184 -42 l-118 4 0 -42 0 -42 85 -7 c94
-7 211 6 255 29 17 9 36 29 45 45 17 33 20 112 5 141 -15 27 -73 54 -170 79
-105 27 -120 35 -120 65 0 46 40 60 166 60 l113 0 6 33 c3 18 3 37 0 42 -11
18 -224 11 -284 -9z"/>
<path d="M8105 3926 c-80 -36 -117 -111 -116 -239 0 -77 4 -99 26 -144 37 -74
92 -106 184 -106 138 0 211 85 211 247 0 121 -32 192 -105 233 -47 26 -150 31
-200 9z m145 -81 c35 -18 46 -37 61 -104 15 -70 -3 -155 -41 -193 -22 -21 -38
-28 -69 -28 -59 0 -98 38 -113 110 -32 156 55 271 162 215z"/>
<path d="M8657 3922 c-9 -10 -17 -26 -17 -36 0 -9 -4 -14 -10 -11 -5 3 -10 17
-10 31 0 21 -4 24 -40 24 l-40 0 0 -245 0 -245 45 0 45 0 0 198 c0 220 4 236
55 230 l30 -3 3 -212 2 -213 40 0 40 0 0 198 c0 220 4 236 55 230 l30 -3 3
-212 2 -213 50 0 50 0 0 203 c0 272 -8 297 -99 297 -42 0 -81 -28 -81 -58 0
-8 -10 0 -23 19 -19 29 -29 34 -68 37 -34 2 -49 -2 -62 -16z"/>
<path d="M9278 3923 c-15 -10 -33 -30 -39 -45 -16 -40 -29 -35 -29 12 l0 40
-45 0 -45 0 0 -350 0 -350 50 0 50 0 1 153 c0 144 1 150 16 121 48 -96 220
-91 282 9 27 45 44 148 36 221 -12 104 -47 165 -112 192 -45 19 -132 17 -165
-3z m128 -78 c36 -23 56 -81 56 -160 0 -104 -34 -160 -104 -172 -51 -8 -101
19 -123 67 -25 55 -18 197 11 237 36 49 106 61 160 28z"/>
<path d="M10845 3906 c-4 -20 -6 -39 -3 -41 2 -2 39 -7 83 -10 103 -8 151 -28
164 -68 20 -56 19 -57 -80 -57 -156 0 -229 -49 -229 -155 0 -104 82 -159 203
-136 52 9 107 52 107 82 0 10 5 21 10 24 6 3 10 -4 10 -18 0 -14 3 -39 6 -56
l7 -31 73 0 74 0 0 40 c0 38 -1 40 -32 40 -18 0 -38 4 -45 8 -8 5 -13 55 -15
152 -3 132 -5 148 -26 177 -35 49 -94 72 -205 80 l-96 6 -6 -37z m249 -289
c-2 -62 -58 -107 -136 -107 -64 0 -90 22 -86 73 4 59 44 78 148 75 l75 -3 -1
-38z"/>
<path d="M12605 3926 c-80 -37 -115 -109 -115 -239 0 -80 4 -100 26 -145 37
-74 94 -106 184 -106 141 2 210 86 210 258 0 99 -28 168 -86 212 -33 25 -47
29 -113 32 -49 1 -87 -3 -106 -12z m151 -85 c40 -25 59 -76 58 -161 -2 -107
-42 -160 -119 -160 -56 0 -91 37 -107 111 -33 158 61 275 168 210z"/>
<path d="M13060 3688 l0 -248 44 0 44 0 4 168 c5 188 14 222 69 241 50 17 85
13 116 -13 l28 -24 3 -186 4 -186 44 0 44 0 0 188 c0 213 -11 254 -72 292 -74
45 -199 16 -213 -49 -9 -42 -25 -29 -25 19 0 38 0 38 -45 42 l-45 3 0 -247z"/>
<path d="M13660 3924 c0 -10 -3 -29 -6 -41 -6 -20 -2 -21 73 -27 114 -10 150
-21 168 -56 8 -16 15 -38 15 -50 0 -19 -6 -20 -93 -20 -76 0 -101 -4 -137 -22
-83 -42 -114 -133 -70 -205 31 -51 64 -67 139 -67 84 0 126 21 150 75 22 48
31 41 31 -23 l0 -48 75 0 75 0 0 40 c0 36 -3 40 -24 40 -55 0 -56 3 -56 134
-1 220 -44 270 -244 283 -90 6 -96 5 -96 -13z m248 -301 c3 -25 -4 -40 -31
-69 -31 -34 -40 -38 -94 -42 -52 -4 -64 -1 -82 17 -28 28 -27 72 2 98 32 29
43 32 127 30 l75 -2 3 -32z"/>
<path d="M5210 3890 l0 -40 80 0 80 0 0 -165 0 -165 -95 0 -95 0 0 -40 0 -40
220 0 220 0 0 40 0 40 -75 0 -75 0 0 205 0 205 -130 0 -130 0 0 -40z"/>
<path d="M9680 3737 c0 -168 2 -197 19 -227 25 -47 73 -74 132 -74 63 0 96 19
122 69 11 22 22 33 23 25 2 -8 5 -32 9 -52 l6 -38 74 0 75 0 0 40 c0 33 -3 40
-19 40 -51 0 -51 -2 -51 211 l0 199 -45 0 -45 0 0 -147 c0 -166 -9 -213 -47
-243 -34 -26 -102 -27 -134 -1 -23 19 -24 24 -27 205 l-3 186 -45 0 -44 0 0
-193z"/>
<path d="M11960 3890 l0 -40 80 0 80 0 0 -165 0 -165 -95 0 -95 0 0 -40 0 -40
220 0 220 0 0 40 0 40 -75 0 -75 0 0 205 0 205 -130 0 -130 0 0 -40z"/>
<path d="M3630 3779 c-107 -43 -158 -162 -111 -264 30 -67 104 -115 176 -115
79 0 163 66 185 144 14 50 6 121 -12 110 -7 -4 -8 -3 -4 4 4 6 2 22 -5 34 -40
76 -151 118 -229 87z"/>
<path d="M1049 3558 c38 -73 98 -165 113 -175 7 -4 29 -8 48 -8 29 0 40 7 63
37 16 21 26 42 22 48 -4 6 -2 9 4 8 6 -2 30 30 52 70 l41 72 -186 0 -185 0 28
-52z"/>
<path d="M3230 3353 c-97 -65 -112 -78 -102 -88 4 -5 2 -5 -5 -1 -7 4 -42 -15
-80 -42 -37 -26 -82 -57 -100 -67 -18 -10 -30 -22 -27 -27 3 -4 -3 -8 -13 -8
-10 0 -157 -1 -326 -3 l-309 -2 -29 -70 c-16 -38 -33 -77 -38 -87 -7 -11 -6
-18 4 -22 8 -3 178 -5 378 -6 l363 0 105 70 c57 39 120 85 138 103 19 17 31
25 26 17 -8 -13 -6 -13 8 -1 9 7 14 17 11 22 -3 5 2 6 10 3 9 -3 16 -1 16 5 0
6 4 11 10 11 9 0 90 52 116 75 6 6 21 16 32 24 20 14 20 14 -6 35 -15 12 -30
20 -34 19 -4 -2 -5 4 -2 12 4 8 2 15 -3 15 -6 0 -18 16 -29 35 -10 19 -21 35
-24 35 -3 0 -43 -26 -90 -57z"/>
<path d="M4807 3022 c-22 -25 -21 -75 1 -95 41 -37 112 -6 112 48 0 55 -77 87
-113 47z"/>
<path d="M13807 3022 c-22 -25 -21 -75 1 -95 41 -37 112 -6 112 48 0 55 -77
87 -113 47z"/>
<path d="M5720 2990 l0 -40 69 0 70 0 3 -257 c3 -229 5 -262 22 -296 31 -62
97 -84 211 -68 37 5 68 11 70 13 1 2 0 19 -2 39 l-5 37 -77 -5 c-75 -5 -78 -5
-99 22 -21 27 -22 35 -22 311 l0 284 -120 0 -120 0 0 -40z"/>
<path d="M9989 2878 c-1 -136 -2 -150 -14 -123 -21 49 -50 68 -110 73 -70 6
-97 -2 -139 -39 -48 -42 -69 -104 -70 -203 -2 -154 43 -233 143 -255 86 -18
149 6 172 68 8 20 12 23 19 11 6 -8 10 -30 10 -47 0 -32 1 -33 45 -33 l45 0 0
350 0 350 -50 0 -50 0 -1 -152z m-51 -145 c35 -21 52 -73 52 -153 0 -112 -34
-168 -107 -176 -96 -12 -151 81 -132 220 4 31 17 69 29 86 34 48 102 58 158
23z"/>
<path d="M10946 2985 c-132 -47 -200 -200 -175 -399 22 -178 111 -259 284
-259 44 0 104 5 133 12 l52 13 0 154 0 154 -110 0 -110 0 0 -40 0 -39 63 -3
62 -3 3 -81 3 -81 -42 -7 c-152 -24 -249 76 -249 257 0 126 33 196 110 235 73
36 143 29 198 -22 l24 -21 30 34 30 33 -22 24 c-48 50 -196 70 -284 39z"/>
<path d="M4060 2659 l0 -331 163 4 c172 4 199 11 243 60 71 78 50 214 -40 257
-23 12 -53 21 -67 22 -13 0 -33 4 -44 8 -16 6 -12 9 20 15 48 9 100 42 114 74
6 13 11 42 11 66 0 56 -32 105 -90 134 -39 19 -59 22 -177 22 l-133 0 0 -331z
m255 237 c54 -23 69 -70 40 -126 -18 -35 -63 -50 -147 -50 l-58 0 0 95 0 95
65 0 c36 0 81 -6 100 -14z m63 -289 c37 -35 46 -77 28 -122 -21 -50 -59 -65
-166 -65 l-90 0 0 111 0 111 99 -4 c94 -3 102 -5 129 -31z"/>
<path d="M4654 2821 c-2 -2 -4 -22 -4 -43 l0 -38 80 0 80 0 -2 -162 -3 -163
-93 0 -92 0 0 -42 0 -43 220 0 220 0 0 43 0 42 -77 0 -78 0 -3 202 -2 202
-121 3 c-66 2 -123 1 -125 -1z"/>
<path d="M5284 2810 c-52 -26 -80 -65 -99 -137 -57 -219 64 -383 254 -342 100
21 150 92 159 224 7 125 -31 216 -108 255 -53 27 -150 27 -206 0z m161 -82
c38 -30 55 -76 55 -154 0 -72 -19 -125 -54 -149 -27 -20 -91 -19 -121 1 -48
31 -70 146 -45 236 22 77 107 112 165 66z"/>
<path d="M6405 2807 c-72 -41 -105 -112 -105 -231 0 -93 17 -142 65 -192 31
-32 52 -44 93 -53 107 -22 189 12 234 98 25 48 28 63 28 150 0 107 -16 156
-66 203 -40 37 -75 48 -147 48 -46 0 -73 -6 -102 -23z m175 -85 c71 -71 60
-266 -16 -301 -124 -56 -208 86 -153 257 23 70 118 95 169 44z"/>
<path d="M6940 2810 c-24 -12 -46 -37 -65 -72 -28 -49 -30 -60 -30 -158 0 -94
3 -111 26 -155 30 -59 72 -90 131 -99 74 -11 158 30 158 76 0 10 5 18 11 18 8
0 10 -21 7 -68 -8 -113 -51 -152 -165 -152 -32 0 -75 -3 -95 -6 -37 -6 -38 -8
-38 -47 l0 -40 108 6 c163 9 218 35 258 121 23 50 24 58 24 319 l0 267 -40 0
c-28 0 -40 -4 -41 -15 -1 -8 -3 -19 -4 -25 -1 -5 -3 -18 -4 -27 -1 -13 -6 -9
-20 13 -11 18 -30 39 -42 48 -33 23 -133 21 -179 -4z m207 -96 c50 -63 44
-231 -11 -283 -50 -47 -143 -33 -178 27 -40 67 -28 222 21 266 46 41 131 36
168 -10z"/>
<path d="M7774 2815 c-2 -5 -28 -98 -59 -205 -31 -107 -60 -198 -64 -202 -3
-4 -42 87 -86 202 l-80 210 -47 0 c-27 0 -48 -2 -48 -5 0 -5 152 -390 177
-447 12 -29 22 -38 40 -38 23 0 23 -1 9 -29 -31 -59 -86 -90 -188 -106 -37 -6
-38 -7 -38 -46 l0 -41 63 7 c132 14 210 78 260 212 25 66 157 476 157 486 0
10 -93 12 -96 2z"/>
<path d="M8595 2796 c-4 -20 -6 -39 -4 -41 2 -2 48 -8 103 -13 110 -11 140
-28 152 -89 l7 -33 -92 0 c-152 0 -219 -42 -229 -143 -11 -110 74 -172 202
-148 51 9 106 52 106 82 0 10 5 21 10 24 6 4 10 -7 10 -27 0 -74 5 -78 86 -78
l74 0 0 40 c0 38 -1 40 -32 40 -18 0 -38 4 -45 8 -8 5 -13 55 -15 152 -3 132
-5 148 -26 177 -35 50 -97 74 -206 80 l-95 6 -6 -37z m249 -289 c-2 -59 -46
-99 -118 -105 -79 -6 -108 14 -104 71 4 59 44 78 148 75 l75 -3 -1 -38z"/>
<path d="M9278 2815 c-15 -9 -31 -30 -38 -51 -14 -42 -30 -30 -30 24 0 31 -1
32 -45 32 l-45 0 0 -245 0 -245 49 0 50 0 3 180 c3 179 3 180 29 206 18 18 41
28 72 31 41 5 49 2 77 -25 l30 -30 0 -181 0 -181 45 0 45 0 0 193 c0 216 -7
243 -69 284 -40 27 -130 31 -173 8z"/>
<path d="M11470 2808 c-26 -14 -57 -41 -74 -66 -27 -38 -31 -52 -34 -136 -5
-109 6 -152 52 -204 51 -58 104 -76 225 -75 57 1 107 5 111 10 4 4 5 25 3 46
-5 32 -8 37 -26 31 -41 -13 -161 -8 -193 9 -39 20 -84 72 -84 98 0 18 9 19
166 19 l167 0 -5 84 c-5 103 -34 156 -101 187 -60 27 -150 25 -207 -3z m169
-73 c30 -15 61 -68 61 -104 0 -20 -5 -21 -130 -21 -78 0 -130 4 -130 10 0 31
37 94 64 111 37 23 96 25 135 4z"/>
<path d="M11940 2578 l0 -248 45 0 45 0 0 160 c0 116 4 170 14 195 27 64 120
86 170 40 l26 -24 0 -186 0 -185 51 0 51 0 -4 193 c-4 209 -12 243 -65 281
-28 21 -114 33 -157 22 -31 -8 -66 -44 -66 -68 0 -34 -18 -18 -25 21 -6 37 -9
39 -46 43 l-39 4 0 -248z"/>
<path d="M12605 2814 c-86 -44 -114 -103 -115 -235 0 -82 4 -102 25 -145 40
-80 121 -120 215 -108 54 8 76 18 113 53 45 41 59 79 65 171 7 134 -25 213
-103 257 -49 28 -153 32 -200 7z m146 -80 c80 -41 88 -244 13 -303 -52 -41
-131 -22 -161 38 -26 53 -25 175 3 221 34 58 87 74 145 44z"/>
<path d="M13157 2812 c-10 -10 -17 -26 -17 -36 0 -9 -4 -14 -10 -11 -5 3 -10
17 -10 31 0 21 -4 24 -40 24 l-40 0 0 -245 0 -245 45 0 45 0 0 198 c0 220 4
236 55 230 l30 -3 3 -212 2 -213 40 0 40 0 0 198 c0 220 4 236 55 230 l30 -3
3 -212 2 -213 50 0 50 0 0 199 c0 109 -3 212 -6 229 -10 48 -38 72 -87 72 -50
0 -61 -6 -81 -45 -14 -26 -16 -27 -22 -9 -14 39 -36 54 -79 54 -28 0 -47 -6
-58 -18z"/>
<path d="M14303 2811 c-52 -24 -98 -72 -115 -120 -7 -20 -13 -70 -13 -111 0
-89 15 -137 57 -180 54 -57 108 -74 232 -73 60 1 113 6 118 11 5 5 7 25 3 43
l-6 34 -97 -3 c-107 -3 -148 10 -187 62 -29 39 -33 158 -7 205 46 84 170 95
236 22 l19 -20 37 27 38 27 -21 29 c-11 15 -38 37 -61 47 -56 26 -176 25 -233
0z"/>
<path d="M14865 2816 c-88 -28 -126 -81 -111 -159 10 -56 44 -77 179 -113 50
-14 97 -30 104 -36 8 -6 13 -25 11 -42 -5 -49 -34 -58 -176 -53 l-123 4 3 -41
3 -41 75 -8 c95 -10 221 6 265 33 79 49 76 179 -5 220 -20 10 -74 28 -120 40
-105 27 -120 35 -120 65 0 46 40 60 167 60 l113 0 6 32 c3 17 3 36 -1 42 -9
15 -220 13 -270 -3z"/>
<path d="M13650 2780 l0 -40 80 0 80 0 -2 -162 -3 -163 -93 0 -92 0 0 -42 0
-43 220 0 220 0 0 43 0 42 -77 0 -78 0 -3 203 -2 202 -125 0 -125 0 0 -40z"/>
<path d="M3614 2725 c-12 -8 -25 -11 -29 -7 -5 4 -5 -1 -2 -11 4 -11 3 -16 -4
-11 -22 13 -67 -57 -75 -120 -16 -116 70 -215 186 -216 62 0 87 11 74 31 -6
11 -4 11 10 0 16 -13 21 -11 52 22 19 20 41 55 49 78 17 48 20 103 5 94 -5 -3
-7 0 -4 9 12 32 -71 136 -97 121 -7 -5 -10 -4 -6 2 16 25 -126 32 -159 8z"/>
<path d="M1990 2623 c-8 -9 -25 -30 -37 -47 -23 -30 -23 -30 -3 -48 11 -11 27
-30 36 -44 l16 -24 640 2 641 3 1 88 1 87 -640 0 c-582 -1 -641 -2 -655 -17z"/>
<path d="M607 2408 c-181 -225 -337 -539 -412 -830 -60 -237 -69 -324 -70
-696 l0 -333 37 -35 38 -34 171 0 171 0 38 38 38 37 5 330 c5 348 14 429 66
609 63 214 169 422 299 589 l46 58 -26 23 c-15 12 -55 42 -89 67 -73 52 -253
199 -257 211 -7 16 -21 7 -55 -34z"/>
<path d="M2199 2153 c11 -37 73 -163 80 -163 3 0 146 -1 318 -3 294 -2 313 -3
326 -21 9 -12 19 -16 27 -11 8 5 11 4 7 -2 -3 -5 33 -36 80 -69 47 -32 111
-78 142 -100 31 -23 77 -53 102 -67 l46 -26 11 24 c7 14 30 45 53 70 l41 44
-28 26 c-15 14 -30 25 -35 25 -4 0 -21 12 -38 26 -18 15 -36 22 -43 18 -7 -4
-10 -4 -6 0 10 12 -222 179 -249 179 -6 0 -11 3 -10 6 1 3 -2 7 -7 8 -5 0 -13
9 -19 18 -23 41 -59 45 -441 45 l-365 0 8 -27z"/>
<path d="M7620 1900 c-41 -41 -10 -110 48 -110 36 0 62 28 62 67 0 57 -69 84
-110 43z"/>
<path d="M4153 1860 c-99 -45 -124 -185 -47 -270 23 -25 70 -55 137 -88 114
-54 125 -65 134 -116 15 -92 -126 -132 -270 -77 -45 17 -55 14 -59 -24 -2 -19
-2 -39 1 -44 21 -33 255 -46 321 -18 61 27 93 69 98 131 2 30 2 66 -2 80 -12
50 -67 96 -178 152 -89 45 -112 61 -122 86 -17 39 -6 85 26 112 34 27 123 19
178 -18 l43 -28 31 32 31 31 -30 25 c-66 53 -212 71 -292 34z"/>
<path d="M9565 1861 c-44 -11 -94 -39 -129 -73 l-31 -29 37 -34 38 -35 44 32
c58 41 138 49 176 19 22 -17 25 -28 24 -78 -1 -108 -69 -202 -212 -293 l-71
-45 -1 -63 0 -62 218 2 217 3 0 50 0 50 -122 3 c-72 1 -123 7 -123 12 0 6 10
18 22 28 59 47 118 106 118 118 0 8 4 14 9 14 19 0 64 115 69 175 5 66 -17
133 -57 169 -43 39 -146 56 -226 37z"/>
<path d="M10133 1859 c-43 -13 -110 -91 -128 -151 -21 -73 -29 -203 -15 -278
25 -139 80 -211 176 -229 107 -20 195 22 240 116 24 51 28 72 32 182 4 123 -9
231 -29 231 -5 0 -8 3 -8 8 6 34 -39 86 -95 111 -45 20 -124 25 -173 10z m132
-117 c40 -36 49 -64 53 -182 7 -180 -22 -250 -103 -250 -26 0 -51 7 -64 18
-33 28 -55 131 -48 237 6 99 25 155 59 179 30 21 78 20 103 -2z"/>
<path d="M10177 1593 c-26 -29 -27 -102 -1 -127 38 -38 94 -1 94 63 0 69 -55
106 -93 64z"/>
<path d="M10685 1861 c-56 -14 -145 -74 -145 -98 0 -5 13 -23 29 -41 l30 -32
50 32 c68 42 135 49 175 17 27 -21 28 -25 24 -88 -3 -37 -13 -82 -23 -101 -26
-51 -131 -150 -203 -190 l-61 -35 -1 -62 0 -63 220 0 220 0 0 56 0 55 -77 -1
c-132 -2 -173 0 -173 9 0 4 24 27 54 51 54 43 110 110 139 166 42 82 39 209
-8 270 -41 53 -154 78 -250 55z"/>
<path d="M11223 1852 c-44 -16 -123 -75 -123 -92 0 -3 14 -20 31 -38 29 -31
32 -32 53 -17 120 89 233 66 230 -45 -4 -105 -81 -208 -226 -299 l-68 -43 0
-59 0 -59 225 0 225 0 0 55 0 56 -126 -2 c-69 0 -127 1 -130 4 -7 7 7 37 16
32 4 -3 38 25 76 62 161 161 177 366 35 443 -41 22 -160 23 -218 2z"/>
<path d="M1149 1838 c-6 -12 -20 -31 -31 -42 -10 -11 -16 -26 -13 -34 2 -7 0
-10 -5 -7 -7 4 -46 -59 -78 -127 -2 -4 80 -6 182 -6 102 0 186 3 186 5 0 10
-62 120 -98 173 -35 52 -39 55 -84 58 -40 2 -49 -1 -59 -20z"/>
<path d="M4580 1695 c0 -6 42 -116 94 -245 86 -218 95 -235 120 -240 l28 -5
-32 -43 c-32 -45 -95 -81 -140 -82 -58 -1 -70 -10 -70 -52 l0 -40 63 7 c75 9
146 37 180 73 52 55 84 140 223 590 l13 42 -48 0 -48 0 -58 -202 c-32 -112
-61 -207 -65 -211 -4 -5 -19 22 -33 60 -14 37 -49 129 -77 203 -28 74 -55 138
-59 142 -12 13 -91 15 -91 3z"/>
<path d="M5165 1701 c-3 -2 -5 -114 -5 -248 l0 -243 45 0 45 0 0 188 c0 201 7
234 48 240 49 7 52 -5 52 -224 l0 -204 34 0 34 0 4 198 c3 211 8 232 52 232
43 0 46 -13 46 -227 l0 -203 45 0 45 0 0 225 0 226 -25 24 c-18 19 -35 25 -68
25 -45 0 -66 -14 -81 -55 -7 -18 -9 -17 -21 11 -14 34 -31 44 -78 44 -39 0
-50 -7 -69 -44 l-15 -29 -6 31 c-5 25 -11 30 -42 34 -20 2 -38 2 -40 -1z"/>
<path d="M5903 1691 c-18 -11 -35 -32 -39 -46 -9 -37 -22 -31 -26 13 -3 36 -4
37 -45 40 l-43 3 0 -350 0 -351 45 0 45 0 0 150 c0 83 4 150 8 150 4 0 13 -13
19 -29 16 -44 55 -64 121 -64 90 0 150 42 178 126 24 72 16 216 -15 279 -32
68 -71 92 -151 96 -52 2 -72 -1 -97 -17z m119 -73 c42 -16 63 -70 63 -163 -1
-94 -19 -138 -69 -162 -43 -20 -99 -11 -131 21 -61 61 -60 228 1 289 37 37 70
41 136 15z"/>
<path d="M6405 1687 c-72 -41 -105 -112 -105 -231 0 -93 17 -142 65 -192 31
-32 52 -44 93 -53 107 -22 189 12 234 98 25 48 28 63 28 150 0 107 -16 156
-66 203 -40 37 -75 48 -147 48 -46 0 -73 -6 -102 -23z m175 -85 c71 -71 60
-266 -16 -301 -124 -56 -208 86 -153 257 23 70 118 95 169 44z"/>
<path d="M6978 1694 c-53 -16 -97 -62 -99 -102 -5 -108 18 -128 193 -172 45
-12 89 -26 96 -32 19 -16 14 -53 -9 -74 -19 -17 -37 -19 -149 -19 l-129 0 -6
-34 c-4 -19 -2 -38 4 -44 7 -7 61 -11 139 -11 107 0 134 3 174 21 55 25 79 58
85 116 8 83 -38 123 -179 157 -109 26 -137 46 -120 84 15 35 73 48 188 44 l94
-3 0 43 0 42 -117 -1 c-72 0 -136 -6 -165 -15z"/>
<path d="M7464 1701 c-2 -2 -4 -22 -4 -43 l0 -38 80 0 80 0 -2 -162 -3 -163
-93 0 -92 0 0 -42 0 -43 220 0 220 0 0 40 0 39 -72 3 -73 3 -3 202 -2 202
-126 3 c-69 2 -128 1 -130 -1z"/>
<path d="M8333 1702 l-41 -3 -4 -172 c-3 -183 -9 -205 -55 -226 -32 -15 -94
-13 -114 2 -34 26 -39 54 -39 226 l0 171 -45 0 -45 0 0 -185 c0 -210 8 -245
65 -284 26 -17 50 -24 89 -25 64 0 96 18 120 69 10 20 19 35 21 33 4 -4 13
-54 14 -80 1 -16 12 -18 76 -18 l75 0 0 40 c0 35 -3 40 -22 40 -46 0 -47 6
-50 215 l-3 200 -42 -3z"/>
<path d="M8657 1692 c-9 -10 -17 -26 -17 -36 0 -9 -4 -14 -10 -11 -5 3 -10 17
-10 31 0 21 -4 24 -40 24 l-40 0 0 -245 0 -245 45 0 45 0 0 198 c0 220 4 236
55 230 l30 -3 3 -212 2 -213 40 0 40 0 0 198 c0 220 4 236 55 230 l30 -3 3
-212 2 -213 50 0 50 0 0 203 c0 272 -8 297 -99 297 -42 0 -81 -28 -81 -58 0
-8 -10 0 -23 19 -19 29 -29 34 -68 37 -34 2 -49 -2 -62 -16z"/>
<path d="M3625 1688 c-40 -14 -56 -28 -48 -41 3 -6 1 -7 -5 -3 -6 3 -23 -10
-38 -30 -24 -30 -28 -45 -28 -104 -1 -61 2 -73 30 -111 54 -76 146 -106 219
-72 58 27 85 46 85 60 0 7 5 13 11 13 6 0 8 7 5 16 -3 8 -2 12 4 9 9 -5 12 8
9 31 0 4 5 10 12 15 20 12 -4 113 -37 156 -47 62 -141 88 -219 61z"/>
<path d="M921 1347 c-9 -29 -23 -101 -34 -179 l-4 -28 323 0 323 0 -5 38 c-11
82 -37 187 -48 194 -6 4 -131 7 -278 7 l-267 0 -10 -32z"/>
<path d="M877 883 c-3 -5 -4 -59 -3 -120 l1 -113 333 0 332 0 0 120 0 120
-329 0 c-182 0 -332 -3 -334 -7z"/>
</g>
</svg>
