<?xml version="1.0" encoding="UTF-8" standalone="no"?>
<!-- Created with Inkscape (http://www.inkscape.org/) -->

<svg
   width="182.14493mm"
   height="182.14493mm"
   viewBox="0 0 182.14494 182.14492"
   version="1.1"
   id="svg5"
   inkscape:version="1.1.2 (0a00cf5339, 2022-02-04)"
   sodipodi:docname="social_logo_alt.svg"
   inkscape:export-filename="/home/tyler/Downloads/social_logo.png"
   inkscape:export-xdpi="171.40836"
   inkscape:export-ydpi="171.40836"
   xmlns:inkscape="http://www.inkscape.org/namespaces/inkscape"
   xmlns:sodipodi="http://sodipodi.sourceforge.net/DTD/sodipodi-0.dtd"
   xmlns="http://www.w3.org/2000/svg"
   xmlns:svg="http://www.w3.org/2000/svg">
  <sodipodi:namedview
     id="namedview7"
     pagecolor="#505050"
     bordercolor="#eeeeee"
     borderopacity="1"
     inkscape:pageshadow="0"
     inkscape:pageopacity="0"
     inkscape:pagecheckerboard="0"
     inkscape:document-units="mm"
     showgrid="false"
     fit-margin-top="0"
     fit-margin-left="0"
     fit-margin-right="0"
     fit-margin-bottom="0"
     showguides="false"
     inkscape:guide-bbox="true"
     inkscape:zoom="0.48126353"
     inkscape:cx="122.59396"
     inkscape:cy="308.56275"
     inkscape:window-width="1366"
     inkscape:window-height="704"
     inkscape:window-x="0"
     inkscape:window-y="0"
     inkscape:window-maximized="1"
     inkscape:current-layer="layer5"
     inkscape:snap-bbox="false"
     inkscape:snap-bbox-edge-midpoints="false"
     inkscape:bbox-nodes="false"
     inkscape:snap-object-midpoints="false" />
  <defs
     id="defs2" />
  <g
     inkscape:groupmode="layer"
     id="layer1"
     inkscape:label="Circle"
     transform="translate(20.334425,20.334425)">
    <circle
       style="display:inline;fill:#ffffff;fill-opacity:1;fill-rule:evenodd;stroke:#216d71;stroke-width:5.07806;stroke-miterlimit:4;stroke-dasharray:none;stroke-opacity:1"
       id="path50286"
       cx="70.738037"
       cy="70.738037"
       r="88.533432" />
  </g>
  <g
     inkscape:groupmode="layer"
     id="layer6"
     inkscape:label="Divider"
     style="display:inline"
     transform="translate(55.167501,25.62142)" />
  <g
     inkscape:groupmode="layer"
     id="g81871"
     inkscape:label="Nts square"
     style="display:inline"
     transform="translate(55.167501,25.62142)" />
  <g
     inkscape:groupmode="layer"
     id="g23913"
     inkscape:label="Helix Left Paths Final"
     style="display:inline"
     transform="translate(55.167501,25.62142)" />
  <g
     inkscape:groupmode="layer"
     id="g23308"
     inkscape:label="Helix Right Paths Final"
     style="display:inline"
     transform="translate(55.167501,25.62142)">
    <path
       id="path82715"
       style="color:#000000;display:inline;fill:#40c8a4;stroke-width:0.70176;stroke-miterlimit:4;stroke-dasharray:none"
       d="m 35.891888,45.286945 h 15.013267 v -5 H 35.891888 Z" />
    <path
       id="path82715-6"
       style="color:#000000;display:inline;fill:#40c8a4;stroke-width:0.704701;stroke-miterlimit:4;stroke-dasharray:none"
       d="m 35.777008,24.086171 h 15.128146 v -5 H 35.777008 Z" />
    <path
       id="path82709"
       style="color:#000000;display:inline;fill:#40c8a4;stroke-width:0.708546;stroke-miterlimit:4;stroke-dasharray:none"
       d="M 60.173699,29.759941 H 36.034178 v 5 h 24.139521 z" />
    <path
       id="path82715-2"
       style="color:#000000;display:inline;fill:#40c8a4;stroke-width:0.701794;stroke-miterlimit:4;stroke-dasharray:none"
       d="m 20.905155,111.39724 h 15.014716 v -5 H 20.905155 Z" />
    <path
       id="path82715-6-9"
       style="color:#000000;display:inline;fill:#40c8a4;stroke-width:0.702625;stroke-miterlimit:4;stroke-dasharray:none"
       d="m 20.905155,90.19652 h 15.05028 v -5 h -15.05028 z" />
    <path
       id="path82709-1"
       style="color:#000000;display:inline;fill:#40c8a4;stroke-width:0.711243;stroke-miterlimit:4;stroke-dasharray:none"
       d="M 35.960229,95.870264 H 11.63661 v 4.999976 h 24.323619 z" />
    <path
       id="path23911"
       style="color:#000000;display:inline;fill:#216d71;stroke-width:1;-inkscape-stroke:none"
       d="m 45.6479,67.410872 c -0.180086,0.123256 -0.359108,0.246374 -0.541052,0.370003 -0.288253,0.195864 -0.578836,0.392311 -0.871783,0.589111 -0.292947,0.1968 -0.588574,0.393954 -0.886251,0.591696 -0.297675,0.197739 -0.597763,0.396107 -0.900203,0.594794 -0.302439,0.198689 -0.606914,0.397742 -0.914156,0.597381 -0.221414,0.14387 -0.445802,0.288166 -0.669727,0.43253 14.82443,7.395898 21.837433,14.50295 24.101888,20.477821 2.554131,6.739195 -0.180094,12.753972 -5.564518,18.515662 -8.383532,8.97094 -22.831311,15.83019 -28.838549,18.43764 0.760257,0.21856 1.510843,0.42883 2.229321,0.61908 0.820251,0.2172 1.609723,0.4162 2.360581,0.5979 0.750851,0.18169 1.463014,0.34583 2.128552,0.49351 0.410628,0.0911 0.767252,0.16425 1.140497,0.24288 7.292078,-3.54698 17.541351,-9.38973 24.631573,-16.97675 C 69.1155,106.50801 72.995982,98.140032 69.642301,89.291191 66.837027,81.889348 59.455128,74.650271 45.6479,67.410872 Z" />
    <path
       id="path23934"
       style="color:#000000;display:inline;fill:#216d71;stroke-width:1;-inkscape-stroke:none"
       d="M 33.363378,0.93120928 C 26.053946,4.4790981 15.781105,10.321081 8.6656612,17.904333 2.5811754,24.388846 -1.3260549,32.751225 2.00922,41.603662 c 2.7968962,7.423478 10.200623,14.682036 24.072949,21.940263 0.206267,-0.14133 0.412438,-0.282448 0.621152,-0.424264 0.28825,-0.195863 0.578834,-0.392311 0.871781,-0.589111 0.292947,-0.1968 0.588058,-0.393957 0.885732,-0.591696 0.297678,-0.197741 0.597763,-0.39611 0.900205,-0.594796 0.30244,-0.198686 0.607431,-0.39774 0.914673,-0.597379 0.195096,-0.12677 0.392583,-0.254217 0.589626,-0.381373 C 15.973442,52.951504 8.9441394,45.827471 6.6890377,39.842011 4.1513076,33.106407 6.9041734,27.087594 12.31195,21.324279 20.731015,12.3517 35.213554,5.4924565 41.236283,2.8840617 39.616567,2.4188169 38.058608,2.0052803 36.656718,1.6660482 35.413338,1.3651731 34.358465,1.1401619 33.363378,0.93120928 Z" />
    <path
       id="path23306"
       style="color:#000000;fill:#216d71;stroke-width:1;-inkscape-stroke:none"
       d="m 47.776968,4.9960773 c -0.02236,0.0091 -0.341749,0.1390692 -0.95808,0.4015261 -0.637228,0.2713548 -1.558142,0.6704803 -2.693377,1.181323 -0.567615,0.2554216 -1.188651,0.5386922 -1.854665,0.8480102 -0.356502,0.1655705 -0.756015,0.3572984 -1.136883,0.5374349 6.474455,1.9565101 14.026335,4.9977835 19.137333,9.1529295 2.6787,2.177734 4.658683,4.614541 5.652368,7.279142 0.993688,2.6646 1.104038,5.602235 -0.232545,9.259901 -2.673162,7.315332 -11.628278,17.34282 -31.101458,29.72635 C 14.695727,76.03379 4.8701221,86.387256 1.5172604,95.562641 c -1.6764309,4.587689 -1.61181806,8.923569 -0.2206584,12.654009 1.3911598,3.73043 4.0062884,6.81203 7.1520181,9.36945 4.5101209,3.66665 10.1631929,6.34231 15.5783769,8.31526 0.02005,-0.008 0.34213,-0.13938 0.959115,-0.40256 0.63566,-0.27116 1.554318,-0.66983 2.686658,-1.18029 0.566169,-0.25523 1.185736,-0.53841 1.850014,-0.84749 0.357201,-0.16621 0.757246,-0.35862 1.13895,-0.53951 -6.471357,-1.95668 -14.015548,-4.99612 -19.122863,-9.14827 C 8.8601712,111.6055 6.8822563,109.16869 5.8885697,106.50409 4.8948831,103.83949 4.7819489,100.90186 6.1185299,97.244192 8.7916921,89.92886 17.747327,79.900853 37.220508,67.517324 57.114442,54.866227 66.939527,44.51328 70.29239,35.337895 71.968822,30.7502 71.904724,26.413807 70.513566,22.68337 69.122405,18.952933 66.506761,15.871854 63.361029,13.314433 58.849217,9.6464108 53.194005,6.9692305 47.776968,4.9960773 Z" />
  </g>
  <g
     inkscape:groupmode="layer"
     id="layer5"
     inkscape:label="Text"
     style="display:inline"
     transform="translate(55.167501,25.62142)">
    <text
       xml:space="preserve"
       style="font-style:normal;font-weight:normal;font-size:10.5833px;line-height:1.25;font-family:sans-serif;fill:#000000;fill-opacity:1;stroke:none;stroke-width:0.264583"
       x="212.89647"
       y="179.11702"
       id="text31377"><tspan
         sodipodi:role="line"
         id="tspan31375"
         style="stroke-width:0.264583"
         x="212.89647"
         y="179.11702" /></text>
    <text
       xml:space="preserve"
       style="font-style:normal;font-weight:normal;font-size:10.5833px;line-height:1.25;font-family:sans-serif;fill:#000000;fill-opacity:1;stroke:none;stroke-width:0.264583"
       x="678.80096"
       y="93.415077"
       id="text279455"><tspan
         sodipodi:role="line"
         id="tspan279453"
         style="stroke-width:0.264583"
         x="678.80096"
         y="93.415077" /></text>
    <text
       xml:space="preserve"
       style="font-size:10.5833px;line-height:1.25;font-family:sans-serif;word-spacing:8.33437px;stroke-width:0.264583"
       x="-49.276054"
       y="67.808434"
       id="text141099"><tspan
         sodipodi:role="line"
         id="tspan141097"
         style="stroke-width:0.264583"
         x="-49.276054"
         y="67.808434" /></text>
    <text
       xml:space="preserve"
       style="font-style:normal;font-weight:normal;font-size:28.2222px;line-height:1.25;font-family:sans-serif;letter-spacing:0px;fill:#000000;fill-opacity:1;stroke:#ffffff;stroke-width:1;stroke-miterlimit:4;stroke-dasharray:none"
       x="-36.771835"
       y="42.955112"
       id="text3755"><tspan
         id="tspan3753"
         style="font-style:normal;font-variant:normal;font-weight:bold;font-stretch:normal;font-size:28.2222px;font-family:sans-serif;-inkscape-font-specification:'sans-serif Bold';stroke:#ffffff;stroke-width:1;stroke-miterlimit:4;stroke-dasharray:none"
         x="-36.771835"
         y="42.955112"
         sodipodi:role="line">VIBE</tspan></text>
    <text
       xml:space="preserve"
       style="font-style:normal;font-weight:normal;font-size:28.2222px;line-height:1.25;font-family:sans-serif;letter-spacing:0px;fill:#000000;fill-opacity:1;stroke:#ffffff;stroke-width:1;stroke-miterlimit:4;stroke-dasharray:none"
       x="36.052448"
       y="109.23923"
       id="text71089"><tspan
         id="tspan71087"
         style="font-weight:bold;font-size:28.2222px;stroke:#ffffff;stroke-width:1;stroke-miterlimit:4;stroke-dasharray:none"
         x="36.052448"
         y="109.23923"
         sodipodi:role="line"
         dx="0 0 0 0">ICBG</tspan></text>
    <text
       xml:space="preserve"
       style="font-size:10.5833px;line-height:1.25;font-family:sans-serif;word-spacing:8.33437px;stroke-width:0.264583"
       x="-98.488411"
       y="55.200073"
       id="text165764"><tspan
         sodipodi:role="line"
         id="tspan165762"
         style="stroke-width:0.264583"
         x="-98.488411"
         y="55.200073" /></text>
  </g>
</svg>
