<svg id="svg55" xmlns="http://www.w3.org/2000/svg" width="388.18235" height="131.17808" viewBox="0 0 388.18235 131.17808"><defs><style>.cls-1{fill:#fefefe;}.cls-2{fill:#004487;}.cls-3{fill:#008fe1;}.cls-4{fill:#01afeb;}.cls-5{fill:#014587;}.cls-6{fill:#014487;}.cls-7{fill:#7dc80f;}.cls-8{fill:#02b0eb;}.cls-9{fill:#02afeb;}.cls-10{fill:#7dc80e;}.cls-11{fill:#7dc810;}.cls-12{fill:#024587;}.cls-13{fill:#b9dff6;}.cls-14{fill:#01be01;}.cls-15{fill:#01ad01;}.cls-16{fill:#01b801;}.cls-17{fill:#01b101;}.cls-18{fill:#02c501;}.cls-19{fill:#01b900;}.cls-20{fill:#00b600;}.cls-21{fill:#04b9ee;}.cls-22{fill:#01bb00;}.cls-23{fill:#02a803;}.cls-24{fill:#76c502;}.cls-25{fill:#00b300;}.cls-26{fill:#0ab2ec;}.cls-27{fill:#038dc8;}.cls-28{fill:#79c609;}.cls-29{fill:#00bd00;}.cls-30{fill:#02baee;}.cls-31{fill:#03b3ec;}.cls-32{fill:#00b000;}.cls-33{fill:#03ade8;}.cls-34{fill:#d4e6f6;}.cls-35{fill:#05c2f0;}.cls-36{fill:#0cb4e7;}.cls-37{fill:#01c101;}.cls-38{fill:#cce3f7;}.cls-39{fill:#05beef;}.cls-40{fill:#06bbee;}.cls-41{fill:#007cb8;}.cls-42{fill:#07bbee;}.cls-43{fill:#68cff3;}.cls-44{fill:#0370ab;}.cls-45{fill:#06b4ed;}.cls-46{fill:#75c501;}.cls-47{fill:#03a708;}.cls-48{fill:#05bbee;}.cls-49{fill:#aadcf6;}.cls-50{fill:#06c5f1;}.cls-51{fill:#0c6199;}.cls-52{fill:#5fcef3;}.cls-53{fill:#c6e3f6;}.cls-54{fill:#038bc6;}.cls-55{fill:#8fd5f4;}.cls-56{fill:#00a7e3;}.cls-57{fill:#0467a2;}.cls-58{fill:#77d3f3;}.cls-59{fill:#78c606;}.cls-60{fill:#07c4f0;}.cls-61{fill:#41cbf2;}.cls-62{fill:#08c3f0;}.cls-63{fill:#0094d0;}.cls-64{fill:#55cdf3;}.cls-65{fill:#4bcef2;}.cls-66{fill:#67cff3;}.cls-67{fill:#75c502;}.cls-68{fill:#76c503;}.cls-69{fill:#78c607;}.cls-70{fill:#009fdc;}.cls-71{fill:#77c505;}.cls-72{fill:#08b9ee;}.cls-73{fill:#00427f;}.cls-74{fill:#78c605;}.cls-75{fill:#003d81;}.cls-76{fill:#ecf3f7;}.cls-77{fill:#e7eff5;}.cls-78{fill:#e9f0f5;}.cls-79{fill:#f7a200;}.cls-80{fill:#f8c200;}.cls-81{fill:#e8f2f7;}.cls-82{fill:#003a80;}.cls-83{fill:#e9f4f8;}.cls-84{fill:#dbe8f0;}.cls-85{fill:#e4eef4;}.cls-86{fill:#edf0f5;}.cls-87{fill:#f4b204;}.cls-88{fill:#fed300;}.cls-89{fill:#d7e6ef;}.cls-90{fill:#003b81;}.cls-91{fill:#054485;}.cls-92{fill:#e9f3f7;}.cls-93{fill:#dceaf1;}.cls-94{fill:#eab404;}.cls-95{fill:#fdfefe;}.cls-96{fill:#c1d7e5;}.cls-97{fill:#003b80;}.cls-98{fill:#003980;}.cls-99{fill:#437aa9;}.cls-100{fill:#dae7f0;}.cls-101{fill:#245e97;}.cls-102{fill:#fcfdfe;}.cls-103{fill:#135390;}.cls-104{fill:#003a81;}.cls-105{fill:#deebf2;}.cls-106{fill:#6fa0c3;}.cls-107{fill:#cc9c05;}.cls-108{fill:#578fb7;}.cls-109{fill:#1f5e98;}.cls-110{fill:#003e82;}.cls-111{fill:#084788;}.cls-112{fill:#a5c1d7;}.cls-113{fill:#f9fbfc;}.cls-114{fill:#f6f9fb;}.cls-115{fill:#f0f7f9;}.cls-116{fill:#0060a9;}.cls-117{fill:#01609e;}.cls-118{fill:#def6fc;}.cls-119{fill:#cbeefa;}.cls-120{fill:#504e4c;}.cls-121{fill:#0097ef;}.cls-122{fill:#025f9c;}.cls-123{fill:#0086de;}.cls-124{fill:#f2fbfd;}.cls-125{fill:#e1f9fd;}.cls-126{fill:#0064a3;}.cls-127{fill:#1a92e2;}.cls-128{fill:#139fe6;}.cls-129{fill:#0096ed;}.cls-130{fill:#a6def6;}.cls-131{fill:#55778a;}.cls-132{fill:#d2f5fc;}.cls-133{fill:#fafdfe;}.cls-134{fill:#0691e2;}.cls-135{fill:#1ba0e7;}.cls-136{fill:#0095eb;}.cls-137{fill:#1d78ac;}.cls-138{fill:#85d7f5;}.cls-139{fill:#f3f6f9;}.cls-140{fill:#eff3f7;}.cls-141{fill:#fcfcfd;}.cls-142{fill:#f7fbf2;}.cls-143{fill:#76c505;}.cls-144{fill:#fafcf7;}.cls-145{fill:#77c503;}.cls-146{fill:#79c607;}.cls-147{fill:#f4faec;}.cls-148{fill:#19c8f3;}.cls-149{fill:#efc600;}.cls-150{fill:#ecb500;}.cls-151{fill:#efc100;}.cls-152{fill:#0cc108;}.cls-153{fill:#0c6a00;}.cls-154{fill:#00c300;}.cls-155{fill:#f4a600;}.cls-156{fill:#e99600;}.cls-157{fill:#23ae08;}.cls-158{fill:#e9ba00;}.cls-159{fill:#01baee;}.cls-160{fill:#06c3f0;}.cls-161{fill:#0272ad;}.cls-162{fill:#0b69a2;}.cls-163{fill:#009dd8;}.cls-164{fill:#00a4e0;}.cls-165{fill:#28c3ed;}.cls-166{fill:#0cc6f1;}.cls-167{fill:#027ab5;}.cls-168{fill:#009ad8;}.cls-169{fill:#034688;}.cls-170{fill:#00387f;}.cls-171{fill:#2b6100;}.cls-172{fill:#dae6da;}.cls-173{fill:#08b409;}.cls-174{fill:#3e6200;}.cls-175{fill:#023c82;}.cls-176{fill:#093c82;}.cls-177{fill:#00367e;}.cls-178{fill:#0f95e3;}.cls-179{fill:#0c9ee7;}.cls-180{fill:#069ae5;}.cls-181{fill:#eec003;}.cls-182{fill:#f3af03;}.cls-183{fill:#f1ba01;}.cls-184{fill:#008e01;}.cls-185{fill:#008700;}.cls-186{fill:#008f00;}.cls-187{fill:#03c401;}.cls-188{fill:#d9deda;}.cls-189{fill:#e4e9df;}.cls-190{fill:#f1bb00;}.cls-191{fill:#c7a700;}.cls-192{fill:#0dc60d;}.cls-193{fill:#fed200;}.cls-194{fill:#9b6800;}.cls-195{fill:#00c400;}.cls-196{fill:#eea200;}.cls-197{fill:#dea100;}</style></defs><title>ucd</title><path class="cls-1" d="M194.875,131.1515q-95,0-189.99977.09674c-3.42471.00714-4.11122-.67107-4.09857-4.09708Q1.00476,65.402.79125,3.65179C.78227.66854,1.393.068,4.375.07023q190.49986.1418,380.99983,0c2.98169-.00222,3.59283.5978,3.58389,3.58141q-.18581,61.99943,0,123.99948c.00894,2.98308-.601,3.588-3.5838,3.5829Q290.12517,131.07072,194.875,131.1515Z" transform="translate(-0.77649 -0.07022)"/><path class="cls-2" d="M90.18126,77.83413l-.45277,5.44553c-2.78368,2.08823-6.01389,1.1543-9.05145,1.21915A116.64165,116.64165,0,0,1,67.41051,84.343a8.56286,8.56286,0,0,1-2.29726-.77178c-1.47812-.72348-2.77168-1.848-4.46382-2.14359a17.73815,17.73815,0,0,1-3.872-1.04473c-.4041-.14291-.79959-.31454-1.19072-.48672a6.0253,6.0253,0,0,0-4.87643.06653,12.21094,12.21094,0,0,1-1.31983.36485c-1.6458.33692-3.24739.86282-4.92408,1.04124-1.756.11356-3.512.13132-5.26853.07457-4.53084-1.83617-8.41066-.94028-11.63105,2.78271-6.10411.65175-12.21493.23607-18.31916.26642A4.87221,4.87221,0,0,1,5.602,83.22673c-1.34107-3.02583-.65718-6.22-.68831-9.331-.09624-9.6164-.04886-19.23441-.03038-28.85175.01389-7.227,1.54962-8.33777,8.69446-6.37149a3.87019,3.87019,0,0,1,1.12067,1.41781,6.05006,6.05006,0,0,1,.42691,1.62138c.35947,4.69315-.29822,9.41472.19642,14.11649,2.02829,1.16609,2.85961,3.7101,5.23549,4.45139a7.05857,7.05857,0,0,0,6.44009-.35519c3.12337-1.96453,3.36238-5.14291,3.51979-8.341.17916-3.63987-.39674-7.35192,1.06275-10.87391a5.1411,5.1411,0,0,1,.81538-1.41992c3.66481-2.24374,7.37379-1.98873,11.10429-.2029a2.66577,2.66577,0,0,1,.772,1.29531c-.74587,3.18652-4.90722,3.48192-5.65839,6.6687-.23466.37262-.49883.72881-.76389,1.07772a5.45515,5.45515,0,0,0-.12931,5.4415c.34441.56738.68694,1.1319,1.023,1.70293,2.58756,5.81592,7.46892,5.65894,12.60551,4.869.65664-.101-.16536.05809.49522-.03176-.16391-.66774-.71624-.06756-1.02674-.30066a12.96657,12.96657,0,0,0-5.45613.04462c-3.15415-.458-4.10023-2.63351-4.24423-5.43678a16.6483,16.6483,0,0,0,.0899-7.10839c.575-4.35746,3.22829-6.22688,7.45962-6.32327,1.00349-.02287,2.38468.89469,2.92527-.87459A3.72524,3.72524,0,0,1,52.58,39.08023c2.80533-1.27394,5.56005-2.03393,8.01877.68247a8.5065,8.5065,0,0,1,.8197,2.34738c1.615,5.4171.35408,11.00684.99707,16.47526.76665.615-1.413,1.74436-.139,1.54551,3.37406-.52664,6.81675.24373,10.11443-.76847,4.67044-.28859,5.48357-4.63641,7.76649-7.40477,2.61143.13249-.03471-1.97778,1.044-2.71657.20626-.14126-.64861.64634-1.02605.11564-1.82729-3.356-5.0353-5.65873-6.82276-9.0489a2.476,2.476,0,0,1,.72733-1.50613c5.40757-1.35186,10.794-2.17883,16.08194.45417C90.49947,52.11576,90.46592,64.97489,90.18126,77.83413Z" transform="translate(-0.77649 -0.07022)"/><path class="cls-3" d="M90.18127,77.83413q-.219-19.34517-.438-38.69035a3.66911,3.66911,0,0,0-1.08012-.81593c-2.517-.562-5.15908.33428-7.64145-.66166a3.52392,3.52392,0,0,1-.974-1.0819,14.824,14.824,0,0,1-1.03455-2.74175,29.35054,29.35054,0,0,1-.19134-9.29844,5.2119,5.2119,0,0,0-2.799-5.72982,3.60134,3.60134,0,0,1-.84251-1.08975c-.57726-2.08956-.93375-4.28034-2.58286-5.89275-.552-.72554-1.12786-.81395-1.735-.03965a8.234,8.234,0,0,1-.7547.92837c-.95106.98811-2.46989,1.3837-2.928,2.87286-.08847.4159-.20057.81676-.30923,1.22556a4.09737,4.09737,0,0,1-.90453,1.73163c-2.66107,1.537-3.40174,3.80676-2.5485,6.68567-.25662,1.7913-.333,3.63065-1.3249,5.23409-1.287,1.52482-.87426,3.23866-.53224,4.95162a3.94574,3.94574,0,0,1-.18277,1.42588,2.45041,2.45041,0,0,1-1.0591,1.02277,19.849,19.849,0,0,1-6.88819.017,2.72563,2.72563,0,0,1-1.1716-.96484,10.2939,10.2939,0,0,1-.9338-2.04888,9.41529,9.41529,0,0,1-.4011-1.37408,30.27843,30.27843,0,0,1-.08231-7.93924,4.77775,4.77775,0,0,0-1.85522-4.82279,2.46977,2.46977,0,0,1-.59347-1.18664c.10188-1.51274.16163-3.01042-1.51432-3.82694-.35158-.25571-.67844-.53639-1.00027-.8186-3.4811-.58265-5.20393.91428-5.25665,4.40534a3.47233,3.47233,0,0,1-.624,1.208c-3.77874,1.92022-1.66968,5.49808-2.3194,8.29689-.59682,2.11823-1.62918,4.15213-1.23585,6.46965a3.43161,3.43161,0,0,1-.40184,1.38036,3.52072,3.52072,0,0,1-1.79459,1.31677c-2.31587.41672-4.63026.78354-6.91984-.12569a2.58592,2.58592,0,0,1-1.09-1.04253,5.77261,5.77261,0,0,1-.44662-1.39136c-.19267-1.29115-.10916-2.604-.19347-3.90971-.35874-5.55606-2.41182-6.921-7.96254-5.62906-2.092.48691-1.78116,2.0039-2.05671,3.36824a22.28879,22.28879,0,0,0-.473,5.014,6.91175,6.91175,0,0,1-.46986,2.28206A2.67753,2.67753,0,0,1,13.57926,37.736c-2.54572,1.39256-6.10509-1.23408-8.16933,2.073-.12419,13.93232-.00206,27.85767-.06032,41.78307a1.6161,1.6161,0,0,1-.71045,1.5621c-.84362-1.55168-.61406-3.24611-.61607-4.89787C4.00157,60.5911,4.08284,42.925,3.91,25.26139c-.03228-3.29871.94262-4.99268,3.98732-6.45141C28.01725,9.17043,49.2898,4.665,71.46561,3.76095c5.31969-.21686,10.60706-.7939,15.94665-.17148,2.21939.25871,3.15212.94534,3.146,3.35509-.05893,23.33043-.00668,46.66113-.0048,69.99175A2.65126,2.65126,0,0,1,90.18127,77.83413Z" transform="translate(-0.77649 -0.07022)"/><path class="cls-4" d="M340.14911,21.95233q-2.3958,5.673-4.79364,11.345c-.63882,1.50592-1.005,3.26473-3.169,3.35466-2.14572.08917-2.704-1.53393-3.42673-3.0484a60.34749,60.34749,0,0,0-6.83063-11.76674c0,3.86753-.10141,7.73872.038,11.60123.08383,2.32219-.62363,3.249-3.08829,3.23766-2.387-.011-3.23343-.72449-3.09869-3.16376.43109-7.80734.69907-15.62386,1.00311-23.43788.05661-1.45489.29858-2.62588,2.10715-2.75669,1.98257-.14339,3.48413.23389,4.43475,2.30429,2.077,4.52339,4.35245,8.95593,6.56381,13.41716.6536,1.31859,1.36411,2.609,2.49136,4.7555,2.70822-6.03967,5.15781-11.35348,7.46887-16.72687.97888-2.27593,1.94421-4.30227,4.97635-3.716,3.07065.5937,1.9191,3.08807,2.03342,4.837.45569,6.97147.73428,13.95448,1.08276,20.933.09531,1.90844.27615,3.62872-2.64633,3.55629-2.35278-.0583-3.72174-.32586-3.71207-3.18148.01288-3.80771-.42477-7.617-.66891-11.42554Z" transform="translate(-0.77649 -0.07022)"/><path class="cls-5" d="M192.066,66.39769a40.684,40.684,0,0,1,.04463-5.49094c.43481-3.16514-1.57092-6.85142,1.36446-9.42575,1.858-1.62947,14.32242-.01628,16.43039,1.84657,2.97969,2.63319,3.79558,5.82826,1.61789,9.34649-.89041,1.43854-2.06874,2.30154.2964,3.71363,3.30151,1.97115,3.78973,5.453,2.7809,8.83649-1.08748,3.64732-3.88982,5.67568-7.70476,6.18878-.16452.02213-.333.01289-.4987.0284C192.066,82.7816,192.066,82.78167,192.066,66.39769Z" transform="translate(-0.77649 -0.07022)"/><path class="cls-6" d="M249.76772,50.84031c8.56862.06943,14.0266,6.31787,13.85548,15.86211-.16614,9.2668-6.13892,15.65084-14.53247,15.53314-8.349-.11706-13.42047-6.089-13.37686-15.752C235.75778,56.74717,241.12738,50.7703,249.76772,50.84031Z" transform="translate(-0.77649 -0.07022)"/><path class="cls-6" d="M301.92145,82.26747c-8.08859-.09958-13.99591-6.78615-13.86575-15.69486.13953-9.5534,6.1514-15.91106,14.87524-15.73088,8.05963.16645,13.81046,6.8612,13.57114,15.79868C316.25668,75.80387,310.13159,82.36856,301.92145,82.26747Z" transform="translate(-0.77649 -0.07022)"/><path class="cls-6" d="M345.95392,71.61307c-.00009,9.83632-.06268,9.90135-10.14661,10.54282-9.10614.57925-15.67584-5.06222-16.03455-13.76908-.43124-10.46673,5.16953-17.28186,14.55081-17.499a30.51039,30.51039,0,0,1,6.89041.72285c2.32285.48635,3.21924,1.8401,2.26822,4.40638-.82553,2.22757-1.50867,3.43384-4.17322,2.21229-3.66971-1.68237-7.44736-1.36385-9.85257,2.04871-2.6904,3.81712-2.47522,8.29615-.25,12.2836,1.62567,2.91315,4.64313,3.32194,7.8587,2.75483,2.44052-.43041,1.40427-2.20127,1.59946-3.4839.28613-1.88043-.54422-2.69295-2.50107-2.6917-2.09274.00133-2.18011-1.60975-2.15024-3.19369.03372-1.78831.86288-2.80106,2.70978-2.82613,1.66107-.02256,3.33945.13189,4.98026-.05489,3.1456-.35808,4.7413.62589,4.28339,4.06534A34.25142,34.25142,0,0,0,345.95392,71.61307Z" transform="translate(-0.77649 -0.07022)"/><path class="cls-7" d="M335.64008,124.22839c-4.06815-5.15415-8.13626-10.3083-12.973-16.43625,0,5.30718-.08838,9.525.03333,13.73676.07233,2.50256-.24353,4.05336-3.41513,4.00075-2.99057-.04961-3.08838-1.60439-3.067-3.81948.0657-6.81845-.056-13.63952.07886-20.45593.03436-1.7366-1.162-4.27124,1.83243-4.90422,2.50592-.52971,4.427.34818,5.94208,2.571,2.80283,4.11214,5.88641,8.03249,8.71,12.13129a5.85112,5.85112,0,0,0,3.21967,2.52623v-15.436c4.81369-1.38721,5.30457-1.09562,5.34561,3.55486.05289,5.98993.02338,11.98071.00986,17.97107C341.34473,124.9591,341.33279,124.95907,335.64008,124.22839Z" transform="translate(-0.77649 -0.07022)"/><path class="cls-8" d="M292.869,21.97176q-.0005-.24992-.00034-.49984c0-15.83717-.00061-15.83119,16.16672-14.17742,1.33875.13694,2.80383-.02876,2.72079,1.98825-.07672,1.864-.61539,3.25407-2.89777,3.16687-1.99631-.07627-4.0061.103-5.99533-.03724-2.4957-.17595-3.64951.62944-3.62372,3.339.024,2.523.768,3.7304,3.45313,3.46764,1.6499-.16145,3.3317.03722,4.99466-.03283,2.02713-.08538,2.54672.99073,2.52994,2.78949-.01572,1.68676-.72543,2.42125-2.39771,2.37036-1.49786-.04558-3.01367.13912-4.49487-.02236-2.96915-.32369-4.114.708-4.12045,3.85938-.007,3.38758,1.91269,3.26972,4.205,3.205,1.99744-.05635,3.99814.01065,5.99738.00729,1.97363-.00332,2.49323,1.08762,2.47632,2.89529-.01645,1.757-.80377,2.33695-2.43176,2.32487-4.66467-.03461-9.33176-.09539-13.9938.02015-2.43738.06041-2.64239-1.28318-2.60846-3.168C292.91779,29.63683,292.86935,25.80386,292.869,21.97176Z" transform="translate(-0.77649 -0.07022)"/><path class="cls-4" d="M361.39594,37.279c-.87015-.14431-2.84732-.37841-4.7767-.82081-1.64944-.37822-3.82364-.24585-2.90259-3.27556.7283-2.39575,1.52322-3.33892,4.15668-2.28338a13.84353,13.84353,0,0,0,5.38242.60006,3.35385,3.35385,0,0,0,3.43161-2.40312c.48-1.81223-.80286-2.78247-2.13986-3.51047-1.5975-.86987-3.26807-1.61662-4.94443-2.32848-3.83035-1.62652-6.54611-4.18554-6.19864-8.62071.37006-4.724,3.82117-6.55009,7.94031-7.7212,3.291-.93568,6.19348.2171,9.20572,1.06116,1.71661.481,2.56512,1.15144,1.62311,3.165-.76285,1.63057-1.191,3.17191-3.46674,2.106a10.823,10.823,0,0,0-1.90405-.56824c-2.32947-.59965-5.04779-1.15274-6.09671,1.52779-1.11459,2.84841,1.87543,3.26665,3.65936,4.21054.73126.3869,1.507.68941,2.26062,1.0344,5.78381,2.6476,7.56284,5.39648,6.57816,10.16152C372.18579,34.54147,368.38745,37.26388,361.39594,37.279Z" transform="translate(-0.77649 -0.07022)"/><path class="cls-9" d="M200.17055,37.25289c-.82845-.15477-2.77359-.55144-4.7309-.87434-1.89209-.31214-3.24736-1.00065-2.45227-3.2612.59981-1.70531.921-3.50624,3.71039-2.34969a9.84933,9.84933,0,0,0,6.33511.67921c1.332-.36382,2.526-.9275,2.829-2.45313.30986-1.56022-.57861-2.55115-1.80476-3.223a45.57238,45.57238,0,0,0-4.91-2.40885c-4.49823-1.80121-7.28035-4.68982-6.32343-9.883.714-3.875,5.46326-7.14842,10.372-6.93351,2.27412.09957,4.5186.94613,6.76949,1.48349,1.58733.379,2.32552,1.29223,1.52663,2.90016-.67322,1.355-.743,3.25583-3.35611,2.43876-2.81369-.87978-6.9492-3.07571-8.07768,1.16892-.97409,3.66395,3.79817,3.78529,6.23647,5.04739,5.10786,2.64393,7.20274,5.70258,6.29213,9.9867C211.52368,34.57091,207.43451,37.368,200.17055,37.25289Z" transform="translate(-0.77649 -0.07022)"/><path class="cls-8" d="M249.9,37.24639c-.95308-.18291-3.06067-.606-5.17575-.9875-1.73932-.3137-2.73882-.95517-1.97343-3.01115.65248-1.75273.74815-3.366,3.61353-2.55426,3.13313.88754,7.73082,2.84828,9.08905-1.60461,1.22827-4.02688-3.83307-4.24585-6.35931-5.54888-3.62561-1.87009-6.70235-3.89907-6.71074-8.36283-.007-3.74485,2.23221-6.00765,5.56425-7.50271,4.52016-2.02817,8.771-.97458,12.936.88718,1.59879.71466.40094,1.97687.08768,2.99172-.41315,1.33849-.81076,2.408-2.74307,1.88551-3.03767-.82131-7.32806-3.21172-8.54694,1.21462-.9505,3.45176,3.9476,3.65452,6.38687,4.94369,5.58078,2.94948,7.29126,5.59448,6.06323,10.442C260.912,34.85237,257.06143,37.375,249.9,37.24639Z" transform="translate(-0.77649 -0.07022)"/><path class="cls-10" d="M231.722,108.11551c-.00844.32711.12125.81523-.04526.958-5.96936,5.12032-2.57135,9.39828,1.18155,13.66493a4.52007,4.52007,0,0,1,.76474,1.27078,2.83737,2.83737,0,0,1,.02034.97509c-4.36021,1.60867-6.85789-.28838-9.19678-3.99056-1.36485-2.16036-1.67841-6.914-6.50537-4.83064-1.00623,1.13812-.52705,2.51777-.56229,3.78892-.13863,4.99907-.11116,4.99983-5.37979,4.20718L211.994,98.14692c4.49525-2.24739,9.24654-.29787,13.84554-.84457a6.96483,6.96483,0,0,1,5.8331,5.90557A7.73306,7.73306,0,0,0,231.722,108.11551Z" transform="translate(-0.77649 -0.07022)"/><path class="cls-11" d="M362.84525,97.26447c5.294.76629,8.74072,3.56158,9.82813,8.94818a24.44957,24.44957,0,0,0,.05441,8.9006c-1.18237,5.99417-4.93915,9.16-10.89154,9.9137-3.09213-.82407-6.24658-.35461-9.36349-.34-2.56619.012-3.5874-1.02008-3.58426-3.5034.00858-6.78076-.01981-13.56152.01544-20.34244.01279-2.45583,1.18384-3.54712,3.62656-3.67644C355.97641,96.98222,359.40555,97.52236,362.84525,97.26447Z" transform="translate(-0.77649 -0.07022)"/><path class="cls-5" d="M361.53952,62.52637c1.747-3.315,3.02985-5.78637,4.35132-8.2369a6.67791,6.67791,0,0,1,1.58978-2.47322,5.28138,5.28138,0,0,1,5.6636-.21083c1.843,1.23139-.02988,2.96066-.693,4.297a40.7026,40.7026,0,0,1-3.56293,5.97632c-3.4364,4.68753-4.26575,9.94146-3.69211,15.53662.28555,2.78544-.31989,4.26354-3.67856,4.15723-2.92041-.09244-4.59039-.75533-3.952-3.89442,1.76-8.65506-4.12177-14.58431-7.35205-21.4992-.64554-1.38186-4.04-3.3036-.93463-4.66815,2.1651-.95137,5.72354-1.63711,7.55011,1.61821C358.36517,55.86677,359.65686,58.74169,361.53952,62.52637Z" transform="translate(-0.77649 -0.07022)"/><path class="cls-7" d="M305.66254,123.5195l-1.83984-4.10928c-3.65051-1.13747-7.286-1.57787-10.873.23433-.53644,1.80066-.65652,3.76836-2.09,5.2091-1.63467-.80662-4.68484.93338-4.77408-2.65363,3.06348-8.45428,5.6-17.11263,9.7403-25.14987a29.23487,29.23487,0,0,1,6.25381.73692,261.524,261.524,0,0,1,9.73874,25.37717C309.924,126.01237,307.76779,124.32392,305.66254,123.5195Z" transform="translate(-0.77649 -0.07022)"/><path class="cls-12" d="M267.98315,66.62307c.00034-3.98593.14105-7.97844-.04526-11.95564-.14291-3.05107,1.37939-3.55456,3.95865-3.56332,2.59726-.00882,4.07828.55484,3.99576,3.56459-.1456,5.31058.15393,10.63777-.11148,15.939-.16772,3.3502.62854,4.99309,4.28757,4.46444a37.78789,37.78789,0,0,1,4.9765-.0325c2.62073-.026,2.69455,1.684,2.78683,3.687.108,2.34408-1.07388,2.77888-3.02249,2.7552-4.48349-.0545-8.9715-.121-13.451.02447-2.56989.08349-3.55164-.78951-3.423-3.42608C268.12112,74.26952,267.98279,70.44292,267.98315,66.62307Z" transform="translate(-0.77649 -0.07022)"/><path class="cls-8" d="M228.45578,18.9625c1.78075-3.4079,3.20023-6.15432,4.64946-8.885.69653-1.31241,1.31264-2.79563,3.16479-2.73458,1.13982.03757,2.64174-.17968,3.32538.4404,1.01347.91924-.161,2.09385-.69984,3.0699a61.01873,61.01873,0,0,1-4.18532,7.33117c-3.32214,4.4231-3.93269,9.36667-3.45143,14.59745.24846,2.70057-.61263,3.85946-3.53734,3.8924-3.14343.03539-3.27638-1.84022-2.87744-3.87073,1.62283-8.25985-3.591-14.0726-7.02332-20.56514-.74139-1.40239-3.29749-3.33445-1.2558-4.496,2.01466-1.1462,5.2359-1.41837,6.88208,1.74517C224.96521,12.40517,226.51962,15.30394,228.45578,18.9625Z" transform="translate(-0.77649 -0.07022)"/><path class="cls-8" d="M277.66376,7.30341c2.99594.00073,5.99231-.03,8.98761.01407,1.437.02115,3.15488-.33174,3.14319,2.06275-.00974,1.9958-.72815,3.43556-2.88672,3.01047-6.42215-1.26475-7.06058,2.26547-6.69553,7.33173.33414,4.63645-.09753,9.32468.1463,13.97236.14063,2.68113-1.00421,2.9673-3.215,2.95218-2.14383-.01468-3.41367-.2009-3.32693-2.89014.18231-5.6531-.15753-11.3271.13223-16.9712.18393-3.58242-1.057-4.68414-4.51181-4.431-1.78458.13075-4.706,1.27687-4.56833-2.55351.13412-3.73228,2.96527-2.31072,4.80954-2.44809C272.32669,7.15575,275.0007,7.30267,277.66376,7.30341Z" transform="translate(-0.77649 -0.07022)"/><path class="cls-6" d="M225.30179,81.4635c-1.16644-.00108-2.33469.03972-3.49883-.01212-1.26109-.05614-2.83122.38377-3.21306-1.48952-.283-1.38857-.17807-2.809,1.47139-3.23326,2.13338-.5487,1.67216-2.15975,1.68065-3.58167q.03877-6.4985-.0015-12.99734c-.01166-1.575.5377-3.394-1.93593-3.89312-1.86258-.37586-1.36467-2.06047-1.27931-3.29369.12868-1.85868,1.63359-1.78708,2.97736-1.79243,2.83272-.01128,5.66554.0041,8.49829-.00287,1.47163-.00362,2.65849.3442,2.77179,2.111.08919,1.3906.07887,2.89529-1.69746,3.06408-2.66705.25342-2.03482,2.16036-2.05168,3.70583-.04726,4.332-.05536,8.66539.0112,12.99685.0166,1.08028-.633,2.70465.68481,3.13349,2.17052.70632,3.22179,1.91853,2.39723,4.0002-.91522,2.31055-3.17561.93589-4.81955,1.26464A10.27392,10.27392,0,0,1,225.30179,81.4635Z" transform="translate(-0.77649 -0.07022)"/><path class="cls-7" d="M245.98721,101.21427c-2.16644,6.163-1.67252,6.93366,4.4408,6.95708,1.32642.00508,2.65756-.02517,3.97783.07529,1.65126.12563,1.54225,1.41986,1.56709,2.58892.02615,1.22961-.06464,2.37815-1.71481,2.39935-1.49312.01917-2.98648.01905-4.47972.0295-2.4048.01683-4.84753-.72488-4.90417,3.444-.05457,4.01635,2.10873,3.56954,4.67752,3.72527,2.37408.14391,4.91367-.99435,7.12862.72326-2.39618,1.02657-4.923.16542-7.01405.47321,1.89607.70361,6.22337-1.18351,6.141,1.30473-.114,3.44534-4.30629,1.54773-6.61769,1.60284-9.79634.23356-9.79988.09962-9.79938-9.89311.00021-4.49215.09793-8.9873-.03589-13.47533-.08057-2.70221.84714-4.05621,3.67683-4.01092,3.15958.05058,6.32231-.03736,9.48259.02632,1.47559.02973,3.49208-.1129,3.601,1.78269.13379,2.32939-2.06538,1.46383-3.38947,1.661C250.49258,100.96089,248.14587,99.9995,245.98721,101.21427Z" transform="translate(-0.77649 -0.07022)"/><path class="cls-7" d="M202.099,121.10134c1.19435.82391,3.76082.125,3.31181,2.76126-.44077,2.58786-2.606,1.34251-4.04761,1.54054a15.23886,15.23886,0,0,1-3.97459.00283c-1.50293-.19326-3.51952.9797-4.38823-1.1105-.83-1.997,1.106-2.29955,2.2403-3.14564,1.07172-.79942.56335-2.15592.57765-3.26373.05354-4.1496.13663-8.30489-.028-12.44863-.08009-2.01536,1.30974-4.89547-2.445-5.44836-.31509-.04639-.62981-1.44388-.59744-2.19878.05435-1.26849,1.09158-1.48812,2.15707-1.49135,1.99211-.006,3.99394-.13119,5.97336.02541,1.66705.13188,3.99545-1.00027,4.75287,1.428,1.00143,3.21059-2.70744,2.06509-3.65935,3.55388A59.5085,59.5085,0,0,0,202.099,121.10134Z" transform="translate(-0.77649 -0.07022)"/><path class="cls-13" d="M168.94191,21.24149a58.88254,58.88254,0,0,1-6.00972,4.20524c-7.76085,4.15-11.95459,10.87361-14.24037,19.06557a3.32308,3.32308,0,0,1-1.23737,1.58068c-.98216.51667-1.79268.42456-2.32509-.65734-1.8362-6.92394.3745-13.15313,3.29919-19.25925.96625-3.32081,4.93735-2.93446,6.62094-5.3806.48782-.49915.99075-.97983,1.50537-1.453a6.47132,6.47132,0,0,1,3.7832-2.01929C163.49834,17.98429,166.66779,18.632,168.94191,21.24149Z" transform="translate(-0.77649 -0.07022)"/><path class="cls-14" d="M62.94,123.17948a6.92278,6.92278,0,0,1-4.04679,1.982c-4.04259-1.24579-1.5101-4.91628-2.67721-7.12234.08875-.76685-1.03308-.0294-.38-.16333.32743-.06714.42717.032.38831.30982-.29563,2.11381-.54056,4.29-3.4987,2.23154-.6773-2.88361,1.38309-5.109,1.84348-7.72126.70355-2.09582,1.797-4.05273,2.19989-6.25938,1.74767-2.861,1.5903-6.77829,4.86771-8.79514,2.25088.131,3.23483,1.67024,3.40436,3.57651a131.1513,131.1513,0,0,1,.08974,18.25092C65.04913,121.08655,63.793,122.01493,62.94,123.17948Z" transform="translate(-0.77649 -0.07022)"/><path class="cls-15" d="M88.00417,91.52339l-.26658,1.642a10.3004,10.3004,0,0,0-1.712,4.45755c-1.37439,3.98381-2.93517,7.866-5.96874,10.945a4.728,4.728,0,0,1-2.132-3.73395c-.61942-6.5228-1.36764-13.06786.54424-19.52294a4.03523,4.03523,0,0,1,1.17561-1.3028c2.936-.68081,5.882-.231,9.33356-.31273A34.45018,34.45018,0,0,0,88.00417,91.52339Z" transform="translate(-0.77649 -0.07022)"/><path class="cls-11" d="M268.86356,97.32809c1.91141,5.05817.58954,10.29613.768,15.44131.256,7.3802.06519,7.387,7.22549,7.42463.49542.00261.99185-.02086,1.48608.00366,3.80423.1888,3.92.41423,2.5239,4.84663-4.34152-.95624-8.73724-.301-13.10211-.34508-2.79062-.02818-3.90494-1.05478-3.88916-3.79582.03735-6.47976-.03168-12.9605.03793-19.44024.01761-1.63931-.07132-3.60457,2.29074-3.699,2.6463-.10582,2.11853,2.02384,2.13574,3.57735.05338,4.81809.0192,9.6371.01947,13.92583C268.74744,109.64682,267.77707,103.45948,268.86356,97.32809Z" transform="translate(-0.77649 -0.07022)"/><path class="cls-16" d="M28.78695,121.44688a12.08355,12.08355,0,0,1-4.94425-3.28154c-1.43657-2.58472-1.43495-5.40967-1.42667-8.25122.01744-5.98938.0632-11.97954-.02537-17.968-.03374-2.28156.22815-4.80016-2.612-5.88558-.68412-.54439-1.3512-1.098-.86529-2.11762,3.35578-.65366,6.75765-.0205,10.123-.35863a2.09194,2.09194,0,0,1,2.09514.88542,1.91753,1.91753,0,0,1-.504,2.06793,14.08073,14.08073,0,0,1-1.753,1.17331c-1.60494,2.65773-.15539,5.72633-1.14509,8.45879-.126.34793-.25277.58658-.29919.74529.1512-.05381.30239-.10761.46731-.16939a2.13957,2.13957,0,0,1,1.227.2585c1.26164,2.15427,2.37347,4.34015,1.68622,6.96512-2.77628,4.60812-1.30744,9.73261-1.75886,14.61938C28.964,119.54006,29.53321,120.54939,28.78695,121.44688Z" transform="translate(-0.77649 -0.07022)"/><path class="cls-17" d="M18.88129,84.18058l.99326.97123a6.609,6.609,0,0,1,1.53023,4.57643c.12113,6.57949.18629,13.16228-.04266,19.73766-.06277,1.80276.311,4.14864-2.45165,4.67208a24.36041,24.36041,0,0,1-5.82722-7.0198c.68224-6.07648.23307-12.17162.30193-18.25822.01842-1.62856-.43828-3.29553.386-4.8613C15.49191,83.57244,17.20706,83.30506,18.88129,84.18058Z" transform="translate(-0.77649 -0.07022)"/><path class="cls-18" d="M52.92435,120.01508c3.36875,1.69682,1.95779-2.49721,3.50331-2.89774,2.145,2.29576.48039,5.70485,2.4656,8.0442-6.15621,3.45264-12.45017,5.03582-19.128,1.40948-3.77547-3.004-3.91474-4.1889-1.01421-8.55253,2.73034-1.1587,4.19094,1.17786,6.02869,2.31079,1.97805,1.21943,3.29963,1.242,3.91684-1.296a2.7072,2.7072,0,0,1,1.98309-.64434A2.7751,2.7751,0,0,1,52.92435,120.01508Z" transform="translate(-0.77649 -0.07022)"/><path class="cls-19" d="M71.98711,117.19769a16.58729,16.58729,0,0,1-6.01165,4.31268c-.79008-7.91342-.33539-15.85182-.48338-23.77816-.03956-2.11871.36491-4.48263-2.51195-5.27171-1.49071-1.68156-.40761-3.43314-.15849-5.16856a6.32,6.32,0,0,1,1.65714-2.7291,3.81958,3.81958,0,0,1,2.24322-.884c2.72713.14925,5.48081-.38181,8.18845.31975.37862,1.49323-.7746,1.89646-1.7267,2.44527a2.479,2.479,0,0,0-1.807,2.61752C71.60987,98.43946,70.60611,107.84429,71.98711,117.19769Z" transform="translate(-0.77649 -0.07022)"/><path class="cls-20" d="M18.91047,114.138c1.9681-2.69526.82682-5.76277.90527-8.639.18488-6.77788.059-13.56422.05881-20.34713,2.949-.36889,4.11217.77255,4.05786,3.88549-.16935,9.70692-.07923,19.41837-.08971,29.128A15.96082,15.96082,0,0,1,18.91047,114.138Z" transform="translate(-0.77649 -0.07022)"/><path class="cls-21" d="M137.87936,22.13078c.82364-.51531,1.50481-1.3555,2.641-1.15817,3.16064.72956,5.96632,1.99537,7.602,5.03079-1.44263,2.26876-3.98315,2.68739-6.19774,3.62526-3.4483,1.46036-7.00758,2.68237-10.06424,4.95a2.89731,2.89731,0,0,1-1.5677-.00165c-2.621-1.67548-2.06374-4.09534-1.52734-6.51032.71625-1.1951.783-2.97374,2.74217-3.0521C133.67783,24.1559,135.69449,22.95748,137.87936,22.13078Z" transform="translate(-0.77649 -0.07022)"/><path class="cls-22" d="M63.05632,92.15528c1.19364.09165,3.35031-2.65051,3.436.59071.25333,9.58626,1.48009,19.21342-.51682,28.76435A4.26487,4.26487,0,0,1,62.94,123.17948c1.85039-7.48891.66083-15.09463.81009-22.64626.02882-1.45816-1.21287-2.23758-2.69373-2.37743-1.10709-1.97834.45988-3.443.97478-5.11328A2.29238,2.29238,0,0,1,63.05632,92.15528Z" transform="translate(-0.77649 -0.07022)"/><path class="cls-23" d="M18.88129,84.18058l-4.9936-.00264c-1.04816.91385-2.52406.64671-2.16435,3.47108a168.84943,168.84943,0,0,1,1.016,18.81693C7.492,99.58062,5.14175,91.68859,4.63914,83.15437l.38806-.08288c.29554-.41823.577-.38963.84611.02674l22.89845-.05242c.9564-.26566,1.26479.20332,1.21828,1.07463Z" transform="translate(-0.77649 -0.07022)"/><path class="cls-24" d="M268.86356,97.32809v21.79656l-.98886-.00175c0-5.76888.03174-11.53806-.02557-17.30637-.01212-1.2175.53662-3.15587-1.28769-3.26139-2.36276-.13667-1.63174,2.06161-1.64938,3.35815-.08362,6.14444.052,12.29253-.07751,18.43537-.05734,2.72154.83847,4.29526,3.67459,3.758,3.83542-.72659,8.12482,1.95181,11.69089-1.69.42459-.43362.37329,1.71324.667,2.62766-4.9509.119-9.90482.16966-14.8515.38518-2.58115.11244-2.96289-1.24811-2.93832-3.38516.076-6.624.331-13.268-.07343-19.868C262.70395,97.28409,264.01443,95.45779,268.86356,97.32809Z" transform="translate(-0.77649 -0.07022)"/><path class="cls-25" d="M72.87531,85.15181a2.07748,2.07748,0,0,0,1.99519-.9655,5.488,5.488,0,0,1,4.99757-.002q.005.48344.00663.96692c-2.17845.90314-2.58385,2.64141-2.55746,4.81326.06812,5.606-.10741,11.217.08945,16.81987a11.7357,11.7357,0,0,1-1.42844,6.63625,6.22054,6.22054,0,0,1-2.92,2.815c-1.548.27433-1.57208-.9675-1.58272-1.83846-.10643-8.71165-.21384-17.42467.0468-26.13552A4.98738,4.98738,0,0,1,72.87531,85.15181Z" transform="translate(-0.77649 -0.07022)"/><path class="cls-26" d="M176.90483,85.07815c4.68419,10.81415.44121,19.6743-6.134,28.024-4.86731-.76414-5.27917-1.63694-3.036-6.40964,2.11775-3.28278,5.93912-5.43776,6.468-9.77814a13.58207,13.58207,0,0,0,1.38963-6.85168,16.67664,16.67664,0,0,1,.17566-3.009A3.11143,3.11143,0,0,1,176.90483,85.07815Z" transform="translate(-0.77649 -0.07022)"/><path class="cls-20" d="M72.87531,85.15181q.09146,15.54189.18291,31.08377l-1.07108.9621c-2.077-.87613-2.12812-2.66533-2.12214-4.543.02513-7.89474.03956-15.78977-.0081-23.6843C69.84382,86.80366,69.94131,84.90525,72.87531,85.15181Z" transform="translate(-0.77649 -0.07022)"/><path class="cls-27" d="M166.92786,69.17708c2.8909,2.92459,5.893,5.77176,6.94763,9.97526-4.79073.34419-8.25626-3.51552-12.78055-4.01682-2.49471-1.08614-3.6593-3.59132-5.61707-5.25807a9.52788,9.52788,0,0,1-1.3141-1.716,4.2316,4.2316,0,0,1-.614-3.51136c3.24933-1.55984,5.32324,1.52222,8.0461,2.10466A17.44885,17.44885,0,0,1,166.92786,69.17708Z" transform="translate(-0.77649 -0.07022)"/><path class="cls-28" d="M245.98721,101.21427c2.68263-2.64417,6.3871.23225,9.29405-2.79908-4.72505,0-9.462-.19-14.16847.10595-1.58743.09984-1.21146,2.12747-1.219,3.397-.0365,6.16563.07932,12.33376-.05971,18.49648-.06339,2.80967.9617,3.88789,3.77557,3.77278a94.26978,94.26978,0,0,0,11.61919-.67893c-2.87553-2.28862-6.321-.57922-9.28273-2.35151h10.73421c.88083,3.179-.06607,4.578-3.60564,4.32731-3.80788-.26975-7.65189-.14388-11.47551-.03218-2.14583.06269-2.932-.71611-2.883-2.88487.19131-8.46775.25661-16.93835.36874-25.4079a67.40811,67.40811,0,0,1,17.79724-.01085c1.03265,3.24656-.21787,4.51374-3.52388,4.26244C250.91042,101.22483,248.44489,101.27136,245.98721,101.21427Z" transform="translate(-0.77649 -0.07022)"/><path class="cls-29" d="M28.78695,121.44688c-2.37825-4.67884-1.22336-15.71344,1.91456-18.29307a2.97216,2.97216,0,0,1,1.38338,1.57607c.81123,2.22944,2.325,4.207,2.44307,6.694-.00534,3.13823-.45344,6.25685-.305,9.40849.05248,1.11439.54617,2.95587-1.812,2.49746A6.1256,6.1256,0,0,1,28.78695,121.44688Z" transform="translate(-0.77649 -0.07022)"/><path class="cls-30" d="M135.77258,110.9375q4.46981-4.58762,8.93965-9.17522c1.95924,1.42921,4.03589,2.75764,4.61971,5.37588-.39455,3.38178-2.36644,5.59191-5.27493,7.113C138.039,116.93589,136.79938,116.43853,135.77258,110.9375Z" transform="translate(-0.77649 -0.07022)"/><path class="cls-31" d="M130.8076,46.26474a11.43876,11.43876,0,0,1-3.928-5.13022c-.81264-2.96511,1.14375-2.37808,2.59969-1.84325a29.56407,29.56407,0,0,0,8.40038,2.25067c2.92819,1.04155,4.6564,3.54148,6.76846,5.57219.81743,1.66451,2.86969.12968,3.82178,1.45678.76709,1.50453.56773,3.15993.76894,4.75287.10208.9317.397,1.834.437,2.77671a2.21677,2.21677,0,0,1-1.29507,2.312c-1.07823.00031-1.6463-.74208-2.20239-1.50475a26.23912,26.23912,0,0,1-1.28419-2.356c-.404-.78-.78835-1.57166-1.23964-2.32906C140.052,48.75836,135.45729,47.45243,130.8076,46.26474Z" transform="translate(-0.77649 -0.07022)"/><path class="cls-32" d="M75.97824,113.42057c-.03412-8.1192.0436-16.2412-.15913-24.35619-.07771-3.11095,1.07914-4.28935,4.05559-3.91319-1.84768,7.82043-1.33655,15.62251.18216,23.41672A11.49071,11.49071,0,0,1,75.97824,113.42057Z" transform="translate(-0.77649 -0.07022)"/><path class="cls-15" d="M12.73939,106.46595c-3.967-6.9352-.45262-14.80377-2.7498-22.2886,1.30464,0,2.60119,0,3.89792.00029,1.09968,7.695,2.58334,15.40318-.80426,22.94054A.50372.50372,0,0,1,12.73939,106.46595Z" transform="translate(-0.77649 -0.07022)"/><path class="cls-33" d="M160.94394,74.11142c4.82387.36338,8.72256,3.10013,12.93155,5.04092,1.49289,1.7283,2.85762,3.52212,3.02933,5.92582q-.01488,1.03759-.02982,2.07518c-3.26335-.76383-5.7027-3.81035-9.39822-3.38319C164.27457,81.24532,161.14331,78.66835,160.94394,74.11142Z" transform="translate(-0.77649 -0.07022)"/><path class="cls-34" d="M155.87561,121.152c-3.09312,1.81485-6.67775,1.96256-10.0141,2.95237-3.30768-2.43584-7.89774-1.75727-11.455-4.41909,3.1945-2.89966,7.18394-2.09545,10.43579-3.49863a4.08768,4.08768,0,0,1,2.94077-.59175C150.27037,117.74784,154.70518,117.07645,155.87561,121.152Z" transform="translate(-0.77649 -0.07022)"/><path class="cls-35" d="M148.88075,107.12472c-.92221-2.15056-4.36247-2.34366-4.16843-5.36224q2.03943-2.85212,4.079-5.70387c2.20274.04406,4.446.29138,6.33463-1.26422a1.45673,1.45673,0,0,1,1.17572.70119C155.4109,100.38271,154.38312,105.1824,148.88075,107.12472Z" transform="translate(-0.77649 -0.07022)"/><path class="cls-36" d="M155.72075,81.08242c-1.88565-7.24936-6.791-12.68572-11.09622-18.48248q-1.61591-2.17574-3.22771-4.35453c.911-.82447,1.75682-.33625,2.60736.12017a27.91045,27.91045,0,0,1,4.37019,4.4377,28.36126,28.36126,0,0,0,4.32759,5.1368,52.39039,52.39039,0,0,0,5.44641,6.74109,19.295,19.295,0,0,1,.2328,13.141,1.36526,1.36526,0,0,1-1.4982.52992C154.977,86.17216,155.61948,83.58406,155.72075,81.08242Z" transform="translate(-0.77649 -0.07022)"/><path class="cls-37" d="M32.411,123.32983c1.28927-3.9904-.47022-8.366,1.54938-12.2641,3.19978,1.33254,5.38682,3.53062,6.02641,7.05125-3.04451,2.74015-2.53682,5.57337-.2215,8.454A18.81268,18.81268,0,0,1,32.411,123.32983Z" transform="translate(-0.77649 -0.07022)"/><path class="cls-38" d="M145.8714,117.11562c-3.04764,1.91116-6.83481,1.01441-10.79019,2.88022,4.61876.12056,8.52592.23178,10.78049,4.10909q-2.50406.49952-5.00774,1.00006c-2.90012-1.53612-6.28922-1.95317-8.99632-3.931-1.44449-2.0025-1.63474-4.01415-.044-6.03879a11.70708,11.70708,0,0,0,10.35651.26C143.79248,115.13649,145.13834,115.47074,145.8714,117.11562Z" transform="translate(-0.77649 -0.07022)"/><path class="cls-39" d="M147.8716,25.99685c-2.23338-1.99163-5.72217-2.14646-7.35078-5.024a30.739,30.739,0,0,1,8.30347-2.84971c2.64339.30944,4.807,1.73366,7.028,3.02464-1.12115,3.3879-5.08925,2.73083-7.033,4.95A.60983.60983,0,0,1,147.8716,25.99685Z" transform="translate(-0.77649 -0.07022)"/><path class="cls-40" d="M168.774,106.84524c-2.19852,2.99972-1.72777,5.14754,1.99687,6.25689-.98261,2.21318-3.47963,2.50972-5.0446,3.98588-2.12273,1.25194-3.86694.53122-5.4554-1.03663-.90875-1.2099-1.99976-2.35162-1.65494-4.07293C161.54259,109.36376,164.48766,106.77681,168.774,106.84524Z" transform="translate(-0.77649 -0.07022)"/><path class="cls-41" d="M147.74782,63.1879a12.69178,12.69178,0,0,1-3.94653-3.97828c1.734-2.91233,3.1891.52567,4.81116.20242A7.53188,7.53188,0,0,1,150.244,60.46a3.4331,3.4331,0,0,0,3.37161.85,11.2762,11.2762,0,0,1,4.62828.86635,14.77058,14.77058,0,0,1,4.83,2.89562,11.60793,11.60793,0,0,1,3.85391,4.10484c-4.88034.37563-8.49831-3.34329-13.05292-4.0244C151.10251,66.77452,149.59329,64.45682,147.74782,63.1879Z" transform="translate(-0.77649 -0.07022)"/><path class="cls-24" d="M362.84525,97.26447c-2.72852,1.824-5.7821.80247-8.655.79832-3.09406-.00448-4.50461.77425-4.37732,4.16637.22269,5.9334.22055,11.88705.00046,17.82065-.12476,3.3647,1.22842,4.23363,4.35455,4.18481,2.54025-.03969,5.27753-.9491,7.66834.79235a45.52669,45.52669,0,0,1-12.95041-.022,172.58912,172.58912,0,0,1-.07474-27.9397l-.0224.0229a36.8037,36.8037,0,0,1,12.26511-.006Z" transform="translate(-0.77649 -0.07022)"/><path class="cls-42" d="M168.79857,12.01677c.98592-.58719,1.98135-1.159,2.956-1.76437,3.26543-2.02812,5.39516-1.69488,7.05841,2.29112,1.901,4.55571-1.96909,3.76546-3.83484,4.91234C172.96815,15.58615,169.29337,15.60792,168.79857,12.01677Z" transform="translate(-0.77649 -0.07022)"/><path class="cls-43" d="M168.94191,21.2415l-9.0744-3.11268c.90726-2.086-2.15932-1.47317-2.04939-3.01765A22.50245,22.50245,0,0,1,167.88184,12.135c.57532,1.66335-1.1602,1.914-1.71747,2.8725.177,2.56,4.8362,1.92134,3.78455,5.3174Z" transform="translate(-0.77649 -0.07022)"/><path class="cls-44" d="M163.07393,65.072c-2.013.1184-3.47885-1.24194-5.19614-1.92272a7.35428,7.35428,0,0,0-6.03423-1.62968,4.07734,4.07734,0,0,1-1.61053-1.20776,2.83989,2.83989,0,0,1-.6821-3.14727c3.12874-3.22045,5.5475,1.23278,8.421.78178C160.11537,60.0045,162.305,62.02962,163.07393,65.072Z" transform="translate(-0.77649 -0.07022)"/><path class="cls-45" d="M141.96947,116.12568c-3.5643,1.50543-7.21661,3.91319-10.15585-.99048a13.32036,13.32036,0,0,1,3.959-4.1977c1.636,4.79078,4.74786,4.19495,8.22815,2.2543C144.50677,114.98891,142.8468,115.28636,141.96947,116.12568Z" transform="translate(-0.77649 -0.07022)"/><path class="cls-46" d="M335.64,124.2284c3.961.48788,5.63077-.94751,5.32669-5.21937a122.08793,122.08793,0,0,1-.0116-15.87134c.23114-3.88924-.98447-5.622-4.95392-4.99516l.15738-.96723a6.82379,6.82379,0,0,1,5.5018-.00639c.10117,8.46268.54691,16.94059.174,25.38232C341.61127,127.60124,338.19034,125.34484,335.64,124.2284Z" transform="translate(-0.77649 -0.07022)"/><path class="cls-47" d="M79.86806,84.18428q-2.49874.00061-4.99752.00163-4.36728-.01717-8.73448-.03514-.46415-.32661-.29574-.63226.16469-.3.32673-.30029,11.78069.03026,23.5614.061a18.06213,18.06213,0,0,1-1.72427,8.244c-.25813-2.28829-2.28262-4.5392.53019-7.33894Z" transform="translate(-0.77649 -0.07022)"/><path class="cls-48" d="M138.07442,41.70834c-2.91444,1.99353-5.32976-.16563-7.95731-.864-.99135-.26348-2.46708-2.75691-3.2375.2902-1.7844-1.59133-1.71526-3.32987-.41042-5.16657,3.15451-.56293,5.334,2.281,8.30655,2.36237C136.21957,39.11733,138.51581,39.0838,138.07442,41.70834Z" transform="translate(-0.77649 -0.07022)"/><path class="cls-49" d="M155.87561,121.152c-2.09882-2.67-6.49379-1.67979-8.12425-5.09644.08359-1.46983,1.15193-1.52776,2.23683-1.569a35.4242,35.4242,0,0,1,12.053,4.83279A12.09347,12.09347,0,0,1,155.87561,121.152Z" transform="translate(-0.77649 -0.07022)"/><path class="cls-50" d="M165.11414,14.24l2.76755-2.10484a1.17509,1.17509,0,0,1,.917-.11841c1.45227,2.50308,5.74983,1.77345,6.17938,5.43891q-.52611.36869-1.05228.737C169.94554,19.20037,167.061,17.76544,165.11414,14.24Z" transform="translate(-0.77649 -0.07022)"/><path class="cls-51" d="M148.14928,54.107q-.20185-2.9818-.40369-5.96361a2.07421,2.07421,0,0,1,.20634-2.93563q.36974-.34819.73969-.6959.48006.84567.95969,1.69041c-.65269,2.12253.31064,3.266,2.29623,3.79013a13.14568,13.14568,0,0,1,3.7317,5.52317C152.85757,56.71223,150.65855,54.58033,148.14928,54.107Z" transform="translate(-0.77649 -0.07022)"/><path class="cls-52" d="M154.99443,95.22031c-1.54269,4.16394-3.84073,2.739-6.20308.83833q1.60529-2.90308,3.21056-5.8061c1.89955-.54184,3.01622.65641,4.13469,1.8572C156.52943,93.42957,155.74124,94.31732,154.99443,95.22031Z" transform="translate(-0.77649 -0.07022)"/><path class="cls-53" d="M131.85764,121.174c3.51591.12777,6.66527,1.09429,8.99661,3.93145C132.79581,126.50447,132.79581,126.50447,131.85764,121.174Z" transform="translate(-0.77649 -0.07022)"/><path class="cls-54" d="M148.82179,60.18139c-1.9081.88939-3.0853-1.9928-5.01964-.97219q-1.2019-.48064-2.40369-.963-1.79471-1.98727-3.58612-3.97287c-.11874-2.20817,1.41385-1.77446,2.53436-1.38274a23.061,23.061,0,0,1,6.478,3.28172l1.06247,1.963C148.59877,58.63465,149.464,59.06373,148.82179,60.18139Z" transform="translate(-0.77649 -0.07022)"/><path class="cls-55" d="M155.68236,92.02924c-1.64122.265-2.38635-1.32571-3.68089-1.7772q1.86019-4.58429,3.71939-9.1696a14.34162,14.34162,0,0,1,1.04219,7.06524C157.01395,89.61168,157.20717,91.05962,155.68236,92.02924Z" transform="translate(-0.77649 -0.07022)"/><path class="cls-56" d="M130.8076,46.26474c3.63518-1.124,11.41013,2.13079,14.06583,5.88827-2.41025,1.50543-4.281-.18956-6.296-1.04576q-3.424-1.97036-6.88283-3.89044Z" transform="translate(-0.77649 -0.07022)"/><path class="cls-11" d="M348.8111,97.06527q.0374,13.96991.07474,27.93976c-1.80933-4.55056-.70929-9.292-.71762-13.92234C348.15982,106.42133,347.12241,101.66149,348.8111,97.06527Z" transform="translate(-0.77649 -0.07022)"/><path class="cls-57" d="M148.14926,54.107c2.82442-1.21106,5.06834.68113,7.53006,1.40858,1.27182.33138,1.76332,1.39882,2.29257,2.43074-2.98886,2.7867-5.16718-2.52434-8.04916-.80566-.629-.07935-.69568-.68534-1.00046-1.06836Z" transform="translate(-0.77649 -0.07022)"/><path class="cls-58" d="M162.0412,119.31945c-4.47081-.09834-8.06981-2.77789-12.12852-4.09636a3.81471,3.81471,0,0,1,4.024-1.75668c3.76212.82293,6.93842,2.88159,10.15828,4.84923Z" transform="translate(-0.77649 -0.07022)"/><path class="cls-59" d="M225.83955,97.30236c-4.52473,1.7643-9.23778.44144-13.84554.84457-.143-1.236.43082-1.839,1.65141-1.81129C217.728,96.42828,221.86768,95.81252,225.83955,97.30236Z" transform="translate(-0.77649 -0.07022)"/><path class="cls-60" d="M155.85223,21.14782c-2.96735.44333-5.40712-.33916-7.02794-3.02463a3.86431,3.86431,0,0,1,2.90868-1.07245c2.49776-.27795,4.95729-.49239,5.1317,3.08918Z" transform="translate(-0.77649 -0.07022)"/><path class="cls-61" d="M156.86467,20.13992c-1.03458-2.15256-3.09921-2.5939-5.13161-3.08907a13.88505,13.88505,0,0,1,6.08517-1.93959c1.0061.78652,3.27409.7163,2.04932,3.01774Q158.36607,19.13428,156.86467,20.13992Z" transform="translate(-0.77649 -0.07022)"/><path class="cls-62" d="M134.79558,39.15733c-3.394.55219-5.724-1.67344-8.32616-3.18929q.26992-.85532.54028-1.71052c1.25-.98861,2.56651.81865,3.81837-.09091q.435-.01524.87029-.01579C134.18411,34.92057,135.47559,36.42913,134.79558,39.15733Z" transform="translate(-0.77649 -0.07022)"/><path class="cls-63" d="M146.82472,56.17236c-3.31023.81973-5.56456-3.37169-9.01237-1.899l-4.20889-5.02844c1.25365-1.17205,2.26978-.24426,3.31984.37331,2.55876,2.33431,6.12746,2.68767,8.93217,4.54262Q146.3401,55.16662,146.82472,56.17236Z" transform="translate(-0.77649 -0.07022)"/><path class="cls-24" d="M202.099,121.10134c-2.5547-6.51391-.81174-13.23994-.96341-19.872-.00116-.05057.26595-.16212.396-.14658a1.41906,1.41906,0,0,1,.44019.22345Q202.0354,111.20378,202.099,121.10134Z" transform="translate(-0.77649 -0.07022)"/><path class="cls-64" d="M165.11414,14.24a15.15264,15.15264,0,0,0,8.81166,3.95265,7.44151,7.44151,0,0,1-3.97716,2.13177c-.92154-2.30809-3.28525-2.648-5.11845-3.66918C162.745,15.49375,163.34346,14.84683,165.11414,14.24Z" transform="translate(-0.77649 -0.07022)"/><path class="cls-7" d="M256.88217,97.14846l-17.79727.01085A37.43531,37.43531,0,0,1,256.88217,97.14846Z" transform="translate(-0.77649 -0.07022)"/><path class="cls-65" d="M164.095,118.31564a42.39318,42.39318,0,0,1-10.20416-4.11366,2.0167,2.0167,0,0,1,2.12373-1.48614c1.9572.19273,3.39079,1.36872,4.8075,2.57612a5.74717,5.74717,0,0,0,4.90425,1.79606C165.628,118.08923,164.81975,118.147,164.095,118.31564Z" transform="translate(-0.77649 -0.07022)"/><path class="cls-66" d="M130.82808,34.16661c-1.19359,3.36027-2.55283-.24169-3.81842.09088.56972-2.06806.41167-4.34253,1.75571-6.19089C128.82039,30.31389,128.77242,32.59595,130.82808,34.16661Z" transform="translate(-0.77649 -0.07022)"/><path class="cls-67" d="M211.9991,124.15926c3.33618.41691,5.50087-.38144,4.91371-4.42165-.18115-1.24643-.30025-2.67093,1.02837-3.57445.02373,1.8116.09314,3.624.06218,5.43464C217.92555,126.14981,216.6951,126.66587,211.9991,124.15926Z" transform="translate(-0.77649 -0.07022)"/><path class="cls-59" d="M302.07974,97.78706c-2.25015,1.15927-4.29788.60065-6.25381-.73691C298.03455,96.24323,300.27536,95.16345,302.07974,97.78706Z" transform="translate(-0.77649 -0.07022)"/><path class="cls-11" d="M361.0538,97.08213q-6.13239.00317-12.26492.0062C352.87634,95.59333,356.9649,96.021,361.0538,97.08213Z" transform="translate(-0.77649 -0.07022)"/><path class="cls-68" d="M292.94974,119.64454c3.57224-2.49318,7.20682-2.09628,10.873-.23439Q298.3862,119.52741,292.94974,119.64454Z" transform="translate(-0.77649 -0.07022)"/><path class="cls-69" d="M305.66254,123.5195c2.028-.534,4.216,1.70463,6.15594-.35527.532.85267,1.1994,2.15194-.3884,2.09782C309.46021,125.1949,306.68173,126.9477,305.66254,123.5195Z" transform="translate(-0.77649 -0.07022)"/><path class="cls-68" d="M372.72778,115.11325a10.68042,10.68042,0,0,1-.05441-8.9006A19.60516,19.60516,0,0,1,372.72778,115.11325Z" transform="translate(-0.77649 -0.07022)"/><path class="cls-70" d="M136.87183,50.1539q-1.63419-.45455-3.26839-.909-.95437-1.014-1.9088-2.02806c2.5806.52024,5.22145.89307,7.18036,2.93454A1.34311,1.34311,0,0,1,136.87183,50.1539Z" transform="translate(-0.77649 -0.07022)"/><path class="cls-71" d="M286.08563,122.2c.54041,2.77531,3.81293.6353,4.77408,2.65363C285.12894,125.9281,285.07169,125.89627,286.08563,122.2Z" transform="translate(-0.77649 -0.07022)"/><path class="cls-72" d="M137.87936,22.13078a9.29693,9.29693,0,0,1-6.37158,2.88389A9.27627,9.27627,0,0,1,137.87936,22.13078Z" transform="translate(-0.77649 -0.07022)"/><path class="cls-73" d="M151.94754,49.99237c-3.88925.62945-3.49068-1.339-2.29613-3.7899Q150.79937,48.09718,151.94754,49.99237Z" transform="translate(-0.77649 -0.07022)"/><path class="cls-7" d="M341.6604,97.16892l-5.50183.00639A4.01543,4.01543,0,0,1,341.6604,97.16892Z" transform="translate(-0.77649 -0.07022)"/><path class="cls-74" d="M231.72194,108.11551a3.73567,3.73567,0,0,1-.04929-4.90759A9.02856,9.02856,0,0,1,231.72194,108.11551Z" transform="translate(-0.77649 -0.07022)"/><path class="cls-47" d="M86.02563,97.62291c-.2684-1.80807-.18654-3.48161,1.712-4.45751A8.12827,8.12827,0,0,1,86.02563,97.62291Z" transform="translate(-0.77649 -0.07022)"/><path class="cls-75" d="M5.87331,83.09823,5.447,83.179l-.42015-.10729Q4.99678,60.601,4.966,38.13085c7.52177-.25211,14.96155-2.578,22.59268-.57231a14.01683,14.01683,0,0,0,6.91938-.0197,29.32316,29.32316,0,0,1,12.3413-.659c9.12025,1.52069,18.11675-.58117,27.16365-.14156,5.25329.25527,10.4686.92871,15.70014,1.42337q.03045.49113.06049.98222c-5.27811.546-10.69391-1.10154-15.8738.999a15.75977,15.75977,0,0,1-13.98161-.00742c-2.76516-2.28-5.47661-.31385-8.20765.1038a7.65533,7.65533,0,0,1-7.53011.04166,13.72994,13.72994,0,0,0-11.33216-.16635c-1.62109,1.532-3.55836,1.37329-5.5287,1.05033a13.95813,13.95813,0,0,0-7.82786.00069c-1.97522.32819-3.9182.4771-5.54-1.047C7.127,37.75772,5.8796,38.54455,5.87654,45.223Q5.86786,64.16064,5.87331,83.09823Z" transform="translate(-0.77649 -0.07022)"/><path class="cls-76" d="M32.79375,41.35362c-2.1177,3.48869-.623,7.31748-1.01432,10.97041-.39837,3.71867-.38492,7.58664-4.92083,9.01537a18.62292,18.62292,0,0,1-6.96177.04208c-2.72379-.86338-3.91285-3.08952-4.88836-5.50527-1.60165-4.63308.20363-9.50494-.99283-14.16642l.0077-.15869c1.61942-1.69074,3.65145-.57856,5.48284-.80919A1.76622,1.76622,0,0,1,20.40741,42.05c-.22953,3.937-.20211,7.88313-.16036,11.82019.127,2.05745.70437,3.97952,2.99938,4.36716,2.28946.38672,2.9042-1.52455,3.48933-3.24048A20.74166,20.74166,0,0,0,26.47,41.98277a1.4122,1.4122,0,0,1,.82671-1.26076C29.13154,40.933,31.09727,39.97486,32.79375,41.35362Z" transform="translate(-0.77649 -0.07022)"/><path class="cls-77" d="M80.71222,51.82889c-1.28391,3.96751-2.12207,8.344-7.68958,8.38153-.95217.54669-1.79356.59658-2.37373-.52714.6537-2.32159,3.31643-3.05651,4.12966-5.24735a7.702,7.702,0,0,0,.11584-6.732,5.3218,5.3218,0,0,0-3.3308-3.33413c-1.5218-.3354-2.97594-1.3702-4.6013-.37653a3.65358,3.65358,0,0,0-.6274,1.05375c-.04172,4.10643-.86826,8.235.609,12.25095.49963.8569,1.41557,1.56051,1.0139,2.74583-2.09.73543-4.21212,1.63719-5.6338-1.08778-.90482-3.69405-.33911-7.447-.40634-11.16951a12.07,12.07,0,0,0-1.31043-6.09287c4.33052-2.03291,8.82484-.85659,13.2679-.68192,3.91655,1.45023,5.93913,4.46386,6.89753,8.35593A1.49769,1.49769,0,0,1,80.71222,51.82889Z" transform="translate(-0.77649 -0.07022)"/><path class="cls-78" d="M37.72829,47.15057c.67316-3.36979,2.977-5.09847,6.07074-6.03223a18.45475,18.45475,0,0,1,8.41154-.10286c.84959.05307,1.84447.18464,1.49716,1.31589-.45188,1.47189-1.481.61051-2.34727.33248-4.5399-1.45715-7.7962-.23119-9.33721,4.52091.33078,2.32363-.334,4.6319-.10724,6.95392.18076,2.56918,1.33061,4.35811,3.97827,4.94108,1.65477-.06647,3.30947-.084,4.964.00813,1.66259.41639,2.17542-1.93526,4.071-1.57082-1.12465,5.5386-5.94161,4.04645-9.05545,4.23385-4.06021.24436-7.10316-2.34523-8.15734-6.61847C36.75137,52.47039,36.32812,49.80913,37.72829,47.15057Z" transform="translate(-0.77649 -0.07022)"/><path class="cls-79" d="M29.99,84.12044q-.60863-.5368-1.21777-1.07412c1.68521-5.29168,1.68521-5.29168,10.09967-2.75356,1.31409.98985,1.01727,3.3157,3.07986,3.68687.99665.54456,2.51628.69793,1.863,2.47444a4.42739,4.42739,0,0,1-2.1683.91093,36.83941,36.83941,0,0,1-7.35358-.10181,5.04306,5.04306,0,0,1-3.36208-2.22805Z" transform="translate(-0.77649 -0.07022)"/><path class="cls-80" d="M43.95622,85.84559c-.8683-.86954-1.98284-.69477-3.0504-.71923-1.18348-3.6477,1.23068-4.366,3.94255-4.842l5.02549-1.14024c2.39193,1.14771,1.06756,2.75047.53479,4.26743a3.09874,3.09874,0,0,1,.02057,1.25095A2.27338,2.27338,0,0,1,49.65,85.701a5.85635,5.85635,0,0,1-1.25331.53152C46.89949,86.30618,45.2864,87.64976,43.95622,85.84559Z" transform="translate(-0.77649 -0.07022)"/><path class="cls-81" d="M47.86192,65.21215c1.44064,3.44341,4.00549,7.13419-1.96859,8.946a2.62665,2.62665,0,0,1-3.06292.01282l-1.03149-.99971a18.76913,18.76913,0,0,1-.09013-8.05769A8.397,8.397,0,0,1,47.86192,65.21215Z" transform="translate(-0.77649 -0.07022)"/><path class="cls-82" d="M60.87179,42.15277c2.71352,1.4937,1.41458,4.07063,1.56027,6.18353.23655,3.43054.17046,6.88195.23211,10.32454q.0954,1.31314-.90348.45542c-1.78912-3.08548-.5594-6.44745-.85857-9.66958-.22662-2.44081.38954-4.98407-.9967-7.26462C60.21236,41.67107,60.53518,41.6844,60.87179,42.15277Z" transform="translate(-0.77649 -0.07022)"/><path class="cls-83" d="M18.01507,73.09a23.112,23.112,0,0,1-.13763-7.95023,9.06825,9.06825,0,0,1,5.98989-.07909l1.03018,1.08316a2.189,2.189,0,0,1-1.15645,1.57729,5.58167,5.58167,0,0,1-3.05.31332c-1.435.90237-.52165,1.67921.14336,2.44572,1.05761.58036,2.43238-.15818,3.38768.8132a1.50189,1.50189,0,0,1-.35842,1.75227.95817.95817,0,0,1-.8175.23949C21.32845,74.26892,19.64065,74.48134,18.01507,73.09Z" transform="translate(-0.77649 -0.07022)"/><path class="cls-80" d="M56.877,79.10118l3.95133,1.196c-.535,1.38254,1.42662,2.84172-.13138,4.19668a3.72064,3.72064,0,0,1-1.39143.20309c-2.34232-.48795-4.848.1621-7.08759-1.012C51.73214,80.09159,54.74089,80.03924,56.877,79.10118Z" transform="translate(-0.77649 -0.07022)"/><path class="cls-84" d="M68.55615,73.60525c-1.10831-2.55184-.58647-4.56247-.67382-6.52151-.03559-.798.01268-1.91676,1.13908-1.71458.90125.16177,2.3103,1.31928,1.72691,1.93946C69.15651,69.00082,70.70618,71.55437,68.55615,73.60525Z" transform="translate(-0.77649 -0.07022)"/><path class="cls-85" d="M61.7607,59.11627q.45181-.22762.90355-.45533c1.49626,2.1427,3.29257,1.87585,5.20847.64832a1.91057,1.91057,0,0,1,3.00446-.04749l2.14548.94864c-3.77512,2.03406-7.8635.97073-11.714.7128C59.03991,60.77124,62.4138,59.97106,61.7607,59.11627Z" transform="translate(-0.77649 -0.07022)"/><path class="cls-86" d="M63.04588,74.63365c-.13514-3.69038-.5172-6.53857.99239-9.25415C64.48862,68.23249,65.82565,71.14765,63.04588,74.63365Z" transform="translate(-0.77649 -0.07022)"/><path class="cls-87" d="M44.84837,80.2844c-2.24176.859-3.26133,2.71334-3.94294,4.84224-3.2251-.53954-1.60868-3.11612-2.03345-4.83386Z" transform="translate(-0.77649 -0.07022)"/><path class="cls-88" d="M56.877,79.10118,51.84961,83.016a1.16157,1.16157,0,0,1-1.71636.2575c-.8903-1.326,1.38113-2.85056-.2594-4.12939a.44309.44309,0,0,1,.69727-.09911,9.53027,9.53027,0,0,1,5.65816-.00546A.381.381,0,0,1,56.877,79.10118Z" transform="translate(-0.77649 -0.07022)"/><path class="cls-89" d="M23.86366,73.04563l-.0453-2.055a2.54551,2.54551,0,0,1-.00537-3.66314l1.08453-1.18368C28.14615,68.98268,27.512,71.2399,23.86366,73.04563Z" transform="translate(-0.77649 -0.07022)"/><path class="cls-90" d="M14.01564,41.70978c2.501,4.57013.71525,9.44066.99279,14.16651-.09914.31-.10333.77822-.31312.90431-1.22993.7392-.79643-.45128-.79571-.82231C13.90878,51.20873,13.96864,46.45927,14.01564,41.70978Z" transform="translate(-0.77649 -0.07022)"/><path class="cls-91" d="M60.87179,42.15277q-.48334.02124-.96672.02893-.00824-1.02258-.017-2.04611,6.99112.00352,13.98183.00732.00607.43428.00526.86881C69.55484,41.55348,65.001,39.43393,60.87179,42.15277Z" transform="translate(-0.77649 -0.07022)"/><path class="cls-92" d="M29.97287,65.17878c3.56582,1.56446,1.01275,4.76264,1.88157,7.04719l.07719-.09069a2.18933,2.18933,0,0,1-2.17815-1.00475C29.27541,69.12629,28.96677,67.12831,29.97287,65.17878Z" transform="translate(-0.77649 -0.07022)"/><path class="cls-93" d="M74.81451,70.01007c.21964-1.577-.36221-3.2759,1.11789-4.75808.97285,2.63172,1.75321,5.25305-.05665,7.98623C75.1395,72.28791,74.02252,71.46277,74.81451,70.01007Z" transform="translate(-0.77649 -0.07022)"/><path class="cls-94" d="M60.83116,83.933c.132-1.212-2.40523-2.42211-.00278-3.63583,1.958-.50374,2.66976,1.34551,3.962,2.09876.16271,2.1018-1.12556,2.51019-2.83413,2.43124A1.92114,1.92114,0,0,1,60.83116,83.933Z" transform="translate(-0.77649 -0.07022)"/><path class="cls-95" d="M56.00427,71.97831c1.20734.64036,3.05682-.88221,3.85277,1.14384a4.82792,4.82792,0,0,1-5.96188.00581l-.03472.03359a7.46587,7.46587,0,0,1,.1147-7.94575.869.869,0,0,1,.80126.02911C56.91483,67.17405,55.02894,69.83706,56.00427,71.97831Z" transform="translate(-0.77649 -0.07022)"/><path class="cls-96" d="M37.69344,72.04883c-1.89441,1.82527-3.78857,3.66685-5.76222.08566l-.0772.09068c.98541-.421,2.42446.496,3.03549-1.02851a1.7058,1.7058,0,0,1,1.0494-.63761,2.45636,2.45636,0,0,1,1.2065.36417A2.01505,2.01505,0,0,1,37.69344,72.04883Z" transform="translate(-0.77649 -0.07022)"/><path class="cls-82" d="M41.916,54.13867c-1.22068-2.33738-.86176-4.6504.10725-6.954A6.19465,6.19465,0,0,1,41.916,54.13867Z" transform="translate(-0.77649 -0.07022)"/><path class="cls-97" d="M16.07613,71.877V66.23754A6.02955,6.02955,0,0,1,16.07613,71.877Z" transform="translate(-0.77649 -0.07022)"/><path class="cls-12" d="M37.72829,47.15057q-.00589,3.99095-.01178,7.98189l-.9135-1.06232a11.74446,11.74446,0,0,1,.0588-6.90568Q37.295,47.15513,37.72829,47.15057Z" transform="translate(-0.77649 -0.07022)"/><path class="cls-98" d="M50.85827,59.08789a4.64637,4.64637,0,0,1-4.964-.00814A3.47925,3.47925,0,0,1,50.85827,59.08789Z" transform="translate(-0.77649 -0.07022)"/><path class="cls-99" d="M53.97513,65.21579q-.05735,3.97289-.11469,7.94576l-.49655.02686-.49584-.0378a13.32479,13.32479,0,0,1,.05684-7.99516Z" transform="translate(-0.77649 -0.07022)"/><path class="cls-97" d="M52.92489,65.15546q-.02837,3.99759-.05679,7.99517A7.33557,7.33557,0,0,1,52.92489,65.15546Z" transform="translate(-0.77649 -0.07022)"/><path class="cls-100" d="M52.21058,41.01548l-8.41157.10287a2.34845,2.34845,0,0,0,.35144-.83752q3.76511-.02085,7.53016-.04168A6.25384,6.25384,0,0,0,52.21058,41.01548Z" transform="translate(-0.77649 -0.07022)"/><path class="cls-101" d="M41.926,65.1789q-.0635,3.99619-.127,7.99235c-1.8833-2.49046-.51312-5.3558-.92371-8.01594A.63032.63032,0,0,1,41.926,65.1789Z" transform="translate(-0.77649 -0.07022)"/><path class="cls-102" d="M37.69344,72.04883l-.88509-.99947c-1.218-1.98848-1.37376-3.93873.20971-5.82638q.40942-.03727.82-.05771A11.44879,11.44879,0,0,1,37.945,72.178Z" transform="translate(-0.77649 -0.07022)"/><path class="cls-12" d="M41.926,65.1789q-.52537-.01183-1.05074-.02363a5.607,5.607,0,0,1,6.98668.05688Z" transform="translate(-0.77649 -0.07022)"/><path class="cls-103" d="M19.89683,61.38147l6.96177-.04208A6.74134,6.74134,0,0,1,19.89683,61.38147Z" transform="translate(-0.77649 -0.07022)"/><path class="cls-104" d="M80.71222,51.82889q.03025-1.23071.06046-2.46133c2.61235.34621,1.13248,2.9152.93912,3.15234C80.6038,53.8787,81.10275,52.07285,80.71222,51.82889Z" transform="translate(-0.77649 -0.07022)"/><path class="cls-104" d="M59.936,74.17344c-2.03224,1.91892-4.04469,1.21205-6.053-.04561A8.314,8.314,0,0,1,59.936,74.17344Z" transform="translate(-0.77649 -0.07022)"/><path class="cls-82" d="M36.86181,47.16446q-.02873,3.454-.05813,6.90685A5.836,5.836,0,0,1,36.86181,47.16446Z" transform="translate(-0.77649 -0.07022)"/><path class="cls-101" d="M37.945,72.178c.26579-2.34219.64682-4.68613-.107-7.01276C39.77458,67.47386,39.50931,69.816,37.945,72.178Z" transform="translate(-0.77649 -0.07022)"/><path class="cls-105" d="M74.81451,70.01007q.53063,1.61406,1.06125,3.22813c-1.66437.35616-2.42191-.7645-2.70855-2.01791C72.91881,70.134,74.12762,70.2533,74.81451,70.01007Z" transform="translate(-0.77649 -0.07022)"/><path class="cls-106" d="M56.00427,71.97831c-2.36364-1.88808-.51334-4.54449-1.22777-6.73335q.50874-.04016,1.01769-.08019c.9977,1.92734.6144,3.92.27964,5.91039A3.7382,3.7382,0,0,0,56.00427,71.97831Z" transform="translate(-0.77649 -0.07022)"/><path class="cls-107" d="M61.81125,84.153a3.13956,3.13956,0,0,0,2.97923-1.757q.68771.41039,1.37605.8215a1.99382,1.99382,0,0,0-.03061.9334l-1.24761,1.12122C63.51774,85.84731,62.16827,86.36451,61.81125,84.153Z" transform="translate(-0.77649 -0.07022)"/><path class="cls-98" d="M56.07383,71.07515q-.13959-2.95522-.27941-5.91041C57.48736,67.0592,57.24433,69.04523,56.07383,71.07515Z" transform="translate(-0.77649 -0.07022)"/><path class="cls-103" d="M23.86733,65.06066q-2.995.0396-5.99.07915A4.66455,4.66455,0,0,1,23.86733,65.06066Z" transform="translate(-0.77649 -0.07022)"/><path class="cls-91" d="M32.79375,41.35362a7.363,7.363,0,0,0-5.75348.18743,1.03221,1.03221,0,0,1-.14131-1.41282q2.96032-.00641,5.92-.01328Q32.80569,40.73383,32.79375,41.35362Z" transform="translate(-0.77649 -0.07022)"/><path class="cls-82" d="M42.83041,74.17093l3.06293-.01283.90923.25206c-1.13936,1.35935-2.59161.60868-3.93409.56484-.08211-.00268-.215-.23964-.21872-.37056C42.64576,74.46174,42.76494,74.31559,42.83041,74.17093Z" transform="translate(-0.77649 -0.07022)"/><path class="cls-104" d="M22.5768,74.00216c-1.5896,1.89673-3.10513,1.67262-4.5645-.15942A9.05127,9.05127,0,0,1,22.5768,74.00216Z" transform="translate(-0.77649 -0.07022)"/><path class="cls-108" d="M59.936,74.17344q-3.02654-.02269-6.053-.0455.00617-.50008.01223-1,2.9809-.00288,5.96185-.00578Q59.89652,73.64777,59.936,74.17344Z" transform="translate(-0.77649 -0.07022)"/><path class="cls-109" d="M37.01806,65.223l-.20971,5.82638-.97322-.07735a7.81794,7.81794,0,0,1,.06375-5.81953Z" transform="translate(-0.77649 -0.07022)"/><path class="cls-110" d="M35.89888,65.15247q-.03189,2.90977-.06376,5.81954-.47476.10395-.94559.22464C35.2015,69.17784,34.03951,66.91288,35.89888,65.15247Z" transform="translate(-0.77649 -0.07022)"/><path class="cls-111" d="M29.97287,65.17878q-.10969,2.97589-.21939,5.95176C28.48009,69.097,28.22852,67.10109,29.97287,65.17878Z" transform="translate(-0.77649 -0.07022)"/><path class="cls-91" d="M19.76009,41.39121a7.06339,7.06339,0,0,0-5.73688.15952q-.05118-.71534-.10206-1.43181,2.963.00347,5.92489.00777A.9942.9942,0,0,1,19.76009,41.39121Z" transform="translate(-0.77649 -0.07022)"/><path class="cls-80" d="M56.22929,79.03959q-2.828.00288-5.6571.00562A6.27255,6.27255,0,0,1,56.22929,79.03959Z" transform="translate(-0.77649 -0.07022)"/><path class="cls-112" d="M22.5768,74.00216q-2.28246-.07959-4.5647-.1593a2.41882,2.41882,0,0,1,.003-.75287q2.51553.09755,5.03108.19512A3.96118,3.96118,0,0,0,22.5768,74.00216Z" transform="translate(-0.77649 -0.07022)"/><path class="cls-113" d="M75.95608,18.34c3.96754-.44949,4.86006,1.8149,4.09641,5.02449-.87153,3.663.2224,7.22935.10812,10.83974-5.75285,2.5105-11.66689,1.326-17.55282.77262a2.25263,2.25263,0,0,1-1.18772-1.33555c.57043-2.88228.93257-5.80433,1.43618-8.703-1.71423-3.48627-1.56649-6.14707,3.03037-6.83544a2.88339,2.88339,0,0,0,4.07184-.43667C72.1341,16.31081,73.77184,19.73605,75.95608,18.34Z" transform="translate(-0.77649 -0.07022)"/><path class="cls-114" d="M36.66254,29.175a8.619,8.619,0,0,0-.19-4.28013c-1.1004-2.98084.11758-4.56468,3.32334-4.55195a3.60339,3.60339,0,0,0,3.00394-.66108c2.19057-.95,4.05428.87015,6.15269.72688C51.64233,19.864,53.17,22.01581,52.5439,23.63c-1.41571,3.65014.20069,7.201-.5537,10.71374-4.26756,2.21587-8.81624,1.35248-13.18893.81535C34.99448,34.69148,36.45165,31.52559,36.66254,29.175Z" transform="translate(-0.77649 -0.07022)"/><path class="cls-115" d="M14.843,29.08159c.08133-2.31933-2.05017-6.09326,3.64245-4.40526,1.127.33419,3.71447.89561,5.51388-.00636,2.44849-1.22731,3.20485.38643,2.81273,2.11921-.61107,2.70033.25323,5.26645.05527,7.88706a10.718,10.718,0,0,1-12.32008.02492C14.43739,32.8186,14.01278,30.91707,14.843,29.08159Z" transform="translate(-0.77649 -0.07022)"/><path class="cls-116" d="M89.68312,38.16161q-42.35949-.015-84.71807-.03041c2.77147-2.08488,5.98867-.3875,8.92664-1.0545a19.717,19.717,0,0,1,12.96744.00252l8.06491-.02261c5.97662-1.88879,11.95282-2.18711,17.92837.00467l8.04485.00106a32.89133,32.89133,0,0,1,19.95478-.003C83.75034,37.79039,86.96535,35.984,89.68312,38.16161Z" transform="translate(-0.77649 -0.07022)"/><path class="cls-117" d="M61.893,33.84115c6.06859,1.14394,12.17254.513,18.26724.36351q.33119.87906.66167,1.75887a61.24853,61.24853,0,0,1-19.8966.009,2.78047,2.78047,0,0,0-.01135-.79563C60.42315,34.13267,61.0441,33.90337,61.893,33.84115Z" transform="translate(-0.77649 -0.07022)"/><path class="cls-118" d="M39.91154,19.06381c-.02466-1.71146-1.053-5.294.76188-4.572,2.51345.99991,4.152-5.93585,6.00988-.2814a6.86258,6.86258,0,0,1-.71406,1.36128c-.39333.76842.28355,1.29689.44868,1.94659a2.21423,2.21423,0,0,1-.33614,1.77576c-1.40718.71006-3.03711-.2814-4.42317.5913A1.99207,1.99207,0,0,1,39.91154,19.06381Z" transform="translate(-0.77649 -0.07022)"/><path class="cls-119" d="M66.01883,15.11025c-.72095-3.22185,3.14237-1.76768,3.729-3.65581,2.10512.31884,2.55563,2.26261,3.5852,3.64241a2.49614,2.49614,0,0,1-.26814,2.18733c-1.13948.67228-2.48544.085-3.65225.596a2.58565,2.58565,0,0,1-2.66948-.761C66.37994,16.495,66.41377,15.72538,66.01883,15.11025Z" transform="translate(-0.77649 -0.07022)"/><path class="cls-120" d="M36.66254,29.175c-.98046,4.59047,1.189,5.69105,5.3696,5.25545A98.34938,98.34938,0,0,1,51.99,34.34381l.07653.2451c-5.30779,3.01129-10.81293,1.59063-16.29333.72554C33.908,32.95484,36.4429,31.23261,36.66254,29.175Z" transform="translate(-0.77649 -0.07022)"/><path class="cls-121" d="M60.92531,35.97249q9.94872-.00273,19.897-.00722c.00975.364.01991.72984.02988,1.09486q-9.97786.00108-19.95515.003Q60.91138,36.517,60.92531,35.97249Z" transform="translate(-0.77649 -0.07022)"/><path class="cls-122" d="M35.77323,35.31444c5.40794-.7269,10.90642.56329,16.29111-.72834.88276.133.65291.86689.7689,1.41277a51.29909,51.29909,0,0,1-16.92863.13257Q35.85419,35.72049,35.77323,35.31444Z" transform="translate(-0.77649 -0.07022)"/><path class="cls-121" d="M35.9046,36.13143q8.46464-.065,16.929-.13124c.0062.35332.01271.708.019,1.06184q-8.965-.0027-17.92912-.00466Q35.4146,36.59364,35.9046,36.13143Z" transform="translate(-0.77649 -0.07022)"/><path class="cls-123" d="M68.90682,17.25344l4.00777-.30365a2.26415,2.26415,0,0,1,2.943.16224l.09846,1.228c.00223,2.49771-1.14322,3.66528-2.86726,1.40579A3.41655,3.41655,0,0,0,69.99568,18.221C69.03924,18.56637,68.79109,18.11464,68.90682,17.25344Z" transform="translate(-0.77649 -0.07022)"/><path class="cls-124" d="M75.85762,17.112l-2.94308-.16225q-.065-.978-.13-1.956a3.81255,3.81255,0,0,1-1.25536-2.81754,1.90382,1.90382,0,0,1,1.414-1.17561C75.39894,12.32993,76.577,14.26852,75.85762,17.112Z" transform="translate(-0.77649 -0.07022)"/><path class="cls-125" d="M20.83182,22.51029c-1.41174-.25-3.08884.062-3.72976-1.79,4.23933-3.35385,4.23933-3.35385,5.034-.88393A2.08932,2.08932,0,0,1,20.83182,22.51029Z" transform="translate(-0.77649 -0.07022)"/><path class="cls-126" d="M14.73678,34.17293c3.99263,1.37939,8.07749.54472,12.12988.50426q.00183.72363.00233,1.44917a31.99088,31.99088,0,0,1-12.9655-.0783l.01976-1.84547C14.17647,33.70017,14.44853,33.7146,14.73678,34.17293Z" transform="translate(-0.77649 -0.07022)"/><path class="cls-127" d="M68.90682,17.25344q.54445.48378,1.08887.96758c-.35947,1.17318-.40748,2.65479-2.17535,2.58853-1.7452-.0654-1.83277-1.41366-1.93375-2.70658l-.053-1.83856c.39738-.45462.64993-.362.77678.20558Z" transform="translate(-0.77649 -0.07022)"/><path class="cls-128" d="M41.89448,19.34093c1.20278-1.39256,2.6941-.08546,4.00906-.42848a2.51782,2.51782,0,0,1,1.95161-.43909,1.8574,1.8574,0,0,1,1.03788.83515q.0296.55014.05932,1.10026c-2.01355,4.554-3.79491-1.29047-5.73281-.12809C42.17537,20.81692,41.953,20.19438,41.89448,19.34093Z" transform="translate(-0.77649 -0.07022)"/><path class="cls-129" d="M13.9035,36.04807q6.4828.03938,12.96555.07853.0061.47689-.00978.95333-6.48409-.00159-12.96774-.00249Q13.89767,36.562,13.9035,36.04807Z" transform="translate(-0.77649 -0.07022)"/><path class="cls-130" d="M20.83182,22.51029q.6519-1.33676,1.304-2.67375c1.45625.10255,3.40509.1455,2.61794,2.24008C24.041,23.97328,22.26155,23.28373,20.83182,22.51029Z" transform="translate(-0.77649 -0.07022)"/><path class="cls-131" d="M62.85624,24.93835c-.09553,2.89.65757,5.86855-.89768,8.60631-2.1637-.54243-1.69081-1.9491-1.1114-3.39067C62.71537,28.87711,61.23461,26.3102,62.85624,24.93835Z" transform="translate(-0.77649 -0.07022)"/><path class="cls-132" d="M48.893,19.3085l-1.0492-.33159c-.84091-1.24495-1.86511-2.45171-.85052-4.08316C49.70038,15.47294,51.1564,16.59047,48.893,19.3085Z" transform="translate(-0.77649 -0.07022)"/><path class="cls-133" d="M46.9933,14.89375q.42522,2.04159.85048,4.08317l-1.94024-.06446-.0209-1.7442a1.25719,1.25719,0,0,1-.07719-1.879l.87784-1.07884A.69954.69954,0,0,1,46.9933,14.89375Z" transform="translate(-0.77649 -0.07022)"/><path class="cls-134" d="M41.89448,19.34093q.66248.46975,1.325.93962c-.24878.94934-.35413,2.00317-1.72952,2.00142-1.328-.00168-1.64235-.845-1.69408-1.939q.05775-.63962.11564-1.27917Q40.903,19.20238,41.89448,19.34093Z" transform="translate(-0.77649 -0.07022)"/><path class="cls-135" d="M72.00711,12.13173l.77743,2.86213c-2.94607.4835-1.28406-2.9918-3.03642-3.53673l.03648-.01447C70.98466,10.1912,71.72021,10.43795,72.00711,12.13173Z" transform="translate(-0.77649 -0.07022)"/><path class="cls-124" d="M72.00711,12.13173a1.83177,1.83177,0,0,0-2.22229-.69063c.2571-1.53462,1.1748-2.861,2.60927-2.89446.87854-.02047.41637,1.58.549,2.454Z" transform="translate(-0.77649 -0.07022)"/><path class="cls-136" d="M60.84716,30.154c-.04059,1.26252-.19762,2.56322,1.11052,3.38721l-.0643.30148q-.49043.66525-.97976,1.33386C59.36851,33.52283,59.41047,31.84768,60.84716,30.154Z" transform="translate(-0.77649 -0.07022)"/><path class="cls-137" d="M14.73678,34.17293q-.40725.01457-.814.02908c.05773-1.75057-.55678-3.62241.92021-5.11947Q14.78991,31.62678,14.73678,34.17293Z" transform="translate(-0.77649 -0.07022)"/><path class="cls-138" d="M66.6104,16.47q-.3913-.09178-.77656-.20631.09218-.576.1849-1.15341Q66.31466,15.79012,66.6104,16.47Z" transform="translate(-0.77649 -0.07022)"/><path class="cls-139" d="M199.61034,72.20952c.00545-2.18812-.35722-4.29865,2.56247-3.87508,2.46915.35821,5.226.72853,5.01669,4.09669-.187,3.01077-2.778,3.26008-5.092,3.45575C198.65315,76.17813,199.9444,73.4715,199.61034,72.20952Z" transform="translate(-0.77649 -0.07022)"/><path class="cls-140" d="M199.67494,60.68513c-.21156-2.43283.17245-3.73017,2.3044-3.41788,1.78906.26207,3.23935,1.0071,3.04565,3.13062-.18672,2.0469-1.63426,2.668-3.48532,2.71688C199.05936,63.18024,199.802,61.29172,199.67494,60.68513Z" transform="translate(-0.77649 -0.07022)"/><path class="cls-141" d="M255.3584,66.928c-.138,1.24591-.19693,2.74416-.4875,4.19605a5.33056,5.33056,0,0,1-5.21681,4.51215,5.151,5.151,0,0,1-5.39873-4.22011,19.76447,19.76447,0,0,1-.089-9.32814c.648-2.84372,2.42622-4.89091,5.51434-4.74327,3.19318.15266,5.12447,2.05472,5.39012,5.3777C255.17615,64.04017,255.25217,65.36035,255.3584,66.928Z" transform="translate(-0.77649 -0.07022)"/><path class="cls-141" d="M308.24173,66.72672a37.50786,37.50786,0,0,1-.49823,4.14542c-.59546,2.67817-2.26419,4.62888-5.04346,4.7584-2.92416.13628-4.99487-1.47991-5.7742-4.43178a17.36387,17.36387,0,0,1-.21216-8.35768c.73785-3.31884,2.51813-5.59545,6.00186-5.48448,3.63892.11591,4.986,2.78062,5.26862,6.09252C308.06863,64.43883,308.14023,65.42964,308.24173,66.72672Z" transform="translate(-0.77649 -0.07022)"/><path class="cls-142" d="M218.17787,101.21662c2.84276-.17178,5.80994-.4016,7.20418,2.82254,1.2684,2.93317-.24437,5.02832-2.58977,6.68628-1.57251,1.48848-3.18954,1.26471-4.83035.12555l.20116.23248A13.10079,13.10079,0,0,1,218.17787,101.21662Z" transform="translate(-0.77649 -0.07022)"/><path class="cls-68" d="M218.17787,101.21662q-.00881,4.93263-.01619,9.86607A8.65968,8.65968,0,0,1,218.17787,101.21662Z" transform="translate(-0.77649 -0.07022)"/><path class="cls-143" d="M217.96193,110.851q2.415-.06228,4.83022-.12505C221.23694,112.87458,219.62389,112.80342,217.96193,110.851Z" transform="translate(-0.77649 -0.07022)"/><path class="cls-144" d="M366.74524,112.94543c-1.55356,4.46308-3.89642,7.71288-9.40527,7.3033-2.29953-.171-2.76587-1.06629-2.71829-3.04979a88.05818,88.05818,0,0,0-.05316-10.97757c-.4375-4.30112,1.72858-4.51387,5.02359-4.15283,4.46786.48954,5.92554,3.70574,7.18405,7.24118A2.76491,2.76491,0,0,1,366.74524,112.94543Z" transform="translate(-0.77649 -0.07022)"/><path class="cls-59" d="M353.101,119.06992V103.33828l.45132-.00449v15.732Z" transform="translate(-0.77649 -0.07022)"/><path class="cls-145" d="M366.74524,112.94543l.03094-3.63573C368.40961,110.5356,368.62689,111.74944,366.74524,112.94543Z" transform="translate(-0.77649 -0.07022)"/><path class="cls-146" d="M355.80206,100.448a12.02547,12.02547,0,0,1,1.74536-.2644,7.2475,7.2475,0,0,1,1.46915.28886C357.94662,101.70471,356.87631,100.781,355.80206,100.448Z" transform="translate(-0.77649 -0.07022)"/><path class="cls-147" d="M294.94739,114.78439c.502-3.62282,1.92264-6.94653,3.39008-10.91547a31.82988,31.82988,0,0,1,3.4816,11.0135A6.62357,6.62357,0,0,1,294.94739,114.78439Z" transform="translate(-0.77649 -0.07022)"/><path class="cls-24" d="M294.94739,114.78439q3.43584.04915,6.87164.09816C299.49979,116.86211,297.2067,117.00795,294.94739,114.78439Z" transform="translate(-0.77649 -0.07022)"/><path class="cls-102" d="M134.79558,39.15733c-.0014-2.30665-2.10565-3.31242-3.0972-5.00653.87575-2.76233,3.50883-2.98964,5.65714-3.88452,3.49223-1.4547,7.00946-2.84941,10.5161-4.26943a2.27339,2.27339,0,0,0,.94745.101c.67722.23969,2.036.31609,1.0932,1.39767-4.83756,5.54979-4.2309,12.17495-3.94676,18.76049.5096,1.95971.16675,2.9337-2.03416,1.75916q-2.92857-3.1532-5.857-6.30661C137.84807,39.74416,135.44362,40.57951,134.79558,39.15733Z" transform="translate(-0.77649 -0.07022)"/><path class="cls-148" d="M143.93134,48.01517c1.611.492,2.0249-.39967,2.03394-1.75934q.99337-.52389,1.98648-1.04813-.1024,1.46792-.20567,2.93573C146.41673,49.80971,145.13149,50.17884,143.93134,48.01517Z" transform="translate(-0.77649 -0.07022)"/><path class="cls-149" d="M62.73669,93.13555c.4711,2.01854-1.45049,3.23621-1.6803,5.0202a37.10846,37.10846,0,0,1-3.20455,8.94589c-3.27281-.79613-1.79818-3.8224-2.705-5.73347.10709-4.0722,2.19789-7.29472,4.48841-10.43387C61.92031,89.90233,62.19692,91.70414,62.73669,93.13555Z" transform="translate(-0.77649 -0.07022)"/><path class="cls-150" d="M52.92435,120.01509l-2.01319-1.00087c-1.55235-1.8027.42806-4.233-1.08411-6.03909a3.71614,3.71614,0,0,1-.40882-1.17589,4.36232,4.36232,0,0,1,.42307-1.77846,10.40423,10.40423,0,0,1,.50649-1.09392c.26554-.54733.53893-1.09172.805-1.64589.08764-.195.18538-.37883.2739-.57439.097-.19567.2033-.37959.30218-.57776a8.09362,8.09362,0,0,1,.74042-1.14249c.68153-.71488,1.36783-1.4136,2.478-.80634,2.35461,2.78036.09481,5.96274.7808,8.88786C54.81572,115.39257,54.71214,118.04367,52.92435,120.01509Z" transform="translate(-0.77649 -0.07022)"/><path class="cls-151" d="M55.72807,113.06786c-2.20115-2.66532.52045-6.30708-1.77594-8.95351-.68691-1.24071-.09222-2.20115.68063-3.12421a1.14059,1.14059,0,0,1,1.26827.03183c2.02637,1.58546-.11973,4.50938,1.95072,6.08019Q56.79,110.08448,55.72807,113.06786Z" transform="translate(-0.77649 -0.07022)"/><path class="cls-152" d="M43.95622,85.84559c1.88142.43192,3.51125-1.4211,5.43569-.59851.37029,3.493,3.34008,5.82081,4.105,9.14213a2.819,2.819,0,0,1-1.4609,2.98043c-3.31717-.46256-3.315-4.082-5.48687-5.52812.62759,1.712,2.75459,3.22643,1.43476,5.56331a2.873,2.873,0,0,1-1.97933.52778c-2.38487-.461-3.16578-2.49256-4.18583-4.28954-.8703-1.53317-1.61471-3.21282-3.79293-3.1852-.45467-.01656-.90447-.06194-1.35606-.10838A17.07969,17.07969,0,0,1,31.98821,89.214a4.23634,4.23634,0,0,1-2.16708-1.69529,1.63326,1.63326,0,0,1-.02744-1.33838l1.13716-1.14518c.94779.10693,1.91891.16119,2.49668,1.10455a15.74382,15.74382,0,0,0,8.64768.03992Z" transform="translate(-0.77649 -0.07022)"/><path class="cls-80" d="M31.04156,105.10869l-.34-1.9549c-.62417-1.95689-1.93136-3.71223-1.74364-5.90872a2.65552,2.65552,0,0,1,.94864-1.01825c4.19652-1.102,5.38118,3.06,8.06824,4.611,1.40139,2.81791,2.69569,5.66608,2.32483,8.94392-2.20532,1.56747-3.31335-.48692-4.42494-1.59561A11.45518,11.45518,0,0,0,31.04156,105.10869Z" transform="translate(-0.77649 -0.07022)"/><path class="cls-153" d="M29.74346,97.12353a4.298,4.298,0,0,0-.78508.121q-.52748-.06189-1.054-.12479a22.86814,22.86814,0,0,1,.09044-10.95947q.90006.00976,1.79948.01978.07582.40011.14033.80193c-.002.22979-.004.45959-.00449.68947.29058,2.74873.05454,5.521.37674,8.26935A1.33643,1.33643,0,0,1,29.74346,97.12353Z" transform="translate(-0.77649 -0.07022)"/><path class="cls-154" d="M27.99486,86.1603q-.04555,5.47991-.09077,10.95965A11.9955,11.9955,0,0,1,27.99486,86.1603Z" transform="translate(-0.77649 -0.07022)"/><path class="cls-155" d="M31.04156,105.10869c2.161-.95571,3.574.11621,4.98822,1.63966,1.185,1.27656,2.232,2.79964,4.04358,3.35138,2.025.12073,2.81127,1.93614,4.13951,3.01369.87966,2.40413,2.95371,3.6247,4.9222,4.95313a1.05087,1.05087,0,0,1-.21,1.20475c.19056,1.1878,1.8925,2.40347.48191,3.5-1.22941.95567-2.72322.46523-3.9994-.581-1.74635-1.4317-3.60843-2.72223-5.42088-4.07326q-3.01273-3.52518-6.026-7.05081Q32.50075,108.087,31.04156,105.10869Z" transform="translate(-0.77649 -0.07022)"/><path class="cls-156" d="M48.92511,119.2713l-.06816-1.21188a3.82831,3.82831,0,0,1-.99941-3.29294,5.22313,5.22313,0,0,1,.37777-1.38295,2.24977,2.24977,0,0,1,1.67183-1.22027c4.28192,1.7056.8142,4.546,1.0036,6.85093Q49.91834,119.14276,48.92511,119.2713Z" transform="translate(-0.77649 -0.07022)"/><path class="cls-157" d="M61.81125,84.153c.74657,1.14047,2.04777.75584,3.077,1.11907q-.48468.863-.96941,1.72585c-.49979.68631-.86021,1.53265-1.86675,1.63341a2.74346,2.74346,0,0,0-3.15684.79212,1.9552,1.9552,0,0,1-1.3092-.13821c-1.27261-1.40412-2.78428-2.64582-3.081-4.68791a1.23451,1.23451,0,0,1,1.02773-.90831c1.50087.0969,3.04734-.35619,4.48943.39a2.19045,2.19045,0,0,0,.80921-.14594Q61.321,84.043,61.81125,84.153Z" transform="translate(-0.77649 -0.07022)"/><path class="cls-158" d="M61.896,88.19345q1.01146-.59758,2.0229-1.19536c.90667,1.91863-1.28635,3.319-.86259,5.15714l-.31962.98022c-.92622-.69994-1.33323-2.14681-2.85756-1.98649a1.356,1.356,0,0,1-.29789-1.11972C59.994,88.96575,60.98715,88.63283,61.896,88.19345Z" transform="translate(-0.77649 -0.07022)"/><path class="cls-95" d="M156.02654,113.43058q-1.06787.38562-2.13573.77132-1.98921.51034-3.97827,1.02087a2.21707,2.21707,0,0,0-2.15988.83369,2.1072,2.1072,0,0,0-1.88126,1.05956,6.71641,6.71641,0,0,0-3.902-.99037q1.01564-1.46686,2.03127-2.93382a14.87444,14.87444,0,0,0,4.88-6.06706c3.78293-3.14072,5.64813-7.397,6.96532-11.97221.49834-2.379.555-4.87886,1.92082-7.02054.46184-4.71618.78928-9.42328-.94511-13.9911-.83727-1.51706-2.29373-2.92536-.85059-4.84294,2.68988.53835,2.9649,3.57139,4.973,4.81371q3.35767,4.5654,6.71561,9.1313c2.27113,1.13527,3.16414,3.36356,4.30191,5.39994,1.45863,2.5643,2.37866,5.38127,3.73712,7.99419-.70346,4.4914-3.92078,7.27756-6.92474,10.20827q-4.92247,2.75882-9.845,5.51791A2.39124,2.39124,0,0,1,156.02654,113.43058Z" transform="translate(-0.77649 -0.07022)"/><path class="cls-159" d="M171.0564,89.14167q-1.69828-2.9493-3.39667-5.89867c4.14275-1.22066,6.85025.94125,9.21527,3.9103q-.00181,1.50357-.00366,3.0071C174.56807,91.904,172.84312,90.34654,171.0564,89.14167Z" transform="translate(-0.77649 -0.07022)"/><path class="cls-160" d="M171.0564,89.14168q2.90751.50925,5.815,1.01862a10.81254,10.81254,0,0,1-1.17406,6.4785C172.49878,95.16209,172.56725,91.66281,171.0564,89.14168Z" transform="translate(-0.77649 -0.07022)"/><path class="cls-161" d="M147.74782,63.1879l6.12711,1.9645q.508,1.49234,1.016,2.98465c-.98708,1.06949-2.04465.20023-3.07384.11177C150.13251,66.82569,148.17825,65.61941,147.74782,63.1879Z" transform="translate(-0.77649 -0.07022)"/><path class="cls-162" d="M151.81708,68.24882c.97853-1.30508,2.06061.24542,3.07367-.11162q.54025.58038,1.08026,1.1609.42542,2.42123.85068,4.84277C153.79211,73.33319,153.27113,70.39474,151.81708,68.24882Z" transform="translate(-0.77649 -0.07022)"/><path class="cls-163" d="M136.87183,50.1539l2.00317-.00255q2.99922,1.00082,5.99844,2.00165.4912,1.00385.98224,2.00778C142.482,53.67467,139.31584,52.72384,136.87183,50.1539Z" transform="translate(-0.77649 -0.07022)"/><path class="cls-164" d="M148.92229,56.07226q.49979.53428,1,1.06846.48061,1.50027.96039,3.00074c.35741,1.03781-.08328,1.27824-1.02109,1.022q-.51936-.49135-1.03928-.9824-.4682-1.02234-.93524-2.04549A2.2547,2.2547,0,0,0,148.92229,56.07226Z" transform="translate(-0.77649 -0.07022)"/><path class="cls-165" d="M157.7668,88.132c-.13246,2.47907-.42525,4.91428-1.92079,7.02048q-.42751.026-.85271.0672.3468-1.594.6902-3.18983c.28569-1.315-.06828-2.80807,1.08006-3.88223Q157.26466,88.13985,157.7668,88.132Z" transform="translate(-0.77649 -0.07022)"/><path class="cls-166" d="M156.02654,113.43058l2.90236-1.06729q.947,1.46293,1.89354,2.92728Q158.4241,114.362,156.02654,113.43058Z" transform="translate(-0.77649 -0.07022)"/><path class="cls-167" d="M151.89711,61.14338c2.47035-.75295,4.55487-.35558,5.98065,2.00591q-2.534-.48962-5.068-.97921C151.80043,62.4546,151.6162,62.00573,151.89711,61.14338Z" transform="translate(-0.77649 -0.07022)"/><path class="cls-168" d="M151.89711,61.14338q.45712.5132.91344,1.02655c-1.704,1.77424-2.17374-.0631-2.94882-1.00659q.51029-.51071,1.02087-1.02179Q151.38994,60.64238,151.89711,61.14338Z" transform="translate(-0.77649 -0.07022)"/><path class="cls-5" d="M19.76009,41.39121q.04318-.63207.08615-1.26434a5.98391,5.98391,0,0,1,7.05254.00155q.07077.706.14133,1.41253l-.02563.15606c1.76909,4.73026.36129,9.61713.71078,14.41738a3.88086,3.88086,0,0,1-4.50823,3.615c-2.62852-.19307-4.17127-1.829-4.21111-4.6133,1.07624-4.38992-.29286-8.91746.74908-13.30931Z" transform="translate(-0.77649 -0.07022)"/><path class="cls-82" d="M27.72527,56.11439c-1.7696-4.73013-.53891-9.60822-.71088-14.41726C29.739,46.38017,28.39182,51.26406,27.72527,56.11439Z" transform="translate(-0.77649 -0.07022)"/><path class="cls-75" d="M19.755,41.80682c-.21256,4.43855,1.01472,8.95813-.74907,13.30934C19.002,50.66542,17.771,46.14565,19.755,41.80682Z" transform="translate(-0.77649 -0.07022)"/><path class="cls-169" d="M70.87717,59.26178l-3.00446.04749-2.08688-1.17332a55.40548,55.40548,0,0,1,.04546-14.99771l.3624.13507c1.89144-.7207,3.74751.85871,5.63974.08676A4.92171,4.92171,0,0,1,75.859,47.16174c-.16783,2.64917.09795,5.30553-.13181,7.95367C75.21882,57.79393,73.076,58.56063,70.87717,59.26178Z" transform="translate(-0.77649 -0.07022)"/><path class="cls-85" d="M65.8313,43.13822q-.02274,7.49886-.04546,14.99771A25.1332,25.1332,0,0,1,65.8313,43.13822Z" transform="translate(-0.77649 -0.07022)"/><path class="cls-90" d="M75.72717,55.11541a7.94331,7.94331,0,0,1,.13179-7.95374A8.68775,8.68775,0,0,1,75.72717,55.11541Z" transform="translate(-0.77649 -0.07022)"/><path class="cls-170" d="M71.83344,43.36c-1.90253,1.443-3.7739.85524-5.63979-.08666C68.10291,41.39845,69.95146,43.46571,71.83344,43.36Z" transform="translate(-0.77649 -0.07022)"/><path class="cls-171" d="M42.07521,86.17962a8.77618,8.77618,0,0,1-8.64385-.04Q37.74946,86.15972,42.07521,86.17962Z" transform="translate(-0.77649 -0.07022)"/><path class="cls-172" d="M52.91835,94.39022a47.47589,47.47589,0,0,0-4.07563-6.052c-1.44486-1.59263-.38758-2.20322.5481-3.091l-.00571-.01033c5.01709-.23782,4.642,4.28642,6.24709,7.06775C55.4309,93.91258,54.8453,95.02629,52.91835,94.39022Z" transform="translate(-0.77649 -0.07022)"/><path class="cls-173" d="M55.14468,92.54467c-2.33471-2.109-2.37426-6.02621-5.75888-7.30817q.29325-.42184.58791-.84441c1.5992-1.26,3.24912-.91983,4.91248-.1557a2.82183,2.82183,0,0,0,.00642.615c.04163,2.04236,1.84706,3.534,1.7607,5.621A2.02726,2.02726,0,0,1,55.14468,92.54467Z" transform="translate(-0.77649 -0.07022)"/><path class="cls-174" d="M54.88619,84.23638q-2.4553.07594-4.91153.15379.07788-.55659.15813-1.11682.85907-.12845,1.717-.25729c2.711.45408,5.64549-.80784,8.17245,1.063Q57.45427,84.15762,54.88619,84.23638Z" transform="translate(-0.77649 -0.07022)"/><path class="cls-175" d="M48.09322,70.94674c-1.8523,1.53305-3.50743,1.44768-4.87986.66335-.69939-.39969-.00576-1.53073.6918-1.96442C45.80754,68.46292,46.525,70.29534,48.09322,70.94674Z" transform="translate(-0.77649 -0.07022)"/><path class="cls-176" d="M42.42887,67.59913c2.066-1.80537,3.40511-1.19762,5.18919-.35172C45.87724,68.56886,44.47612,68.32682,42.42887,67.59913Z" transform="translate(-0.77649 -0.07022)"/><path class="cls-177" d="M23.813,67.32749l.00538,3.66313a4.36317,4.36317,0,0,1-3.78988,1.06444c-1.07267-1.5857-.81231-3.21049-.14214-4.84731Z" transform="translate(-0.77649 -0.07022)"/><path class="cls-112" d="M19.88634,67.20776q.07113,2.42369.1422,4.84734c-1.96885-1.3163-1.01926-3.19817-.93247-4.90657.00414-.08139.25715-.22137.37943-.20708C19.62084,66.95843,19.75011,67.11288,19.88634,67.20776Z" transform="translate(-0.77649 -0.07022)"/><path class="cls-178" d="M69.60545,28.71857c.06091-1.16155.06057-2.53588,1.61666-2.53991,1.54914-.004,1.62885,1.329,1.605,2.5212-.02251,1.12471.17473,2.44906-1.56851,2.44934C69.56544,31.14946,69.65987,29.86982,69.60545,28.71857Z" transform="translate(-0.77649 -0.07022)"/><path class="cls-179" d="M44.84779,31.76437c-1.28656-.07348-1.97-.61272-1.97725-1.835-.0077-1.30437-.2856-2.94193,1.496-3.133,1.06345-.114,1.57464,1.05774,1.49174,2.15254C45.77971,29.98728,46.341,31.33054,44.84779,31.76437Z" transform="translate(-0.77649 -0.07022)"/><path class="cls-180" d="M21.85093,30.62249c-.02535.79175.00031,1.65478-1.07538,1.78748-.88662.10937-1.04043-.63931-1.09966-1.23235-.07783-.77929-.06277-1.78871.82437-2.0133C21.46848,28.9192,21.88717,29.66919,21.85093,30.62249Z" transform="translate(-0.77649 -0.07022)"/><path class="cls-3" d="M45.80545,15.28924l.07718,1.879c-1.51078.38959-2.11742-.374-1.81176-1.70985C44.3731,14.13758,45.18766,15.04808,45.80545,15.28924Z" transform="translate(-0.77649 -0.07022)"/><path class="cls-181" d="M55.14468,92.54467l.97225-2.3555c.28677-.98882.76992-1.67106,1.95736-1.25376a2.22362,2.22362,0,0,1,.58042-.01154c1.00058-.16747,1.42258.23012,1.21426,1.24331q.00417.49094.01012.98183-1.98947,4.93785-3.97855,9.87437-.50379.092-1.00854.18678c-2.6048,1.07689-2.82655-1.00644-3.43536-2.58447a1.75156,1.75156,0,0,1,.367-1.41013q.54716-1.413,1.09452-2.82564A1.9715,1.9715,0,0,0,55.14468,92.54467Z" transform="translate(-0.77649 -0.07022)"/><path class="cls-182" d="M49.90714,112.16327l-1.00979,1.02449c-5.07848.18922-2.62616-3.78085-3.33142-6.01034a8.11858,8.11858,0,0,1,.409-2.38132,9.64759,9.64759,0,0,1,2.0877-3.16189,2.03864,2.03864,0,0,1,1.92526-.69275c2.22093,1.60949.75282,4.29569,1.81268,6.24751l.01852,1.10079q-.45254.34535-.88052.72069l-.11668,1.27408q-.44675.351-.87918.71951Z" transform="translate(-0.77649 -0.07022)"/><path class="cls-183" d="M51.80054,107.189c-3.98579-.95084-.25964-4.359-1.9273-6.04851a1.5947,1.5947,0,0,1-.36683-1.91522,2.6915,2.6915,0,0,1,2.48529-1.06133c1.16984.82157.75791,3.14948,2.90014,3.04571q-.47054,1.45329-.94056,2.90513-.53359.99128-1.06886,1.98336-.453.47455-.90318.95178Z" transform="translate(-0.77649 -0.07022)"/><path class="cls-184" d="M50.93854,109.01046c.04086-.549.27421-.863.88065-.721C51.77068,108.82949,51.53553,109.141,50.93854,109.01046Z" transform="translate(-0.77649 -0.07022)"/><path class="cls-185" d="M51.97924,107.0499c.02213-.582.21081-1.00573.90324-.95132C52.81347,106.63563,52.631,107.06545,51.97924,107.0499Z" transform="translate(-0.77649 -0.07022)"/><path class="cls-186" d="M49.94268,111.004c.03663-.55329.29024-.84161.8793-.7198C50.783,110.83494,50.5293,111.12291,49.94268,111.004Z" transform="translate(-0.77649 -0.07022)"/><path class="cls-187" d="M46.91588,104.18476l-.08685,1.845c-.89118,2.17734-1.37023,4.50655-2.43585,6.621-.15974.14687-.32258.29121-.48542.43557-2.58682.68459-2.45291-2.124-3.83452-2.98664q-1.56642-4.48149-3.13306-8.96307a7.27041,7.27041,0,0,1-1.31865-3.22769c.04126-2.90153-.75945-5.89432.91426-8.623l1.3631-.12733C41.6815,93.70111,45.19321,98.40615,46.91588,104.18476Z" transform="translate(-0.77649 -0.07022)"/><path class="cls-188" d="M46.91588,104.18476a73.64049,73.64049,0,0,1-9.017-15.02613c2.02341-.54979,3.17094.05393,4.14075,2.10851.9839,2.08444,1.72563,4.49766,3.87465,5.8811a8.42626,8.42626,0,0,1,2.75119,5.07545A1.93517,1.93517,0,0,1,46.91588,104.18476Z" transform="translate(-0.77649 -0.07022)"/><path class="cls-189" d="M51.9917,98.16392l-1.92938,1.10823c-1.92946.41111-1.96135-.89046-1.98508-2.19938-.80559-3.17017-4.104-5.268-4.06689-9.59863,4.08718,2.60168,5.20248,6.798,7.81344,9.74143Q51.90364,97.69043,51.9917,98.16392Z" transform="translate(-0.77649 -0.07022)"/><path class="cls-190" d="M29.93467,86.982l1.90661,1.30485c2.1319,1.8511,5.3829,3.00636,4.27324,6.87449-2.829,1.55007-4.00474-.95-5.65686-2.29726a6.73628,6.73628,0,0,1-1.00327-1.99248c.05016-1.19286-.45-2.45548.44-3.54539Z" transform="translate(-0.77649 -0.07022)"/><path class="cls-191" d="M35.77895,95.1644c.43849-3.29475-3.4565-4.10889-3.93731-6.87759q2.34721.49944,4.69466.999.09828,4.43111.19754,8.8619a.9432.9432,0,0,1-1.263-.2311A2.38344,2.38344,0,0,1,35.77895,95.1644Z" transform="translate(-0.77649 -0.07022)"/><path class="cls-192" d="M48.07724,97.07277Q49.06941,98.1723,50.062,99.272q-.094.93442-.18873,1.8685-.60357.54152-1.20745,1.08314a7.90727,7.90727,0,0,1-2.75151-5.07549Q46.99579,97.11056,48.07724,97.07277Z" transform="translate(-0.77649 -0.07022)"/><path class="cls-193" d="M35.95818,98.10893q.38853.00827.77577.03926.103,1.49371.20623,2.98842c-2.782-.65059-3.30291-5.356-7.19667-4.01311q-.00344-.49675-.00677-.99358a6.89113,6.89113,0,0,1,.11489-4.98147l1.02562,1.00114C32.19276,94.45843,34.56067,95.87,35.95818,98.10893Z" transform="translate(-0.77649 -0.07022)"/><path class="cls-194" d="M29.85164,91.14844q-.05709,2.49158-.11454,4.98232c-1.31914-2.96072-1.62251-5.90218.1582-8.80522Q29.87257,89.23767,29.85164,91.14844Z" transform="translate(-0.77649 -0.07022)"/><path class="cls-195" d="M48.84714,114.2544q.00479,1.90263.00969,3.80515c-3.57735.2608-4.67724-1.94384-4.94885-4.97309l-.07077.08961C45.73762,112.46494,47.09589,114.27257,48.84714,114.2544Z" transform="translate(-0.77649 -0.07022)"/><path class="cls-196" d="M48.84714,114.2544c-2.11629,1.71423-3.49306-.00755-5.00994-1.07832-.56794-3.03738,1.1419-5.12109,2.99186-7.14623.81093,2.35046-1.72076,5.66673,2.068,7.15746Q48.87238,113.72131,48.84714,114.2544Z" transform="translate(-0.77649 -0.07022)"/><path class="cls-1" d="M58.0743,88.93541q-.9789.62656-1.95759,1.25343c-.66449-1.72-3.22247-3.00584-1.22449-5.33739C56.45193,85.82414,57.85345,86.91987,58.0743,88.93541Z" transform="translate(-0.77649 -0.07022)"/><path class="cls-197" d="M59.869,90.16717q-.60774-.62075-1.21488-1.2424c.07521-1.34476.55358-2.57394,1.97889-2.74943,1.41134-.17377.48424,1.54547,1.26274,2.018Q60.88263,89.18038,59.869,90.16717Z" transform="translate(-0.77649 -0.07022)"/><path class="cls-80" d="M35.95818,98.10893c-2.26751-1.49716-4.56741-2.96671-5.081-5.95932,1.82385.69695,2.63711,3.03765,4.90264,3.01472Q35.8681,96.6367,35.95818,98.10893Z" transform="translate(-0.77649 -0.07022)"/></svg>